{"glyphs":{"0":{"ha":663,"x_min":40,"x_max":622,"o":"m 333 -18 q 182 19 249 -18 q 78 123 115 57 q 40 271 40 189 q 78 417 40 353 q 182 518 115 482 q 333 554 249 554 q 483 517 418 554 q 585 415 549 481 q 622 268 622 350 q 585 121 622 186 q 483 19 549 56 q 333 -18 417 -18 m 347 8 q 454 72 418 8 q 490 250 490 136 q 442 458 490 389 q 321 528 393 528 q 210 462 250 528 q 171 285 171 396 q 219 85 171 163 q 347 8 268 8 z "},"1":{"ha":461,"x_min":47,"x_max":435,"o":"m 64 0 q 60 8 60 0 q 64 17 60 17 q 146 24 119 17 q 182 51 172 31 q 192 113 192 71 l 192 361 q 184 429 192 410 q 153 449 176 449 q 60 419 129 449 l 58 419 q 50 426 53 419 q 53 435 47 433 l 292 549 q 296 550 293 550 q 303 547 300 550 q 306 539 306 543 l 306 113 q 314 50 306 69 q 348 24 322 31 q 431 17 374 17 q 435 8 435 17 q 431 0 435 0 q 354 1 382 0 l 247 3 l 140 1 q 64 0 113 0 z "},"2":{"ha":558,"x_min":46,"x_max":524,"o":"m 51 32 q 232 199 174 140 q 316 300 290 257 q 342 388 342 343 q 313 478 342 442 q 233 515 283 515 q 145 470 181 515 q 81 335 110 425 q 75 333 81 333 q 64 338 63 333 l 122 567 q 128 569 122 569 q 135 567 132 569 q 138 564 139 565 q 136 547 136 557 q 157 525 136 525 q 199 535 169 525 q 306 554 260 554 q 423 517 381 554 q 465 421 465 481 q 435 325 465 371 q 360 241 404 279 q 242 146 317 203 q 213 124 225 133 q 190 107 200 114 q 187 100 185 103 q 196 97 189 97 q 379 101 322 97 q 467 121 436 106 q 507 174 497 136 q 514 176 507 176 q 524 172 524 176 l 497 15 q 494 5 497 10 q 485 0 490 0 l 60 0 q 49 13 53 0 q 51 32 46 26 z "},"3":{"ha":544,"x_min":40,"x_max":497,"o":"m 304 182 q 449 113 400 168 q 497 -15 497 58 q 451 -151 497 -82 q 311 -281 406 -219 q 78 -382 217 -342 q 69 -376 72 -383 q 71 -367 65 -368 q 296 -216 228 -308 q 364 -32 364 -124 q 323 97 364 47 q 208 147 282 147 q 149 139 181 147 q 142 146 144 138 q 143 156 139 154 q 288 233 243 182 q 333 372 333 283 q 309 480 333 442 q 238 518 285 518 q 133 478 179 518 q 58 358 88 438 q 53 357 57 357 q 42 363 40 357 l 93 565 q 99 568 96 568 q 107 566 103 568 q 110 563 111 564 q 107 547 107 551 q 131 524 107 524 q 176 535 147 524 q 231 549 208 544 q 283 554 254 554 q 410 508 364 554 q 456 396 456 461 q 415 270 456 329 q 304 182 375 211 z "},"4":{"ha":631,"x_min":29,"x_max":586,"o":"m 581 65 q 586 42 586 65 q 583 15 586 28 q 578 1 581 1 l 544 3 q 478 6 500 6 l 478 -196 q 467 -215 478 -210 l 375 -261 q 367 -264 367 -264 q 363 -253 363 -264 l 363 10 q 44 11 278 11 q 33 17 38 11 q 35 28 29 22 l 457 550 q 465 553 460 553 q 474 551 469 553 q 478 544 478 549 l 478 61 l 581 65 m 124 57 q 363 58 296 57 l 363 364 l 117 67 q 124 57 108 57 z "},"5":{"ha":568,"x_min":79,"x_max":496,"o":"m 121 272 q 405 201 314 271 q 496 13 496 132 q 455 -131 496 -67 q 326 -256 414 -196 q 94 -382 239 -317 l 93 -382 q 84 -376 88 -382 q 86 -367 81 -369 q 306 -196 243 -282 q 369 -11 369 -110 q 299 168 369 104 q 94 232 228 232 q 83 237 88 232 q 81 249 79 242 l 125 496 q 129 508 126 506 q 143 511 132 510 q 378 540 318 532 q 455 558 438 549 q 479 588 472 567 q 488 591 481 592 q 494 585 496 590 l 467 449 q 455 428 463 432 q 428 424 447 424 l 164 418 q 143 397 146 418 l 121 272 z "},"6":{"ha":646,"x_min":56,"x_max":607,"o":"m 425 397 q 561 345 515 397 q 607 221 607 293 q 568 101 607 156 q 463 14 529 46 q 319 -18 397 -18 q 126 63 197 -18 q 56 288 56 144 q 116 544 56 418 q 290 768 176 669 q 556 918 403 867 q 564 913 561 919 q 563 903 567 906 q 353 747 439 843 q 224 536 267 650 q 181 308 181 422 q 202 159 181 226 q 264 52 224 92 q 357 13 304 13 q 448 58 414 13 q 482 182 482 103 q 451 301 482 256 q 358 346 419 346 q 305 335 331 346 q 247 299 279 324 q 243 297 246 297 q 235 301 239 297 q 232 308 231 306 q 425 397 310 397 z "},"7":{"ha":596,"x_min":21,"x_max":546,"o":"m 239 -297 q 210 -331 231 -321 l 111 -382 l 110 -382 q 103 -378 106 -382 q 101 -372 100 -375 l 465 422 q 460 432 471 432 q 182 426 260 432 q 78 403 104 421 q 39 338 53 385 q 32 335 36 335 q 24 337 28 335 q 22 342 21 339 l 81 574 q 90 576 82 576 q 97 572 99 575 q 96 558 96 567 q 109 540 96 544 q 163 536 122 536 l 531 536 q 541 530 536 536 q 543 518 546 524 l 239 -297 z "},"8":{"ha":679,"x_min":56,"x_max":639,"o":"m 428 481 q 539 408 497 439 q 610 332 581 378 q 639 226 639 286 q 598 101 639 157 q 487 13 557 44 q 335 -18 417 -18 q 189 13 253 -18 q 90 97 125 44 q 56 211 56 150 q 106 354 56 286 q 238 464 156 422 q 165 538 190 499 q 139 625 139 576 q 172 721 139 682 q 256 778 206 760 q 358 797 307 797 q 464 776 418 797 q 534 721 510 754 q 558 653 558 688 q 523 560 558 607 q 425 482 488 514 l 428 481 m 339 771 q 272 744 297 771 q 246 676 246 718 q 288 578 246 619 q 408 492 329 538 q 454 629 454 563 q 421 731 454 692 q 339 771 388 771 m 374 11 q 484 58 442 11 q 526 175 526 106 q 499 272 526 231 q 435 338 471 313 q 322 408 400 363 q 263 446 278 436 q 203 359 224 411 q 182 249 182 307 q 206 131 182 185 q 274 44 231 76 q 374 11 318 11 z "},"9":{"ha":646,"x_min":40,"x_max":590,"o":"m 233 147 q 124 176 167 147 q 60 248 81 204 q 40 338 40 292 q 73 449 40 400 q 165 526 106 499 q 299 554 224 554 q 512 468 433 554 q 590 236 590 382 q 531 -15 590 110 q 358 -237 471 -139 q 90 -382 244 -335 q 83 -376 86 -383 q 85 -367 79 -369 q 293 -217 207 -312 q 422 -10 379 -122 q 465 210 465 103 q 447 355 465 282 q 385 477 428 428 q 278 526 343 526 q 192 485 221 526 q 164 369 164 443 q 197 243 164 290 q 292 196 229 196 q 345 206 321 196 q 400 242 369 217 q 404 243 401 243 q 412 239 408 243 q 414 232 415 235 q 233 147 349 147 z "}," ":{"ha":325,"x_min":0,"x_max":0,"o":""},"A":{"ha":988,"x_min":-10,"x_max":994,"o":"m 988 17 q 994 8 994 17 q 988 0 994 0 q 903 3 961 0 q 818 6 844 6 q 736 3 783 6 q 663 0 689 0 q 657 8 657 0 q 663 17 657 17 q 722 26 703 17 q 740 56 740 35 q 717 126 740 76 l 567 431 l 315 431 l 208 190 q 190 115 190 149 q 225 42 190 67 q 322 17 260 17 q 329 8 329 17 q 322 0 329 0 q 250 3 297 0 q 158 6 197 6 q 71 3 121 6 q -3 0 26 0 q -10 8 -10 0 q -3 17 -10 17 q 63 32 36 17 q 114 87 89 47 q 174 204 139 126 l 472 876 q 485 881 475 881 q 496 876 494 881 l 836 190 q 917 53 885 90 q 988 17 950 17 m 331 465 l 550 465 l 435 699 l 331 465 z "},"Á":{"ha":988,"x_min":-10,"x_max":994,"o":"m 988 17 q 994 8 994 17 q 988 0 994 0 q 903 3 961 0 q 818 6 844 6 q 736 3 783 6 q 663 0 689 0 q 657 8 657 0 q 663 17 657 17 q 722 26 703 17 q 740 56 740 35 q 717 126 740 76 l 567 431 l 315 431 l 208 190 q 190 115 190 149 q 225 42 190 67 q 322 17 260 17 q 329 8 329 17 q 322 0 329 0 q 250 3 297 0 q 158 6 197 6 q 71 3 121 6 q -3 0 26 0 q -10 8 -10 0 q -3 17 -10 17 q 63 32 36 17 q 114 87 89 47 q 174 204 139 126 l 472 876 q 485 881 475 881 q 496 876 494 881 l 836 190 q 917 53 885 90 q 988 17 950 17 m 331 465 l 550 465 l 435 699 l 331 465 m 349 942 q 342 948 343 942 q 344 957 340 954 q 467 1044 389 983 q 536 1097 531 1093 q 581 1092 543 1103 q 647 1067 618 1081 q 660 1050 675 1053 q 502 1003 574 1029 q 351 943 431 978 l 349 942 z "},"Ă":{"ha":988,"x_min":-10,"x_max":994,"o":"m 988 17 q 994 8 994 17 q 988 0 994 0 q 903 3 961 0 q 818 6 844 6 q 736 3 783 6 q 663 0 689 0 q 657 8 657 0 q 663 17 657 17 q 722 26 703 17 q 740 56 740 35 q 717 126 740 76 l 567 431 l 315 431 l 208 190 q 190 115 190 149 q 225 42 190 67 q 322 17 260 17 q 329 8 329 17 q 322 0 329 0 q 250 3 297 0 q 158 6 197 6 q 71 3 121 6 q -3 0 26 0 q -10 8 -10 0 q -3 17 -10 17 q 63 32 36 17 q 114 87 89 47 q 174 204 139 126 l 472 876 q 485 881 475 881 q 496 876 494 881 l 836 190 q 917 53 885 90 q 988 17 950 17 m 331 465 l 550 465 l 435 699 l 331 465 m 486 958 q 383 1001 419 958 q 343 1125 346 1044 q 350 1131 343 1131 q 358 1128 357 1131 q 399 1074 361 1099 q 486 1050 436 1050 q 572 1074 535 1050 q 613 1128 610 1099 q 620 1131 613 1132 q 628 1125 628 1131 q 589 1001 625 1044 q 486 958 553 958 z "},"Ắ":{"ha":988,"x_min":-10,"x_max":994,"o":"m 988 17 q 994 8 994 17 q 988 0 994 0 q 903 3 961 0 q 818 6 844 6 q 736 3 783 6 q 663 0 689 0 q 657 8 657 0 q 663 17 657 17 q 722 26 703 17 q 740 56 740 35 q 717 126 740 76 l 567 431 l 315 431 l 208 190 q 190 115 190 149 q 225 42 190 67 q 322 17 260 17 q 329 8 329 17 q 322 0 329 0 q 250 3 297 0 q 158 6 197 6 q 71 3 121 6 q -3 0 26 0 q -10 8 -10 0 q -3 17 -10 17 q 63 32 36 17 q 114 87 89 47 q 174 204 139 126 l 472 876 q 485 881 475 881 q 496 876 494 881 l 836 190 q 917 53 885 90 q 988 17 950 17 m 331 465 l 550 465 l 435 699 l 331 465 m 486 922 q 383 965 419 922 q 343 1088 346 1007 q 350 1094 343 1093 q 358 1090 357 1094 q 399 1036 361 1060 q 486 1013 436 1013 q 572 1036 535 1013 q 613 1090 610 1060 q 618 1093 613 1093 q 628 1088 628 1093 q 589 965 625 1007 q 486 922 553 922 m 406 1069 q 401 1068 404 1068 q 394 1074 397 1068 q 394 1082 392 1079 q 483 1224 444 1151 q 525 1221 488 1231 q 592 1196 563 1211 q 608 1176 622 1181 q 505 1130 551 1156 q 406 1069 458 1104 z "},"Ặ":{"ha":988,"x_min":-10,"x_max":994,"o":"m 988 17 q 994 8 994 17 q 988 0 994 0 q 903 3 961 0 q 818 6 844 6 q 736 3 783 6 q 663 0 689 0 q 657 8 657 0 q 663 17 657 17 q 722 26 703 17 q 740 56 740 35 q 717 126 740 76 l 567 431 l 315 431 l 208 190 q 190 115 190 149 q 225 42 190 67 q 322 17 260 17 q 329 8 329 17 q 322 0 329 0 q 250 3 297 0 q 158 6 197 6 q 71 3 121 6 q -3 0 26 0 q -10 8 -10 0 q -3 17 -10 17 q 63 32 36 17 q 114 87 89 47 q 174 204 139 126 l 472 876 q 485 881 475 881 q 496 876 494 881 l 836 190 q 917 53 885 90 q 988 17 950 17 m 331 465 l 550 465 l 435 699 l 331 465 m 496 -279 q 440 -260 460 -279 q 419 -204 419 -240 q 440 -151 419 -169 q 496 -132 460 -132 q 550 -151 531 -132 q 569 -204 569 -169 q 551 -260 569 -240 q 496 -279 532 -279 m 486 958 q 383 1001 419 958 q 343 1125 346 1044 q 350 1131 343 1131 q 358 1128 357 1131 q 399 1074 361 1099 q 486 1050 436 1050 q 572 1074 535 1050 q 613 1128 610 1099 q 620 1131 613 1132 q 628 1125 628 1131 q 589 1001 625 1044 q 486 958 553 958 z "},"Ằ":{"ha":988,"x_min":-10,"x_max":994,"o":"m 988 17 q 994 8 994 17 q 988 0 994 0 q 903 3 961 0 q 818 6 844 6 q 736 3 783 6 q 663 0 689 0 q 657 8 657 0 q 663 17 657 17 q 722 26 703 17 q 740 56 740 35 q 717 126 740 76 l 567 431 l 315 431 l 208 190 q 190 115 190 149 q 225 42 190 67 q 322 17 260 17 q 329 8 329 17 q 322 0 329 0 q 250 3 297 0 q 158 6 197 6 q 71 3 121 6 q -3 0 26 0 q -10 8 -10 0 q -3 17 -10 17 q 63 32 36 17 q 114 87 89 47 q 174 204 139 126 l 472 876 q 485 881 475 881 q 496 876 494 881 l 836 190 q 917 53 885 90 q 988 17 950 17 m 331 465 l 550 465 l 435 699 l 331 465 m 486 922 q 383 965 419 922 q 343 1088 346 1007 q 350 1094 343 1093 q 358 1090 357 1094 q 399 1036 361 1060 q 486 1013 436 1013 q 572 1036 535 1013 q 613 1090 610 1060 q 618 1093 613 1093 q 628 1088 628 1093 q 589 965 625 1007 q 486 922 553 922 m 556 1069 q 458 1129 503 1104 q 357 1176 413 1154 q 372 1196 343 1181 q 439 1221 401 1211 q 481 1224 476 1231 q 567 1083 529 1138 q 568 1078 568 1082 q 565 1071 568 1074 q 556 1069 561 1068 z "},"Ẳ":{"ha":988,"x_min":-10,"x_max":994,"o":"m 988 17 q 994 8 994 17 q 988 0 994 0 q 903 3 961 0 q 818 6 844 6 q 736 3 783 6 q 663 0 689 0 q 657 8 657 0 q 663 17 657 17 q 722 26 703 17 q 740 56 740 35 q 717 126 740 76 l 567 431 l 315 431 l 208 190 q 190 115 190 149 q 225 42 190 67 q 322 17 260 17 q 329 8 329 17 q 322 0 329 0 q 250 3 297 0 q 158 6 197 6 q 71 3 121 6 q -3 0 26 0 q -10 8 -10 0 q -3 17 -10 17 q 63 32 36 17 q 114 87 89 47 q 174 204 139 126 l 472 876 q 485 881 475 881 q 496 876 494 881 l 836 190 q 917 53 885 90 q 988 17 950 17 m 331 465 l 550 465 l 435 699 l 331 465 m 486 922 q 383 965 419 922 q 343 1088 346 1007 q 350 1094 343 1093 q 358 1090 357 1094 q 399 1036 361 1060 q 486 1013 436 1013 q 572 1036 535 1013 q 613 1090 610 1060 q 618 1093 613 1093 q 628 1088 628 1093 q 589 965 625 1007 q 486 922 553 922 m 469 1056 q 467 1074 467 1069 q 472 1101 467 1086 q 482 1128 476 1115 q 497 1178 497 1158 q 484 1210 497 1199 q 454 1221 471 1221 q 426 1215 443 1221 l 424 1214 q 417 1219 419 1214 q 417 1226 414 1224 q 501 1251 457 1251 q 555 1234 535 1251 q 575 1192 575 1217 q 563 1156 575 1172 q 526 1119 550 1140 q 494 1085 504 1099 q 485 1056 483 1071 q 478 1052 486 1053 q 469 1056 471 1051 z "},"Ẵ":{"ha":988,"x_min":-10,"x_max":994,"o":"m 988 17 q 994 8 994 17 q 988 0 994 0 q 903 3 961 0 q 818 6 844 6 q 736 3 783 6 q 663 0 689 0 q 657 8 657 0 q 663 17 657 17 q 722 26 703 17 q 740 56 740 35 q 717 126 740 76 l 567 431 l 315 431 l 208 190 q 190 115 190 149 q 225 42 190 67 q 322 17 260 17 q 329 8 329 17 q 322 0 329 0 q 250 3 297 0 q 158 6 197 6 q 71 3 121 6 q -3 0 26 0 q -10 8 -10 0 q -3 17 -10 17 q 63 32 36 17 q 114 87 89 47 q 174 204 139 126 l 472 876 q 485 881 475 881 q 496 876 494 881 l 836 190 q 917 53 885 90 q 988 17 950 17 m 331 465 l 550 465 l 435 699 l 331 465 m 486 931 q 383 974 419 931 q 343 1097 346 1017 q 350 1103 343 1103 q 358 1100 357 1103 q 399 1047 361 1071 q 486 1022 436 1022 q 572 1047 535 1022 q 613 1100 610 1071 q 620 1103 613 1104 q 628 1097 628 1103 q 589 974 625 1017 q 486 931 553 931 m 593 1197 q 631 1206 615 1197 q 663 1235 646 1215 l 665 1236 q 671 1232 668 1236 q 672 1225 674 1228 q 613 1143 636 1164 q 558 1122 589 1122 q 479 1138 531 1122 q 430 1150 456 1144 q 382 1156 404 1156 q 344 1148 356 1156 q 313 1118 333 1140 l 311 1118 q 303 1122 307 1118 q 303 1128 300 1125 q 422 1232 364 1232 q 490 1218 438 1232 q 593 1197 558 1197 z "},"Ǎ":{"ha":988,"x_min":-10,"x_max":994,"o":"m 988 17 q 994 8 994 17 q 988 0 994 0 q 903 3 961 0 q 818 6 844 6 q 736 3 783 6 q 663 0 689 0 q 657 8 657 0 q 663 17 657 17 q 722 26 703 17 q 740 56 740 35 q 717 126 740 76 l 567 431 l 315 431 l 208 190 q 190 115 190 149 q 225 42 190 67 q 322 17 260 17 q 329 8 329 17 q 322 0 329 0 q 250 3 297 0 q 158 6 197 6 q 71 3 121 6 q -3 0 26 0 q -10 8 -10 0 q -3 17 -10 17 q 63 32 36 17 q 114 87 89 47 q 174 204 139 126 l 472 876 q 485 881 475 881 q 496 876 494 881 l 836 190 q 917 53 885 90 q 988 17 950 17 m 331 465 l 550 465 l 435 699 l 331 465 m 326 1106 l 326 1107 q 330 1115 326 1111 q 335 1115 333 1118 l 486 1053 l 636 1117 l 638 1117 q 644 1113 642 1117 q 643 1107 646 1110 l 501 954 q 486 949 496 949 q 469 954 475 949 l 326 1106 z "},"Â":{"ha":988,"x_min":-10,"x_max":994,"o":"m 988 17 q 994 8 994 17 q 988 0 994 0 q 903 3 961 0 q 818 6 844 6 q 736 3 783 6 q 663 0 689 0 q 657 8 657 0 q 663 17 657 17 q 722 26 703 17 q 740 56 740 35 q 717 126 740 76 l 567 431 l 315 431 l 208 190 q 190 115 190 149 q 225 42 190 67 q 322 17 260 17 q 329 8 329 17 q 322 0 329 0 q 250 3 297 0 q 158 6 197 6 q 71 3 121 6 q -3 0 26 0 q -10 8 -10 0 q -3 17 -10 17 q 63 32 36 17 q 114 87 89 47 q 174 204 139 126 l 472 876 q 485 881 475 881 q 496 876 494 881 l 836 190 q 917 53 885 90 q 988 17 950 17 m 331 465 l 550 465 l 435 699 l 331 465 m 469 1063 q 485 1069 476 1069 q 501 1063 494 1069 l 643 910 q 644 907 644 910 q 641 901 644 904 q 636 900 638 899 l 486 963 l 335 900 q 328 903 332 899 q 326 910 324 908 l 469 1063 z "},"Ấ":{"ha":988,"x_min":-10,"x_max":994,"o":"m 988 17 q 994 8 994 17 q 988 0 994 0 q 903 3 961 0 q 818 6 844 6 q 736 3 783 6 q 663 0 689 0 q 657 8 657 0 q 663 17 657 17 q 722 26 703 17 q 740 56 740 35 q 717 126 740 76 l 567 431 l 315 431 l 208 190 q 190 115 190 149 q 225 42 190 67 q 322 17 260 17 q 329 8 329 17 q 322 0 329 0 q 250 3 297 0 q 158 6 197 6 q 71 3 121 6 q -3 0 26 0 q -10 8 -10 0 q -3 17 -10 17 q 63 32 36 17 q 114 87 89 47 q 174 204 139 126 l 472 876 q 485 881 475 881 q 496 876 494 881 l 836 190 q 917 53 885 90 q 988 17 950 17 m 331 465 l 550 465 l 435 699 l 331 465 m 469 1063 q 485 1069 476 1069 q 501 1063 494 1069 l 643 910 q 644 907 644 910 q 641 901 644 904 q 636 900 638 899 l 486 963 l 335 900 q 328 903 332 899 q 326 910 324 908 l 469 1063 m 576 1028 q 572 1026 575 1026 q 565 1032 568 1026 q 565 1040 563 1038 q 654 1182 615 1110 q 696 1179 658 1189 q 763 1154 733 1169 q 779 1135 793 1139 q 676 1088 722 1114 q 576 1028 629 1063 z "},"Ậ":{"ha":988,"x_min":-10,"x_max":994,"o":"m 988 17 q 994 8 994 17 q 988 0 994 0 q 903 3 961 0 q 818 6 844 6 q 736 3 783 6 q 663 0 689 0 q 657 8 657 0 q 663 17 657 17 q 722 26 703 17 q 740 56 740 35 q 717 126 740 76 l 567 431 l 315 431 l 208 190 q 190 115 190 149 q 225 42 190 67 q 322 17 260 17 q 329 8 329 17 q 322 0 329 0 q 250 3 297 0 q 158 6 197 6 q 71 3 121 6 q -3 0 26 0 q -10 8 -10 0 q -3 17 -10 17 q 63 32 36 17 q 114 87 89 47 q 174 204 139 126 l 472 876 q 485 881 475 881 q 496 876 494 881 l 836 190 q 917 53 885 90 q 988 17 950 17 m 331 465 l 550 465 l 435 699 l 331 465 m 496 -279 q 440 -260 460 -279 q 419 -204 419 -240 q 440 -151 419 -169 q 496 -132 460 -132 q 550 -151 531 -132 q 569 -204 569 -169 q 551 -260 569 -240 q 496 -279 532 -279 m 469 1063 q 485 1069 476 1069 q 501 1063 494 1069 l 643 910 q 644 907 644 910 q 641 901 644 904 q 636 900 638 899 l 486 963 l 335 900 q 328 903 332 899 q 326 910 324 908 l 469 1063 z "},"Ầ":{"ha":988,"x_min":-10,"x_max":994,"o":"m 988 17 q 994 8 994 17 q 988 0 994 0 q 903 3 961 0 q 818 6 844 6 q 736 3 783 6 q 663 0 689 0 q 657 8 657 0 q 663 17 657 17 q 722 26 703 17 q 740 56 740 35 q 717 126 740 76 l 567 431 l 315 431 l 208 190 q 190 115 190 149 q 225 42 190 67 q 322 17 260 17 q 329 8 329 17 q 322 0 329 0 q 250 3 297 0 q 158 6 197 6 q 71 3 121 6 q -3 0 26 0 q -10 8 -10 0 q -3 17 -10 17 q 63 32 36 17 q 114 87 89 47 q 174 204 139 126 l 472 876 q 485 881 475 881 q 496 876 494 881 l 836 190 q 917 53 885 90 q 988 17 950 17 m 331 465 l 550 465 l 435 699 l 331 465 m 469 1063 q 485 1069 476 1069 q 501 1063 494 1069 l 643 910 q 644 907 644 910 q 641 901 644 904 q 636 900 638 899 l 486 963 l 335 900 q 328 903 332 899 q 326 910 324 908 l 469 1063 m 704 999 q 606 1058 651 1033 q 506 1106 561 1083 q 521 1125 492 1110 q 588 1150 550 1140 q 629 1153 625 1160 q 715 1013 678 1067 q 717 1007 717 1011 q 713 1000 717 1003 q 704 999 710 997 z "},"Ẩ":{"ha":988,"x_min":-10,"x_max":994,"o":"m 988 17 q 994 8 994 17 q 988 0 994 0 q 903 3 961 0 q 818 6 844 6 q 736 3 783 6 q 663 0 689 0 q 657 8 657 0 q 663 17 657 17 q 722 26 703 17 q 740 56 740 35 q 717 126 740 76 l 567 431 l 315 431 l 208 190 q 190 115 190 149 q 225 42 190 67 q 322 17 260 17 q 329 8 329 17 q 322 0 329 0 q 250 3 297 0 q 158 6 197 6 q 71 3 121 6 q -3 0 26 0 q -10 8 -10 0 q -3 17 -10 17 q 63 32 36 17 q 114 87 89 47 q 174 204 139 126 l 472 876 q 485 881 475 881 q 496 876 494 881 l 836 190 q 917 53 885 90 q 988 17 950 17 m 331 465 l 550 465 l 435 699 l 331 465 m 469 1063 q 485 1069 476 1069 q 501 1063 494 1069 l 643 910 q 644 907 644 910 q 641 901 644 904 q 636 900 638 899 l 486 963 l 335 900 q 328 903 332 899 q 326 910 324 908 l 469 1063 m 606 1010 q 603 1028 603 1024 q 608 1055 603 1040 q 618 1082 613 1069 q 633 1132 633 1113 q 620 1164 633 1153 q 590 1175 607 1175 q 563 1169 579 1175 l 560 1168 q 553 1173 556 1168 q 553 1181 550 1178 q 638 1206 593 1206 q 691 1188 671 1206 q 711 1146 711 1171 q 699 1110 711 1126 q 663 1074 686 1094 q 630 1039 640 1053 q 621 1010 619 1025 q 615 1006 622 1007 q 606 1010 607 1006 z "},"Ẫ":{"ha":988,"x_min":-10,"x_max":994,"o":"m 988 17 q 994 8 994 17 q 988 0 994 0 q 903 3 961 0 q 818 6 844 6 q 736 3 783 6 q 663 0 689 0 q 657 8 657 0 q 663 17 657 17 q 722 26 703 17 q 740 56 740 35 q 717 126 740 76 l 567 431 l 315 431 l 208 190 q 190 115 190 149 q 225 42 190 67 q 322 17 260 17 q 329 8 329 17 q 322 0 329 0 q 250 3 297 0 q 158 6 197 6 q 71 3 121 6 q -3 0 26 0 q -10 8 -10 0 q -3 17 -10 17 q 63 32 36 17 q 114 87 89 47 q 174 204 139 126 l 472 876 q 485 881 475 881 q 496 876 494 881 l 836 190 q 917 53 885 90 q 988 17 950 17 m 331 465 l 550 465 l 435 699 l 331 465 m 469 1063 q 485 1069 476 1069 q 501 1063 494 1069 l 643 910 q 644 907 644 910 q 641 901 644 904 q 636 900 638 899 l 486 963 l 335 900 q 328 903 332 899 q 326 910 324 908 l 469 1063 m 601 1165 q 639 1174 624 1165 q 671 1203 654 1183 l 674 1204 q 679 1200 676 1204 q 681 1193 682 1196 q 621 1111 644 1132 q 567 1090 597 1090 q 488 1106 539 1090 q 438 1118 464 1113 q 390 1124 413 1124 q 353 1116 364 1124 q 321 1086 342 1108 l 319 1086 q 312 1090 315 1086 q 311 1096 308 1093 q 431 1200 372 1200 q 499 1186 446 1200 q 601 1165 567 1165 z "},"Ä":{"ha":988,"x_min":-10,"x_max":994,"o":"m 988 17 q 994 8 994 17 q 988 0 994 0 q 903 3 961 0 q 818 6 844 6 q 736 3 783 6 q 663 0 689 0 q 657 8 657 0 q 663 17 657 17 q 722 26 703 17 q 740 56 740 35 q 717 126 740 76 l 567 431 l 315 431 l 208 190 q 190 115 190 149 q 225 42 190 67 q 322 17 260 17 q 329 8 329 17 q 322 0 329 0 q 250 3 297 0 q 158 6 197 6 q 71 3 121 6 q -3 0 26 0 q -10 8 -10 0 q -3 17 -10 17 q 63 32 36 17 q 114 87 89 47 q 174 204 139 126 l 472 876 q 485 881 475 881 q 496 876 494 881 l 836 190 q 917 53 885 90 q 988 17 950 17 m 331 465 l 550 465 l 435 699 l 331 465 m 367 983 q 315 1001 333 983 q 296 1053 296 1019 q 315 1102 296 1085 q 367 1119 333 1119 q 416 1102 399 1119 q 433 1053 433 1085 q 416 1001 433 1019 q 367 983 399 983 m 608 983 q 558 1001 576 983 q 539 1053 539 1019 q 558 1101 539 1083 q 608 1119 576 1119 q 658 1102 640 1119 q 676 1053 676 1085 q 658 1001 676 1019 q 608 983 640 983 z "},"Ạ":{"ha":988,"x_min":-10,"x_max":994,"o":"m 988 17 q 994 8 994 17 q 988 0 994 0 q 903 3 961 0 q 818 6 844 6 q 736 3 783 6 q 663 0 689 0 q 657 8 657 0 q 663 17 657 17 q 722 26 703 17 q 740 56 740 35 q 717 126 740 76 l 567 431 l 315 431 l 208 190 q 190 115 190 149 q 225 42 190 67 q 322 17 260 17 q 329 8 329 17 q 322 0 329 0 q 250 3 297 0 q 158 6 197 6 q 71 3 121 6 q -3 0 26 0 q -10 8 -10 0 q -3 17 -10 17 q 63 32 36 17 q 114 87 89 47 q 174 204 139 126 l 472 876 q 485 881 475 881 q 496 876 494 881 l 836 190 q 917 53 885 90 q 988 17 950 17 m 331 465 l 550 465 l 435 699 l 331 465 m 496 -279 q 440 -260 460 -279 q 419 -204 419 -240 q 440 -151 419 -169 q 496 -132 460 -132 q 550 -151 531 -132 q 569 -204 569 -169 q 551 -260 569 -240 q 496 -279 532 -279 z "},"À":{"ha":988,"x_min":-10,"x_max":994,"o":"m 988 17 q 994 8 994 17 q 988 0 994 0 q 903 3 961 0 q 818 6 844 6 q 736 3 783 6 q 663 0 689 0 q 657 8 657 0 q 663 17 657 17 q 722 26 703 17 q 740 56 740 35 q 717 126 740 76 l 567 431 l 315 431 l 208 190 q 190 115 190 149 q 225 42 190 67 q 322 17 260 17 q 329 8 329 17 q 322 0 329 0 q 250 3 297 0 q 158 6 197 6 q 71 3 121 6 q -3 0 26 0 q -10 8 -10 0 q -3 17 -10 17 q 63 32 36 17 q 114 87 89 47 q 174 204 139 126 l 472 876 q 485 881 475 881 q 496 876 494 881 l 836 190 q 917 53 885 90 q 988 17 950 17 m 331 465 l 550 465 l 435 699 l 331 465 m 625 943 q 315 1050 468 1013 q 330 1067 301 1053 q 395 1092 358 1081 q 439 1097 432 1103 q 501 1050 481 1067 q 631 957 586 986 q 633 951 633 956 q 631 944 633 947 q 625 943 628 942 z "},"Ả":{"ha":988,"x_min":-10,"x_max":994,"o":"m 988 17 q 994 8 994 17 q 988 0 994 0 q 903 3 961 0 q 818 6 844 6 q 736 3 783 6 q 663 0 689 0 q 657 8 657 0 q 663 17 657 17 q 722 26 703 17 q 740 56 740 35 q 717 126 740 76 l 567 431 l 315 431 l 208 190 q 190 115 190 149 q 225 42 190 67 q 322 17 260 17 q 329 8 329 17 q 322 0 329 0 q 250 3 297 0 q 158 6 197 6 q 71 3 121 6 q -3 0 26 0 q -10 8 -10 0 q -3 17 -10 17 q 63 32 36 17 q 114 87 89 47 q 174 204 139 126 l 472 876 q 485 881 475 881 q 496 876 494 881 l 836 190 q 917 53 885 90 q 988 17 950 17 m 331 465 l 550 465 l 435 699 l 331 465 m 489 904 q 481 901 489 901 q 472 904 474 901 q 469 935 469 915 q 475 975 469 957 q 493 1019 481 993 q 514 1092 514 1061 q 468 1143 514 1143 q 422 1131 444 1143 l 421 1131 q 412 1135 415 1131 q 413 1142 408 1140 q 518 1178 457 1178 q 587 1158 561 1178 q 613 1106 613 1138 q 595 1053 613 1078 q 546 999 578 1029 q 501 947 515 967 q 489 904 488 926 z "},"Ā":{"ha":988,"x_min":-10,"x_max":994,"o":"m 988 17 q 994 8 994 17 q 988 0 994 0 q 903 3 961 0 q 818 6 844 6 q 736 3 783 6 q 663 0 689 0 q 657 8 657 0 q 663 17 657 17 q 722 26 703 17 q 740 56 740 35 q 717 126 740 76 l 567 431 l 315 431 l 208 190 q 190 115 190 149 q 225 42 190 67 q 322 17 260 17 q 329 8 329 17 q 322 0 329 0 q 250 3 297 0 q 158 6 197 6 q 71 3 121 6 q -3 0 26 0 q -10 8 -10 0 q -3 17 -10 17 q 63 32 36 17 q 114 87 89 47 q 174 204 139 126 l 472 876 q 485 881 475 881 q 496 876 494 881 l 836 190 q 917 53 885 90 q 988 17 950 17 m 331 465 l 550 465 l 435 699 l 331 465 m 311 994 q 303 1002 306 994 q 300 1018 300 1010 q 303 1035 300 1028 q 311 1042 306 1042 l 660 1042 q 669 1035 665 1042 q 672 1018 672 1028 q 669 1001 672 1008 q 660 994 665 994 l 311 994 z "},"Ą":{"ha":989,"x_min":-10,"x_max":994,"o":"m 988 13 q 994 5 994 13 q 988 -3 994 -3 q 904 0 954 -3 l 839 1 q 727 -44 768 1 q 686 -167 686 -89 q 722 -285 686 -240 q 815 -329 757 -329 q 881 -312 850 -329 l 882 -312 q 890 -317 886 -312 q 890 -324 893 -321 q 818 -368 854 -354 q 739 -382 782 -382 q 617 -341 661 -382 q 572 -232 572 -300 q 595 -147 572 -181 q 663 -71 618 -112 q 719 -8 701 -33 q 738 53 738 18 q 717 126 738 85 l 565 431 l 315 431 l 208 190 q 190 115 190 150 q 225 42 190 68 q 322 17 260 17 q 329 8 329 17 q 322 0 329 0 q 250 3 297 0 q 158 6 197 6 q 71 3 121 6 q -3 0 26 0 q -10 8 -10 0 q -3 17 -10 17 q 63 32 36 17 q 115 87 90 47 q 174 204 140 126 l 472 876 q 485 881 475 881 q 496 876 494 881 l 836 189 q 916 53 882 93 q 988 13 950 13 m 331 465 l 549 465 l 433 696 l 331 465 z "},"Å":{"ha":988,"x_min":-10,"x_max":994,"o":"m 988 17 q 994 8 994 17 q 988 0 994 0 q 903 3 961 0 q 818 6 844 6 q 736 3 783 6 q 663 0 689 0 q 657 8 657 0 q 663 17 657 17 q 722 26 703 17 q 740 56 740 35 q 717 126 740 76 l 567 431 l 315 431 l 208 190 q 190 115 190 149 q 225 42 190 67 q 322 17 260 17 q 329 8 329 17 q 322 0 329 0 q 250 3 297 0 q 158 6 197 6 q 71 3 121 6 q -3 0 26 0 q -10 8 -10 0 q -3 17 -10 17 q 63 32 36 17 q 114 87 89 47 q 174 204 139 126 l 472 876 q 485 881 475 881 q 496 876 494 881 l 836 190 q 917 53 885 90 q 988 17 950 17 m 331 465 l 550 465 l 435 699 l 331 465 m 476 918 q 374 951 413 918 q 336 1029 336 983 q 383 1108 336 1079 q 489 1136 431 1136 q 587 1104 546 1136 q 628 1026 628 1072 q 582 948 628 978 q 476 918 536 918 m 497 936 q 539 1001 539 936 q 516 1083 539 1049 q 461 1118 493 1118 q 425 1057 425 1118 q 444 973 425 1010 q 497 936 464 936 z "},"Ǻ":{"ha":988,"x_min":-10,"x_max":994,"o":"m 988 17 q 994 8 994 17 q 988 0 994 0 q 903 3 961 0 q 818 6 844 6 q 736 3 783 6 q 663 0 689 0 q 657 8 657 0 q 663 17 657 17 q 722 26 703 17 q 740 56 740 35 q 717 126 740 76 l 567 431 l 315 431 l 208 190 q 190 115 190 149 q 225 42 190 67 q 322 17 260 17 q 329 8 329 17 q 322 0 329 0 q 250 3 297 0 q 158 6 197 6 q 71 3 121 6 q -3 0 26 0 q -10 8 -10 0 q -3 17 -10 17 q 63 32 36 17 q 114 87 89 47 q 174 204 139 126 l 472 876 q 485 881 475 881 q 496 876 494 881 l 836 190 q 917 53 885 90 q 988 17 950 17 m 331 465 l 550 465 l 435 699 l 331 465 m 357 1139 q 351 1145 353 1139 q 353 1153 349 1151 l 538 1249 q 573 1238 544 1253 q 624 1207 601 1224 q 638 1189 647 1190 q 494 1166 564 1179 q 360 1139 424 1153 l 357 1139 m 476 938 q 385 965 419 938 q 350 1032 350 993 q 394 1099 350 1074 q 490 1124 438 1124 q 588 1096 547 1124 q 629 1029 629 1068 q 583 963 629 988 q 476 938 536 938 m 499 956 q 539 1004 539 956 q 518 1076 539 1047 q 465 1106 497 1106 q 425 1060 425 1106 q 445 988 425 1019 q 499 956 465 956 z "},"Ã":{"ha":988,"x_min":-10,"x_max":994,"o":"m 988 17 q 994 8 994 17 q 988 0 994 0 q 903 3 961 0 q 818 6 844 6 q 736 3 783 6 q 663 0 689 0 q 657 8 657 0 q 663 17 657 17 q 722 26 703 17 q 740 56 740 35 q 717 126 740 76 l 567 431 l 315 431 l 208 190 q 190 115 190 149 q 225 42 190 67 q 322 17 260 17 q 329 8 329 17 q 322 0 329 0 q 250 3 297 0 q 158 6 197 6 q 71 3 121 6 q -3 0 26 0 q -10 8 -10 0 q -3 17 -10 17 q 63 32 36 17 q 114 87 89 47 q 174 204 139 126 l 472 876 q 485 881 475 881 q 496 876 494 881 l 836 190 q 917 53 885 90 q 988 17 950 17 m 331 465 l 550 465 l 435 699 l 331 465 m 597 1049 q 635 1057 621 1049 q 667 1086 650 1065 l 668 1086 q 676 1083 672 1086 q 676 1076 679 1079 q 617 993 640 1014 q 564 972 593 972 q 516 979 542 972 q 483 988 490 986 q 435 1000 460 994 q 388 1006 410 1006 q 352 999 364 1006 q 331 983 340 993 q 317 968 321 972 l 315 968 q 308 972 311 968 q 307 978 304 975 q 428 1082 367 1082 q 493 1068 443 1082 q 597 1049 557 1049 z "},"Æ":{"ha":1226,"x_min":-12,"x_max":1163,"o":"m 1147 217 q 1151 219 1147 219 q 1159 217 1156 219 q 1163 214 1163 215 q 1150 21 1150 96 q 1145 5 1150 10 q 1129 0 1140 0 l 535 0 q 532 8 532 0 q 535 17 532 17 q 603 24 582 17 q 633 51 625 31 q 642 113 642 71 l 642 433 l 422 433 l 261 186 q 224 86 224 126 q 250 35 224 53 q 328 17 276 17 q 335 8 335 17 q 328 0 335 0 q 246 3 299 0 q 140 6 185 6 q 61 3 106 6 q -6 0 19 0 q -12 8 -12 0 q -6 17 -12 17 q 97 56 47 17 q 206 183 147 96 l 613 797 q 631 832 631 822 q 608 848 631 844 q 524 851 585 851 q 519 860 519 851 q 524 868 519 868 l 1104 868 q 1118 856 1118 868 l 1121 675 q 1113 671 1121 672 q 1104 674 1106 669 q 1072 747 1097 710 q 1006 808 1046 783 q 922 832 967 832 l 858 832 q 788 815 808 832 q 768 754 768 797 l 768 469 l 897 469 q 1049 572 1049 469 q 1057 576 1049 576 q 1065 572 1065 576 l 1064 451 q 1065 386 1064 408 l 1067 314 q 1059 311 1067 311 q 1051 314 1051 311 q 1012 403 1051 372 q 894 433 972 433 l 768 433 l 768 118 q 785 54 768 72 q 847 36 803 36 l 921 36 q 1060 89 994 36 q 1147 217 1126 142 m 446 469 l 642 469 l 642 771 l 446 469 z "},"Ǽ":{"ha":1226,"x_min":-12,"x_max":1163,"o":"m 1147 217 q 1151 219 1147 219 q 1159 217 1156 219 q 1163 214 1163 215 q 1150 21 1150 96 q 1145 5 1150 10 q 1129 0 1140 0 l 535 0 q 532 8 532 0 q 535 17 532 17 q 603 24 582 17 q 633 51 625 31 q 642 113 642 71 l 642 433 l 422 433 l 261 186 q 224 86 224 126 q 250 35 224 53 q 328 17 276 17 q 335 8 335 17 q 328 0 335 0 q 246 3 299 0 q 140 6 185 6 q 61 3 106 6 q -6 0 19 0 q -12 8 -12 0 q -6 17 -12 17 q 97 56 47 17 q 206 183 147 96 l 613 797 q 631 832 631 822 q 608 848 631 844 q 524 851 585 851 q 519 860 519 851 q 524 868 519 868 l 1104 868 q 1118 856 1118 868 l 1121 675 q 1113 671 1121 672 q 1104 674 1106 669 q 1072 747 1097 710 q 1006 808 1046 783 q 922 832 967 832 l 858 832 q 788 815 808 832 q 768 754 768 797 l 768 469 l 897 469 q 1049 572 1049 469 q 1057 576 1049 576 q 1065 572 1065 576 l 1064 451 q 1065 386 1064 408 l 1067 314 q 1059 311 1067 311 q 1051 314 1051 311 q 1012 403 1051 372 q 894 433 972 433 l 768 433 l 768 118 q 785 54 768 72 q 847 36 803 36 l 921 36 q 1060 89 994 36 q 1147 217 1126 142 m 446 469 l 642 469 l 642 771 l 446 469 m 667 942 q 660 948 661 942 q 663 957 658 954 q 785 1044 707 983 q 854 1097 849 1093 q 899 1092 861 1103 q 965 1067 936 1081 q 978 1050 993 1053 q 820 1003 892 1029 q 669 943 749 978 l 667 942 z "},"Ǣ":{"ha":1226,"x_min":-12,"x_max":1163,"o":"m 1147 217 q 1151 219 1147 219 q 1159 217 1156 219 q 1163 214 1163 215 q 1150 21 1150 96 q 1145 5 1150 10 q 1129 0 1140 0 l 535 0 q 532 8 532 0 q 535 17 532 17 q 603 24 582 17 q 633 51 625 31 q 642 113 642 71 l 642 433 l 422 433 l 261 186 q 224 86 224 126 q 250 35 224 53 q 328 17 276 17 q 335 8 335 17 q 328 0 335 0 q 246 3 299 0 q 140 6 185 6 q 61 3 106 6 q -6 0 19 0 q -12 8 -12 0 q -6 17 -12 17 q 97 56 47 17 q 206 183 147 96 l 613 797 q 631 832 631 822 q 608 848 631 844 q 524 851 585 851 q 519 860 519 851 q 524 868 519 868 l 1104 868 q 1118 856 1118 868 l 1121 675 q 1113 671 1121 672 q 1104 674 1106 669 q 1072 747 1097 710 q 1006 808 1046 783 q 922 832 967 832 l 858 832 q 788 815 808 832 q 768 754 768 797 l 768 469 l 897 469 q 1049 572 1049 469 q 1057 576 1049 576 q 1065 572 1065 576 l 1064 451 q 1065 386 1064 408 l 1067 314 q 1059 311 1067 311 q 1051 314 1051 311 q 1012 403 1051 372 q 894 433 972 433 l 768 433 l 768 118 q 785 54 768 72 q 847 36 803 36 l 921 36 q 1060 89 994 36 q 1147 217 1126 142 m 446 469 l 642 469 l 642 771 l 446 469 m 629 994 q 621 1002 624 994 q 618 1018 618 1010 q 621 1035 618 1028 q 629 1042 624 1042 l 978 1042 q 987 1035 983 1042 q 990 1018 990 1028 q 987 1001 990 1008 q 978 994 983 994 l 629 994 z "},"B":{"ha":810,"x_min":54,"x_max":738,"o":"m 488 488 q 669 411 601 475 q 738 253 738 347 q 698 122 738 181 q 588 28 658 63 q 432 -6 518 -6 q 339 -1 392 -6 q 293 1 321 0 q 231 3 265 3 l 131 1 q 58 0 104 0 q 54 8 54 0 q 58 17 54 17 q 125 24 103 17 q 156 51 147 32 q 165 113 165 71 l 165 756 q 156 816 165 796 q 126 844 147 836 q 60 851 104 851 q 57 860 57 851 q 60 868 57 868 l 132 867 q 231 864 193 864 q 313 868 269 864 q 349 871 328 869 q 399 872 371 872 q 588 824 522 872 q 654 692 654 776 q 610 572 654 626 q 488 488 567 518 m 375 844 q 315 826 331 844 q 299 753 299 808 l 299 489 l 357 488 q 481 541 439 488 q 522 679 522 594 q 485 801 522 758 q 375 844 447 844 m 410 26 q 597 219 597 26 q 542 389 597 325 q 382 453 488 453 q 299 450 332 453 l 299 113 q 307 63 299 81 q 339 35 315 44 q 410 26 363 26 z "},"C":{"ha":929,"x_min":68,"x_max":869,"o":"m 582 883 q 712 872 644 883 q 818 842 779 861 q 834 831 831 838 q 839 810 838 825 l 856 629 q 849 624 856 625 q 840 628 842 622 q 719 793 800 736 q 528 850 638 850 q 301 749 383 850 q 219 476 219 647 q 265 242 219 349 q 390 72 310 135 q 568 10 469 10 q 853 243 756 10 q 862 247 854 249 q 869 242 869 246 l 849 64 q 842 42 846 47 q 826 32 839 38 q 569 -17 706 -17 q 288 51 400 -17 q 122 222 175 118 q 68 439 68 326 q 140 671 68 569 q 329 828 211 772 q 582 883 447 883 z "},"Ć":{"ha":929,"x_min":68,"x_max":869,"o":"m 582 883 q 712 872 644 883 q 818 842 779 861 q 834 831 831 838 q 839 810 838 825 l 856 629 q 849 624 856 625 q 840 628 842 622 q 719 793 800 736 q 528 850 638 850 q 301 749 383 850 q 219 476 219 647 q 265 242 219 349 q 390 72 310 135 q 568 10 469 10 q 853 243 756 10 q 862 247 854 249 q 869 242 869 246 l 849 64 q 842 42 846 47 q 826 32 839 38 q 569 -17 706 -17 q 288 51 400 -17 q 122 222 175 118 q 68 439 68 326 q 140 671 68 569 q 329 828 211 772 q 582 883 447 883 m 389 942 q 382 948 383 942 q 385 957 381 954 q 507 1044 429 983 q 576 1097 571 1093 q 621 1092 583 1103 q 687 1067 658 1081 q 700 1050 715 1053 q 542 1003 614 1029 q 392 943 471 978 l 389 942 z "},"Č":{"ha":929,"x_min":68,"x_max":869,"o":"m 582 883 q 712 872 644 883 q 818 842 779 861 q 834 831 831 838 q 839 810 838 825 l 856 629 q 849 624 856 625 q 840 628 842 622 q 719 793 800 736 q 528 850 638 850 q 301 749 383 850 q 219 476 219 647 q 265 242 219 349 q 390 72 310 135 q 568 10 469 10 q 853 243 756 10 q 862 247 854 249 q 869 242 869 246 l 849 64 q 842 42 846 47 q 826 32 839 38 q 569 -17 706 -17 q 288 51 400 -17 q 122 222 175 118 q 68 439 68 326 q 140 671 68 569 q 329 828 211 772 q 582 883 447 883 m 367 1106 l 367 1107 q 370 1115 367 1111 q 375 1115 374 1118 l 526 1053 l 676 1117 l 678 1117 q 684 1113 682 1117 q 683 1107 686 1110 l 542 954 q 526 949 536 949 q 510 954 515 949 l 367 1106 z "},"Ç":{"ha":929,"x_min":68,"x_max":869,"o":"m 853 243 q 862 247 854 249 q 869 242 869 246 l 849 64 q 842 42 846 47 q 826 32 839 38 q 569 -17 706 -17 l 544 -17 q 538 -58 538 -44 q 551 -99 538 -82 q 594 -132 564 -115 q 651 -178 631 -154 q 671 -240 671 -203 q 631 -339 671 -296 q 510 -382 590 -382 q 411 -319 411 -382 q 426 -285 411 -300 q 461 -269 440 -269 q 494 -280 485 -269 q 513 -310 504 -290 q 530 -340 521 -331 q 561 -350 539 -350 q 597 -311 597 -350 q 572 -246 597 -275 q 481 -181 546 -217 q 470 -174 474 -178 q 467 -164 467 -169 q 472 -140 467 -156 q 519 -15 494 -85 q 265 64 367 -4 q 116 232 164 132 q 68 439 68 332 q 140 671 68 569 q 329 828 211 772 q 582 883 447 883 q 712 872 644 883 q 818 842 779 861 q 834 831 831 838 q 839 810 838 825 l 856 629 q 849 624 856 625 q 840 628 842 622 q 719 793 800 736 q 528 850 638 850 q 301 749 383 850 q 219 476 219 647 q 265 242 219 349 q 390 72 310 135 q 568 10 469 10 q 853 243 756 10 z "},"Ĉ":{"ha":929,"x_min":68,"x_max":869,"o":"m 582 883 q 712 872 644 883 q 818 842 779 861 q 834 831 831 838 q 839 810 838 825 l 856 629 q 849 624 856 625 q 840 628 842 622 q 719 793 800 736 q 528 850 638 850 q 301 749 383 850 q 219 476 219 647 q 265 242 219 349 q 390 72 310 135 q 568 10 469 10 q 853 243 756 10 q 862 247 854 249 q 869 242 869 246 l 849 64 q 842 42 846 47 q 826 32 839 38 q 569 -17 706 -17 q 288 51 400 -17 q 122 222 175 118 q 68 439 68 326 q 140 671 68 569 q 329 828 211 772 q 582 883 447 883 m 511 1124 q 528 1131 518 1131 q 543 1124 536 1131 l 685 971 q 686 968 686 971 q 683 963 686 965 q 678 961 679 960 l 528 1024 l 376 961 q 369 965 374 960 q 368 971 365 969 l 511 1124 z "},"Ċ":{"ha":929,"x_min":68,"x_max":869,"o":"m 582 883 q 712 872 644 883 q 818 842 779 861 q 834 831 831 838 q 839 810 838 825 l 856 629 q 849 624 856 625 q 840 628 842 622 q 719 793 800 736 q 528 850 638 850 q 301 749 383 850 q 219 476 219 647 q 265 242 219 349 q 390 72 310 135 q 568 10 469 10 q 853 243 756 10 q 862 247 854 249 q 869 242 869 246 l 849 64 q 842 42 846 47 q 826 32 839 38 q 569 -17 706 -17 q 288 51 400 -17 q 122 222 175 118 q 68 439 68 326 q 140 671 68 569 q 329 828 211 772 q 582 883 447 883 m 528 990 q 472 1010 492 990 q 451 1067 451 1031 q 472 1120 451 1100 q 528 1140 492 1140 q 582 1120 563 1140 q 601 1067 601 1100 q 582 1010 601 1031 q 528 990 563 990 z "},"D":{"ha":972,"x_min":42,"x_max":904,"o":"m 442 -6 q 342 -1 399 -6 q 289 1 321 0 q 217 3 257 3 l 118 1 q 44 0 92 0 q 42 8 42 0 q 44 17 42 17 q 113 24 92 17 q 143 51 135 31 q 151 113 151 71 l 151 756 q 144 817 151 797 q 114 844 136 836 q 46 851 92 851 q 43 860 43 851 q 46 868 43 868 l 119 867 q 217 864 181 864 q 329 868 272 864 q 422 871 399 871 q 674 815 564 871 q 844 664 783 760 q 904 449 904 568 q 842 210 904 314 q 674 51 779 107 q 442 -6 568 -6 m 428 22 q 598 68 524 22 q 714 203 672 114 q 756 418 756 293 q 716 634 756 538 q 604 787 676 731 q 436 843 532 843 q 346 836 378 843 q 299 810 314 829 q 285 753 285 792 l 285 128 q 314 47 285 71 q 428 22 343 22 z "},"Ð":{"ha":972,"x_min":42,"x_max":904,"o":"m 422 871 q 674 815 564 871 q 844 664 783 760 q 904 449 904 568 q 842 210 904 314 q 674 51 779 107 q 442 -6 568 -6 q 342 -1 399 -6 q 289 1 321 0 q 217 3 257 3 l 118 1 q 44 0 92 0 q 42 8 42 0 q 44 17 42 17 q 113 24 92 17 q 143 51 135 31 q 151 113 151 71 l 151 414 l 74 414 q 68 432 68 414 q 74 450 68 450 l 151 450 l 151 756 q 144 817 151 797 q 114 844 136 836 q 46 851 92 851 q 43 860 43 851 q 46 868 43 868 l 119 867 q 217 864 181 864 q 329 868 272 864 q 422 871 399 871 m 428 22 q 598 68 524 22 q 714 203 672 114 q 756 418 756 293 q 716 634 756 538 q 604 787 676 731 q 436 843 532 843 q 346 836 378 843 q 299 810 314 829 q 285 753 285 792 l 285 450 l 474 450 q 479 432 479 450 q 474 414 479 414 l 285 414 l 285 128 q 314 47 285 71 q 428 22 343 22 z "},"Ď":{"ha":972,"x_min":42,"x_max":904,"o":"m 442 -6 q 342 -1 399 -6 q 289 1 321 0 q 217 3 257 3 l 118 1 q 44 0 92 0 q 42 8 42 0 q 44 17 42 17 q 113 24 92 17 q 143 51 135 31 q 151 113 151 71 l 151 756 q 144 817 151 797 q 114 844 136 836 q 46 851 92 851 q 43 860 43 851 q 46 868 43 868 l 119 867 q 217 864 181 864 q 329 868 272 864 q 422 871 399 871 q 674 815 564 871 q 844 664 783 760 q 904 449 904 568 q 842 210 904 314 q 674 51 779 107 q 442 -6 568 -6 m 428 22 q 598 68 524 22 q 714 203 672 114 q 756 418 756 293 q 716 634 756 538 q 604 787 676 731 q 436 843 532 843 q 346 836 378 843 q 299 810 314 829 q 285 753 285 792 l 285 128 q 314 47 285 71 q 428 22 343 22 m 286 1106 l 286 1107 q 290 1115 286 1111 q 294 1115 293 1118 l 446 1053 l 596 1117 l 597 1117 q 603 1113 601 1117 q 603 1107 606 1110 l 461 954 q 446 949 456 949 q 429 954 435 949 l 286 1106 z "},"Đ":{"ha":972,"x_min":42,"x_max":904,"o":"m 422 871 q 674 815 564 871 q 844 664 783 760 q 904 449 904 568 q 842 210 904 314 q 674 51 779 107 q 442 -6 568 -6 q 342 -1 399 -6 q 289 1 321 0 q 217 3 257 3 l 118 1 q 44 0 92 0 q 42 8 42 0 q 44 17 42 17 q 113 24 92 17 q 143 51 135 31 q 151 113 151 71 l 151 414 l 74 414 q 68 432 68 414 q 74 450 68 450 l 151 450 l 151 756 q 144 817 151 797 q 114 844 136 836 q 46 851 92 851 q 43 860 43 851 q 46 868 43 868 l 119 867 q 217 864 181 864 q 329 868 272 864 q 422 871 399 871 m 428 22 q 598 68 524 22 q 714 203 672 114 q 756 418 756 293 q 716 634 756 538 q 604 787 676 731 q 436 843 532 843 q 346 836 378 843 q 299 810 314 829 q 285 753 285 792 l 285 450 l 474 450 q 479 432 479 450 q 474 414 479 414 l 285 414 l 285 128 q 314 47 285 71 q 428 22 343 22 z "},"Ḍ":{"ha":972,"x_min":42,"x_max":904,"o":"m 442 -6 q 342 -1 399 -6 q 289 1 321 0 q 217 3 257 3 l 118 1 q 44 0 92 0 q 42 8 42 0 q 44 17 42 17 q 113 24 92 17 q 143 51 135 31 q 151 113 151 71 l 151 756 q 144 817 151 797 q 114 844 136 836 q 46 851 92 851 q 43 860 43 851 q 46 868 43 868 l 119 867 q 217 864 181 864 q 329 868 272 864 q 422 871 399 871 q 674 815 564 871 q 844 664 783 760 q 904 449 904 568 q 842 210 904 314 q 674 51 779 107 q 442 -6 568 -6 m 428 22 q 598 68 524 22 q 714 203 672 114 q 756 418 756 293 q 716 634 756 538 q 604 787 676 731 q 436 843 532 843 q 346 836 378 843 q 299 810 314 829 q 285 753 285 792 l 285 128 q 314 47 285 71 q 428 22 343 22 m 463 -279 q 406 -260 426 -279 q 386 -204 386 -240 q 406 -151 386 -169 q 463 -132 426 -132 q 517 -151 497 -132 q 536 -204 536 -169 q 517 -260 536 -240 q 463 -279 499 -279 z "},"Ḏ":{"ha":972,"x_min":42,"x_max":904,"o":"m 442 -6 q 342 -1 399 -6 q 289 1 321 0 q 217 3 257 3 l 118 1 q 44 0 92 0 q 42 8 42 0 q 44 17 42 17 q 113 24 92 17 q 143 51 135 31 q 151 113 151 71 l 151 756 q 144 817 151 797 q 114 844 136 836 q 46 851 92 851 q 43 860 43 851 q 46 868 43 868 l 119 867 q 217 864 181 864 q 329 868 272 864 q 422 871 399 871 q 674 815 564 871 q 844 664 783 760 q 904 449 904 568 q 842 210 904 314 q 674 51 779 107 q 442 -6 568 -6 m 428 22 q 598 68 524 22 q 714 203 672 114 q 756 418 756 293 q 716 634 756 538 q 604 787 676 731 q 436 843 532 843 q 346 836 378 843 q 299 810 314 829 q 285 753 285 792 l 285 128 q 314 47 285 71 q 428 22 343 22 m 286 -165 q 275 -142 275 -165 q 286 -118 275 -118 l 635 -118 q 644 -125 640 -118 q 647 -142 647 -132 q 644 -158 647 -151 q 635 -165 640 -165 l 286 -165 z "},"E":{"ha":760,"x_min":54,"x_max":696,"o":"m 679 217 q 685 219 679 219 q 692 217 689 219 q 696 214 696 215 q 682 21 682 108 q 678 5 682 10 q 661 0 674 0 l 58 0 q 54 8 54 0 q 58 17 54 17 q 127 24 106 17 q 156 51 149 31 q 164 113 164 71 l 164 756 q 156 817 164 797 q 126 844 149 836 q 58 851 104 851 q 54 860 54 851 q 58 868 54 868 l 636 868 q 650 856 650 868 l 653 675 q 645 671 653 672 q 636 674 638 669 q 443 832 603 832 l 388 832 q 317 814 338 832 q 296 753 296 796 l 296 469 l 429 469 q 582 572 582 469 q 590 576 582 576 q 597 572 597 576 l 596 451 l 597 386 q 600 314 600 342 q 592 311 600 311 q 583 314 583 311 q 428 433 583 433 l 296 433 l 296 118 q 313 54 296 72 q 375 36 331 36 l 443 36 q 679 217 629 36 z "},"É":{"ha":760,"x_min":54,"x_max":696,"o":"m 679 217 q 685 219 679 219 q 692 217 689 219 q 696 214 696 215 q 682 21 682 108 q 678 5 682 10 q 661 0 674 0 l 58 0 q 54 8 54 0 q 58 17 54 17 q 127 24 106 17 q 156 51 149 31 q 164 113 164 71 l 164 756 q 156 817 164 797 q 126 844 149 836 q 58 851 104 851 q 54 860 54 851 q 58 868 54 868 l 636 868 q 650 856 650 868 l 653 675 q 645 671 653 672 q 636 674 638 669 q 443 832 603 832 l 388 832 q 317 814 338 832 q 296 753 296 796 l 296 469 l 429 469 q 582 572 582 469 q 590 576 582 576 q 597 572 597 576 l 596 451 l 597 386 q 600 314 600 342 q 592 311 600 311 q 583 314 583 311 q 428 433 583 433 l 296 433 l 296 118 q 313 54 296 72 q 375 36 331 36 l 443 36 q 679 217 629 36 m 274 942 q 267 948 268 942 q 269 957 265 954 q 392 1044 314 983 q 461 1097 456 1093 q 506 1092 468 1103 q 572 1067 543 1081 q 585 1050 600 1053 q 427 1003 499 1029 q 276 943 356 978 l 274 942 z "},"Ĕ":{"ha":760,"x_min":54,"x_max":696,"o":"m 679 217 q 685 219 679 219 q 692 217 689 219 q 696 214 696 215 q 682 21 682 108 q 678 5 682 10 q 661 0 674 0 l 58 0 q 54 8 54 0 q 58 17 54 17 q 127 24 106 17 q 156 51 149 31 q 164 113 164 71 l 164 756 q 156 817 164 797 q 126 844 149 836 q 58 851 104 851 q 54 860 54 851 q 58 868 54 868 l 636 868 q 650 856 650 868 l 653 675 q 645 671 653 672 q 636 674 638 669 q 443 832 603 832 l 388 832 q 317 814 338 832 q 296 753 296 796 l 296 469 l 429 469 q 582 572 582 469 q 590 576 582 576 q 597 572 597 576 l 596 451 l 597 386 q 600 314 600 342 q 592 311 600 311 q 583 314 583 311 q 428 433 583 433 l 296 433 l 296 118 q 313 54 296 72 q 375 36 331 36 l 443 36 q 679 217 629 36 m 411 958 q 308 1001 344 958 q 268 1125 271 1044 q 275 1131 268 1131 q 283 1128 282 1131 q 324 1074 286 1099 q 411 1050 361 1050 q 497 1074 460 1050 q 538 1128 535 1099 q 545 1131 538 1132 q 553 1125 553 1131 q 514 1001 550 1044 q 411 958 478 958 z "},"Ě":{"ha":760,"x_min":54,"x_max":696,"o":"m 679 217 q 685 219 679 219 q 692 217 689 219 q 696 214 696 215 q 682 21 682 108 q 678 5 682 10 q 661 0 674 0 l 58 0 q 54 8 54 0 q 58 17 54 17 q 127 24 106 17 q 156 51 149 31 q 164 113 164 71 l 164 756 q 156 817 164 797 q 126 844 149 836 q 58 851 104 851 q 54 860 54 851 q 58 868 54 868 l 636 868 q 650 856 650 868 l 653 675 q 645 671 653 672 q 636 674 638 669 q 443 832 603 832 l 388 832 q 317 814 338 832 q 296 753 296 796 l 296 469 l 429 469 q 582 572 582 469 q 590 576 582 576 q 597 572 597 576 l 596 451 l 597 386 q 600 314 600 342 q 592 311 600 311 q 583 314 583 311 q 428 433 583 433 l 296 433 l 296 118 q 313 54 296 72 q 375 36 331 36 l 443 36 q 679 217 629 36 m 251 1106 l 251 1107 q 255 1115 251 1111 q 260 1115 258 1118 l 411 1053 l 561 1117 l 563 1117 q 569 1113 567 1117 q 568 1107 571 1110 l 426 954 q 411 949 421 949 q 394 954 400 949 l 251 1106 z "},"Ê":{"ha":760,"x_min":54,"x_max":696,"o":"m 679 217 q 685 219 679 219 q 692 217 689 219 q 696 214 696 215 q 682 21 682 108 q 678 5 682 10 q 661 0 674 0 l 58 0 q 54 8 54 0 q 58 17 54 17 q 127 24 106 17 q 156 51 149 31 q 164 113 164 71 l 164 756 q 156 817 164 797 q 126 844 149 836 q 58 851 104 851 q 54 860 54 851 q 58 868 54 868 l 636 868 q 650 856 650 868 l 653 675 q 645 671 653 672 q 636 674 638 669 q 443 832 603 832 l 388 832 q 317 814 338 832 q 296 753 296 796 l 296 469 l 429 469 q 582 572 582 469 q 590 576 582 576 q 597 572 597 576 l 596 451 l 597 386 q 600 314 600 342 q 592 311 600 311 q 583 314 583 311 q 428 433 583 433 l 296 433 l 296 118 q 313 54 296 72 q 375 36 331 36 l 443 36 q 679 217 629 36 m 396 1124 q 413 1131 403 1131 q 428 1124 421 1131 l 569 971 q 571 968 571 971 q 567 963 571 965 q 563 961 564 960 l 413 1024 l 261 961 q 254 965 258 960 q 253 971 250 969 l 396 1124 z "},"Ế":{"ha":760,"x_min":54,"x_max":708,"o":"m 679 217 q 685 219 679 219 q 692 217 689 219 q 696 214 696 215 q 682 21 682 108 q 678 5 682 10 q 661 0 674 0 l 58 0 q 54 8 54 0 q 58 17 54 17 q 127 24 106 17 q 156 51 149 31 q 164 113 164 71 l 164 756 q 156 817 164 797 q 126 844 149 836 q 58 851 104 851 q 54 860 54 851 q 58 868 54 868 l 636 868 q 650 856 650 868 l 653 675 q 645 671 653 672 q 636 674 638 669 q 443 832 603 832 l 388 832 q 317 814 338 832 q 296 753 296 796 l 296 469 l 429 469 q 582 572 582 469 q 590 576 582 576 q 597 572 597 576 l 596 451 l 597 386 q 600 314 600 342 q 592 311 600 311 q 583 314 583 311 q 428 433 583 433 l 296 433 l 296 118 q 313 54 296 72 q 375 36 331 36 l 443 36 q 679 217 629 36 m 394 1063 q 410 1069 401 1069 q 426 1063 419 1069 l 568 910 q 569 907 569 910 q 566 901 569 904 q 561 900 563 899 l 411 963 l 260 900 q 253 903 257 899 q 251 910 249 908 l 394 1063 m 501 1028 q 497 1026 500 1026 q 490 1032 493 1026 q 490 1040 488 1038 q 579 1182 540 1110 q 621 1179 583 1189 q 688 1154 658 1169 q 704 1135 718 1139 q 601 1088 647 1114 q 501 1028 554 1063 z "},"Ệ":{"ha":760,"x_min":54,"x_max":696,"o":"m 679 217 q 685 219 679 219 q 692 217 689 219 q 696 214 696 215 q 682 21 682 108 q 678 5 682 10 q 661 0 674 0 l 58 0 q 54 8 54 0 q 58 17 54 17 q 127 24 106 17 q 156 51 149 31 q 164 113 164 71 l 164 756 q 156 817 164 797 q 126 844 149 836 q 58 851 104 851 q 54 860 54 851 q 58 868 54 868 l 636 868 q 650 856 650 868 l 653 675 q 645 671 653 672 q 636 674 638 669 q 443 832 603 832 l 388 832 q 317 814 338 832 q 296 753 296 796 l 296 469 l 429 469 q 582 572 582 469 q 590 576 582 576 q 597 572 597 576 l 596 451 l 597 386 q 600 314 600 342 q 592 311 600 311 q 583 314 583 311 q 428 433 583 433 l 296 433 l 296 118 q 313 54 296 72 q 375 36 331 36 l 443 36 q 679 217 629 36 m 410 -279 q 353 -260 374 -279 q 333 -204 333 -240 q 353 -151 333 -169 q 410 -132 374 -132 q 464 -151 444 -132 q 483 -204 483 -169 q 465 -260 483 -240 q 410 -279 446 -279 m 394 1063 q 410 1069 401 1069 q 426 1063 419 1069 l 568 910 q 569 907 569 910 q 566 901 569 904 q 561 900 563 899 l 411 963 l 260 900 q 253 903 257 899 q 251 910 249 908 l 394 1063 z "},"Ề":{"ha":760,"x_min":54,"x_max":696,"o":"m 679 217 q 685 219 679 219 q 692 217 689 219 q 696 214 696 215 q 682 21 682 108 q 678 5 682 10 q 661 0 674 0 l 58 0 q 54 8 54 0 q 58 17 54 17 q 127 24 106 17 q 156 51 149 31 q 164 113 164 71 l 164 756 q 156 817 164 797 q 126 844 149 836 q 58 851 104 851 q 54 860 54 851 q 58 868 54 868 l 636 868 q 650 856 650 868 l 653 675 q 645 671 653 672 q 636 674 638 669 q 443 832 603 832 l 388 832 q 317 814 338 832 q 296 753 296 796 l 296 469 l 429 469 q 582 572 582 469 q 590 576 582 576 q 597 572 597 576 l 596 451 l 597 386 q 600 314 600 342 q 592 311 600 311 q 583 314 583 311 q 428 433 583 433 l 296 433 l 296 118 q 313 54 296 72 q 375 36 331 36 l 443 36 q 679 217 629 36 m 394 1063 q 410 1069 401 1069 q 426 1063 419 1069 l 568 910 q 569 907 569 910 q 566 901 569 904 q 561 900 563 899 l 411 963 l 260 900 q 253 903 257 899 q 251 910 249 908 l 394 1063 m 629 999 q 531 1058 576 1033 q 431 1106 486 1083 q 446 1125 417 1110 q 513 1150 475 1140 q 554 1153 550 1160 q 640 1013 603 1067 q 642 1007 642 1011 q 638 1000 642 1003 q 629 999 635 997 z "},"Ể":{"ha":760,"x_min":54,"x_max":696,"o":"m 679 217 q 685 219 679 219 q 692 217 689 219 q 696 214 696 215 q 682 21 682 108 q 678 5 682 10 q 661 0 674 0 l 58 0 q 54 8 54 0 q 58 17 54 17 q 127 24 106 17 q 156 51 149 31 q 164 113 164 71 l 164 756 q 156 817 164 797 q 126 844 149 836 q 58 851 104 851 q 54 860 54 851 q 58 868 54 868 l 636 868 q 650 856 650 868 l 653 675 q 645 671 653 672 q 636 674 638 669 q 443 832 603 832 l 388 832 q 317 814 338 832 q 296 753 296 796 l 296 469 l 429 469 q 582 572 582 469 q 590 576 582 576 q 597 572 597 576 l 596 451 l 597 386 q 600 314 600 342 q 592 311 600 311 q 583 314 583 311 q 428 433 583 433 l 296 433 l 296 118 q 313 54 296 72 q 375 36 331 36 l 443 36 q 679 217 629 36 m 394 1063 q 410 1069 401 1069 q 426 1063 419 1069 l 568 910 q 569 907 569 910 q 566 901 569 904 q 561 900 563 899 l 411 963 l 260 900 q 253 903 257 899 q 251 910 249 908 l 394 1063 m 531 1010 q 528 1028 528 1024 q 533 1055 528 1040 q 543 1082 538 1069 q 558 1132 558 1113 q 545 1164 558 1153 q 515 1175 532 1175 q 488 1169 504 1175 l 485 1168 q 478 1173 481 1168 q 478 1181 475 1178 q 563 1206 518 1206 q 616 1188 596 1206 q 636 1146 636 1171 q 624 1110 636 1126 q 588 1074 611 1094 q 555 1039 565 1053 q 546 1010 544 1025 q 540 1006 547 1007 q 531 1010 532 1006 z "},"Ễ":{"ha":760,"x_min":54,"x_max":696,"o":"m 679 217 q 685 219 679 219 q 692 217 689 219 q 696 214 696 215 q 682 21 682 108 q 678 5 682 10 q 661 0 674 0 l 58 0 q 54 8 54 0 q 58 17 54 17 q 127 24 106 17 q 156 51 149 31 q 164 113 164 71 l 164 756 q 156 817 164 797 q 126 844 149 836 q 58 851 104 851 q 54 860 54 851 q 58 868 54 868 l 636 868 q 650 856 650 868 l 653 675 q 645 671 653 672 q 636 674 638 669 q 443 832 603 832 l 388 832 q 317 814 338 832 q 296 753 296 796 l 296 469 l 429 469 q 582 572 582 469 q 590 576 582 576 q 597 572 597 576 l 596 451 l 597 386 q 600 314 600 342 q 592 311 600 311 q 583 314 583 311 q 428 433 583 433 l 296 433 l 296 118 q 313 54 296 72 q 375 36 331 36 l 443 36 q 679 217 629 36 m 394 1063 q 410 1069 401 1069 q 426 1063 419 1069 l 568 910 q 569 907 569 910 q 566 901 569 904 q 561 900 563 899 l 411 963 l 260 900 q 253 903 257 899 q 251 910 249 908 l 394 1063 m 526 1165 q 564 1174 549 1165 q 596 1203 579 1183 l 599 1204 q 604 1200 601 1204 q 606 1193 607 1196 q 546 1111 569 1132 q 492 1090 522 1090 q 413 1106 464 1090 q 363 1118 389 1113 q 315 1124 338 1124 q 278 1116 289 1124 q 246 1086 267 1108 l 244 1086 q 237 1090 240 1086 q 236 1096 233 1093 q 356 1200 297 1200 q 424 1186 371 1200 q 526 1165 492 1165 z "},"Ë":{"ha":760,"x_min":54,"x_max":696,"o":"m 679 217 q 685 219 679 219 q 692 217 689 219 q 696 214 696 215 q 682 21 682 108 q 678 5 682 10 q 661 0 674 0 l 58 0 q 54 8 54 0 q 58 17 54 17 q 127 24 106 17 q 156 51 149 31 q 164 113 164 71 l 164 756 q 156 817 164 797 q 126 844 149 836 q 58 851 104 851 q 54 860 54 851 q 58 868 54 868 l 636 868 q 650 856 650 868 l 653 675 q 645 671 653 672 q 636 674 638 669 q 443 832 603 832 l 388 832 q 317 814 338 832 q 296 753 296 796 l 296 469 l 429 469 q 582 572 582 469 q 590 576 582 576 q 597 572 597 576 l 596 451 l 597 386 q 600 314 600 342 q 592 311 600 311 q 583 314 583 311 q 428 433 583 433 l 296 433 l 296 118 q 313 54 296 72 q 375 36 331 36 l 443 36 q 679 217 629 36 m 292 983 q 240 1001 258 983 q 221 1053 221 1019 q 240 1102 221 1085 q 292 1119 258 1119 q 341 1102 324 1119 q 358 1053 358 1085 q 341 1001 358 1019 q 292 983 324 983 m 533 983 q 483 1001 501 983 q 464 1053 464 1019 q 483 1101 464 1083 q 533 1119 501 1119 q 583 1102 565 1119 q 601 1053 601 1085 q 583 1001 601 1019 q 533 983 565 983 z "},"Ė":{"ha":760,"x_min":54,"x_max":696,"o":"m 679 217 q 685 219 679 219 q 692 217 689 219 q 696 214 696 215 q 682 21 682 108 q 678 5 682 10 q 661 0 674 0 l 58 0 q 54 8 54 0 q 58 17 54 17 q 127 24 106 17 q 156 51 149 31 q 164 113 164 71 l 164 756 q 156 817 164 797 q 126 844 149 836 q 58 851 104 851 q 54 860 54 851 q 58 868 54 868 l 636 868 q 650 856 650 868 l 653 675 q 645 671 653 672 q 636 674 638 669 q 443 832 603 832 l 388 832 q 317 814 338 832 q 296 753 296 796 l 296 469 l 429 469 q 582 572 582 469 q 590 576 582 576 q 597 572 597 576 l 596 451 l 597 386 q 600 314 600 342 q 592 311 600 311 q 583 314 583 311 q 428 433 583 433 l 296 433 l 296 118 q 313 54 296 72 q 375 36 331 36 l 443 36 q 679 217 629 36 m 413 990 q 356 1010 376 990 q 336 1067 336 1031 q 356 1120 336 1100 q 413 1140 376 1140 q 467 1120 447 1140 q 486 1067 486 1100 q 467 1010 486 1031 q 413 990 447 990 z "},"Ẹ":{"ha":760,"x_min":54,"x_max":696,"o":"m 679 217 q 685 219 679 219 q 692 217 689 219 q 696 214 696 215 q 682 21 682 108 q 678 5 682 10 q 661 0 674 0 l 58 0 q 54 8 54 0 q 58 17 54 17 q 127 24 106 17 q 156 51 149 31 q 164 113 164 71 l 164 756 q 156 817 164 797 q 126 844 149 836 q 58 851 104 851 q 54 860 54 851 q 58 868 54 868 l 636 868 q 650 856 650 868 l 653 675 q 645 671 653 672 q 636 674 638 669 q 443 832 603 832 l 388 832 q 317 814 338 832 q 296 753 296 796 l 296 469 l 429 469 q 582 572 582 469 q 590 576 582 576 q 597 572 597 576 l 596 451 l 597 386 q 600 314 600 342 q 592 311 600 311 q 583 314 583 311 q 428 433 583 433 l 296 433 l 296 118 q 313 54 296 72 q 375 36 331 36 l 443 36 q 679 217 629 36 m 410 -279 q 353 -260 374 -279 q 333 -204 333 -240 q 353 -151 333 -169 q 410 -132 374 -132 q 464 -151 444 -132 q 483 -204 483 -169 q 465 -260 483 -240 q 410 -279 446 -279 z "},"È":{"ha":760,"x_min":54,"x_max":696,"o":"m 679 217 q 685 219 679 219 q 692 217 689 219 q 696 214 696 215 q 682 21 682 108 q 678 5 682 10 q 661 0 674 0 l 58 0 q 54 8 54 0 q 58 17 54 17 q 127 24 106 17 q 156 51 149 31 q 164 113 164 71 l 164 756 q 156 817 164 797 q 126 844 149 836 q 58 851 104 851 q 54 860 54 851 q 58 868 54 868 l 636 868 q 650 856 650 868 l 653 675 q 645 671 653 672 q 636 674 638 669 q 443 832 603 832 l 388 832 q 317 814 338 832 q 296 753 296 796 l 296 469 l 429 469 q 582 572 582 469 q 590 576 582 576 q 597 572 597 576 l 596 451 l 597 386 q 600 314 600 342 q 592 311 600 311 q 583 314 583 311 q 428 433 583 433 l 296 433 l 296 118 q 313 54 296 72 q 375 36 331 36 l 443 36 q 679 217 629 36 m 550 943 q 240 1050 393 1013 q 255 1067 226 1053 q 320 1092 283 1081 q 364 1097 357 1103 q 426 1050 406 1067 q 556 957 511 986 q 558 951 558 956 q 556 944 558 947 q 550 943 553 942 z "},"Ẻ":{"ha":760,"x_min":54,"x_max":696,"o":"m 679 217 q 685 219 679 219 q 692 217 689 219 q 696 214 696 215 q 682 21 682 108 q 678 5 682 10 q 661 0 674 0 l 58 0 q 54 8 54 0 q 58 17 54 17 q 127 24 106 17 q 156 51 149 31 q 164 113 164 71 l 164 756 q 156 817 164 797 q 126 844 149 836 q 58 851 104 851 q 54 860 54 851 q 58 868 54 868 l 636 868 q 650 856 650 868 l 653 675 q 645 671 653 672 q 636 674 638 669 q 443 832 603 832 l 388 832 q 317 814 338 832 q 296 753 296 796 l 296 469 l 429 469 q 582 572 582 469 q 590 576 582 576 q 597 572 597 576 l 596 451 l 597 386 q 600 314 600 342 q 592 311 600 311 q 583 314 583 311 q 428 433 583 433 l 296 433 l 296 118 q 313 54 296 72 q 375 36 331 36 l 443 36 q 679 217 629 36 m 414 904 q 406 901 414 901 q 397 904 399 901 q 394 935 394 915 q 400 975 394 957 q 418 1019 406 993 q 439 1092 439 1061 q 393 1143 439 1143 q 347 1131 369 1143 l 346 1131 q 337 1135 340 1131 q 338 1142 333 1140 q 443 1178 382 1178 q 512 1158 486 1178 q 538 1106 538 1138 q 520 1053 538 1078 q 471 999 503 1029 q 426 947 440 967 q 414 904 413 926 z "},"Ē":{"ha":760,"x_min":54,"x_max":696,"o":"m 679 217 q 685 219 679 219 q 692 217 689 219 q 696 214 696 215 q 682 21 682 108 q 678 5 682 10 q 661 0 674 0 l 58 0 q 54 8 54 0 q 58 17 54 17 q 127 24 106 17 q 156 51 149 31 q 164 113 164 71 l 164 756 q 156 817 164 797 q 126 844 149 836 q 58 851 104 851 q 54 860 54 851 q 58 868 54 868 l 636 868 q 650 856 650 868 l 653 675 q 645 671 653 672 q 636 674 638 669 q 443 832 603 832 l 388 832 q 317 814 338 832 q 296 753 296 796 l 296 469 l 429 469 q 582 572 582 469 q 590 576 582 576 q 597 572 597 576 l 596 451 l 597 386 q 600 314 600 342 q 592 311 600 311 q 583 314 583 311 q 428 433 583 433 l 296 433 l 296 118 q 313 54 296 72 q 375 36 331 36 l 443 36 q 679 217 629 36 m 236 994 q 228 1002 231 994 q 225 1018 225 1010 q 228 1035 225 1028 q 236 1042 231 1042 l 585 1042 q 594 1035 590 1042 q 597 1018 597 1028 q 594 1001 597 1008 q 585 994 590 994 l 236 994 z "},"Ę":{"ha":760,"x_min":54,"x_max":710,"o":"m 699 -308 q 706 -312 703 -308 q 706 -319 710 -317 q 551 -382 632 -382 q 435 -340 481 -382 q 390 -235 390 -299 q 554 0 390 -121 l 58 0 q 54 8 54 0 q 58 17 54 17 q 127 24 106 17 q 156 51 149 31 q 164 113 164 71 l 164 756 q 156 817 164 797 q 126 844 149 836 q 58 851 104 851 q 54 860 54 851 q 58 868 54 868 l 636 868 q 650 856 650 868 l 653 675 q 645 671 653 672 q 636 674 638 669 q 443 832 603 832 l 388 832 q 317 814 338 832 q 296 753 296 796 l 296 469 l 429 469 q 582 572 582 469 q 590 576 582 576 q 597 572 597 576 l 596 451 l 597 386 q 600 314 600 342 q 592 311 600 311 q 583 314 583 311 q 428 433 583 433 l 296 433 l 296 118 q 313 54 296 72 q 375 36 331 36 l 443 36 q 679 217 629 36 q 685 219 679 219 q 692 217 689 219 q 696 214 696 215 q 682 21 682 108 q 678 5 682 10 q 661 0 674 0 l 582 0 q 514 -85 535 -46 q 493 -175 493 -125 q 528 -287 493 -244 q 626 -329 564 -329 q 665 -323 646 -329 q 696 -308 685 -317 l 699 -308 z "},"Ẽ":{"ha":760,"x_min":54,"x_max":696,"o":"m 679 217 q 685 219 679 219 q 692 217 689 219 q 696 214 696 215 q 682 21 682 108 q 678 5 682 10 q 661 0 674 0 l 58 0 q 54 8 54 0 q 58 17 54 17 q 127 24 106 17 q 156 51 149 31 q 164 113 164 71 l 164 756 q 156 817 164 797 q 126 844 149 836 q 58 851 104 851 q 54 860 54 851 q 58 868 54 868 l 636 868 q 650 856 650 868 l 653 675 q 645 671 653 672 q 636 674 638 669 q 443 832 603 832 l 388 832 q 317 814 338 832 q 296 753 296 796 l 296 469 l 429 469 q 582 572 582 469 q 590 576 582 576 q 597 572 597 576 l 596 451 l 597 386 q 600 314 600 342 q 592 311 600 311 q 583 314 583 311 q 428 433 583 433 l 296 433 l 296 118 q 313 54 296 72 q 375 36 331 36 l 443 36 q 679 217 629 36 m 522 1049 q 560 1057 546 1049 q 592 1086 575 1065 l 593 1086 q 601 1083 597 1086 q 601 1076 604 1079 q 542 993 565 1014 q 489 972 518 972 q 441 979 467 972 q 408 988 415 986 q 360 1000 385 994 q 313 1006 335 1006 q 277 999 289 1006 q 256 983 265 993 q 242 968 246 972 l 240 968 q 233 972 236 968 q 232 978 229 975 q 353 1082 292 1082 q 418 1068 368 1082 q 522 1049 482 1049 z "},"F":{"ha":719,"x_min":47,"x_max":653,"o":"m 653 675 q 645 671 653 672 q 636 674 638 669 q 443 832 603 832 l 388 832 q 317 814 338 832 q 296 754 296 796 l 296 453 l 410 453 q 565 557 565 453 q 574 560 565 560 q 582 557 582 560 l 581 435 q 582 371 581 392 l 583 299 q 575 294 583 294 q 567 299 567 294 q 407 417 567 417 l 296 417 l 296 118 q 307 53 296 74 q 351 25 318 33 q 451 17 383 17 q 454 8 454 17 q 451 0 454 0 q 363 1 394 0 l 226 3 l 125 1 q 51 0 99 0 q 47 8 47 0 q 51 17 47 17 q 124 24 101 17 q 156 51 147 31 q 164 113 164 71 l 164 756 q 156 817 164 797 q 126 844 149 836 q 58 851 104 851 q 54 860 54 851 q 58 868 54 868 l 636 868 q 650 856 650 868 l 653 675 z "},"G":{"ha":996,"x_min":68,"x_max":950,"o":"m 567 -17 q 301 42 414 -17 q 128 201 188 100 q 68 425 68 301 q 137 663 68 558 q 326 826 206 768 q 596 883 446 883 q 726 872 661 883 q 832 842 792 861 q 847 831 843 836 q 851 810 850 825 l 868 629 q 861 624 868 625 q 851 628 854 622 q 726 790 810 732 q 531 849 643 849 q 296 749 378 849 q 214 476 214 650 q 264 233 214 340 q 402 67 314 126 q 600 7 490 7 q 694 19 661 7 q 744 68 728 32 q 760 175 760 104 q 751 276 760 247 q 715 314 743 304 q 615 324 686 324 q 607 335 607 324 q 609 342 607 339 q 614 346 611 346 q 799 339 729 339 q 943 343 868 339 q 948 340 946 343 q 950 333 950 336 q 943 324 950 324 q 904 315 915 325 q 890 272 893 304 q 886 161 886 240 q 891 72 886 99 q 896 39 896 46 q 892 28 896 31 q 879 22 889 26 q 567 -17 704 -17 z "},"Ğ":{"ha":996,"x_min":68,"x_max":950,"o":"m 567 -17 q 301 42 414 -17 q 128 201 188 100 q 68 425 68 301 q 137 663 68 558 q 326 826 206 768 q 596 883 446 883 q 726 872 661 883 q 832 842 792 861 q 847 831 843 836 q 851 810 850 825 l 868 629 q 861 624 868 625 q 851 628 854 622 q 726 790 810 732 q 531 849 643 849 q 296 749 378 849 q 214 476 214 650 q 264 233 214 340 q 402 67 314 126 q 600 7 490 7 q 694 19 661 7 q 744 68 728 32 q 760 175 760 104 q 751 276 760 247 q 715 314 743 304 q 615 324 686 324 q 607 335 607 324 q 609 342 607 339 q 614 346 611 346 q 799 339 729 339 q 943 343 868 339 q 948 340 946 343 q 950 333 950 336 q 943 324 950 324 q 904 315 915 325 q 890 272 893 304 q 886 161 886 240 q 891 72 886 99 q 896 39 896 46 q 892 28 896 31 q 879 22 889 26 q 567 -17 704 -17 m 547 958 q 444 1001 481 958 q 404 1125 407 1044 q 411 1131 404 1131 q 419 1128 418 1131 q 460 1074 422 1099 q 547 1050 497 1050 q 633 1074 596 1050 q 674 1128 671 1099 q 681 1131 674 1132 q 689 1125 689 1131 q 650 1001 686 1044 q 547 958 614 958 z "},"Ǧ":{"ha":996,"x_min":68,"x_max":950,"o":"m 567 -17 q 301 42 414 -17 q 128 201 188 100 q 68 425 68 301 q 137 663 68 558 q 326 826 206 768 q 596 883 446 883 q 726 872 661 883 q 832 842 792 861 q 847 831 843 836 q 851 810 850 825 l 868 629 q 861 624 868 625 q 851 628 854 622 q 726 790 810 732 q 531 849 643 849 q 296 749 378 849 q 214 476 214 650 q 264 233 214 340 q 402 67 314 126 q 600 7 490 7 q 694 19 661 7 q 744 68 728 32 q 760 175 760 104 q 751 276 760 247 q 715 314 743 304 q 615 324 686 324 q 607 335 607 324 q 609 342 607 339 q 614 346 611 346 q 799 339 729 339 q 943 343 868 339 q 948 340 946 343 q 950 333 950 336 q 943 324 950 324 q 904 315 915 325 q 890 272 893 304 q 886 161 886 240 q 891 72 886 99 q 896 39 896 46 q 892 28 896 31 q 879 22 889 26 q 567 -17 704 -17 m 388 1106 l 388 1107 q 391 1115 388 1111 q 396 1115 394 1118 l 547 1053 l 697 1117 l 699 1117 q 705 1113 703 1117 q 704 1107 707 1110 l 563 954 q 547 949 557 949 q 531 954 536 949 l 388 1106 z "},"Ĝ":{"ha":996,"x_min":68,"x_max":950,"o":"m 567 -17 q 301 42 414 -17 q 128 201 188 100 q 68 425 68 301 q 137 663 68 558 q 326 826 206 768 q 596 883 446 883 q 726 872 661 883 q 832 842 792 861 q 847 831 843 836 q 851 810 850 825 l 868 629 q 861 624 868 625 q 851 628 854 622 q 726 790 810 732 q 531 849 643 849 q 296 749 378 849 q 214 476 214 650 q 264 233 214 340 q 402 67 314 126 q 600 7 490 7 q 694 19 661 7 q 744 68 728 32 q 760 175 760 104 q 751 276 760 247 q 715 314 743 304 q 615 324 686 324 q 607 335 607 324 q 609 342 607 339 q 614 346 611 346 q 799 339 729 339 q 943 343 868 339 q 948 340 946 343 q 950 333 950 336 q 943 324 950 324 q 904 315 915 325 q 890 272 893 304 q 886 161 886 240 q 891 72 886 99 q 896 39 896 46 q 892 28 896 31 q 879 22 889 26 q 567 -17 704 -17 m 532 1124 q 549 1131 539 1131 q 564 1124 557 1131 l 706 971 q 707 968 707 971 q 703 963 707 965 q 699 961 700 960 l 549 1024 l 397 961 q 390 965 394 960 q 389 971 386 969 l 532 1124 z "},"Ģ":{"ha":996,"x_min":68,"x_max":950,"o":"m 567 -17 q 301 42 414 -17 q 128 201 188 100 q 68 425 68 301 q 137 663 68 558 q 326 826 206 768 q 596 883 446 883 q 726 872 661 883 q 832 842 792 861 q 847 831 843 836 q 851 810 850 825 l 868 629 q 861 624 868 625 q 851 628 854 622 q 726 790 810 732 q 531 849 643 849 q 296 749 378 849 q 214 476 214 650 q 264 233 214 340 q 402 67 314 126 q 600 7 490 7 q 694 19 661 7 q 744 68 728 32 q 760 175 760 104 q 751 276 760 247 q 715 314 743 304 q 615 324 686 324 q 607 335 607 324 q 609 342 607 339 q 614 346 611 346 q 799 339 729 339 q 943 343 868 339 q 948 340 946 343 q 950 333 950 336 q 943 324 950 324 q 904 315 915 325 q 890 272 893 304 q 886 161 886 240 q 891 72 886 99 q 896 39 896 46 q 892 28 896 31 q 879 22 889 26 q 567 -17 704 -17 m 572 -103 q 640 -132 617 -103 q 664 -212 664 -161 q 638 -304 664 -264 q 565 -382 613 -344 l 563 -383 q 554 -378 557 -383 q 556 -369 551 -372 q 619 -265 619 -318 q 608 -222 619 -236 q 556 -246 593 -246 q 510 -226 528 -246 q 493 -175 493 -207 q 516 -122 493 -140 q 572 -103 539 -103 z "},"Ġ":{"ha":996,"x_min":68,"x_max":950,"o":"m 567 -17 q 301 42 414 -17 q 128 201 188 100 q 68 425 68 301 q 137 663 68 558 q 326 826 206 768 q 596 883 446 883 q 726 872 661 883 q 832 842 792 861 q 847 831 843 836 q 851 810 850 825 l 868 629 q 861 624 868 625 q 851 628 854 622 q 726 790 810 732 q 531 849 643 849 q 296 749 378 849 q 214 476 214 650 q 264 233 214 340 q 402 67 314 126 q 600 7 490 7 q 694 19 661 7 q 744 68 728 32 q 760 175 760 104 q 751 276 760 247 q 715 314 743 304 q 615 324 686 324 q 607 335 607 324 q 609 342 607 339 q 614 346 611 346 q 799 339 729 339 q 943 343 868 339 q 948 340 946 343 q 950 333 950 336 q 943 324 950 324 q 904 315 915 325 q 890 272 893 304 q 886 161 886 240 q 891 72 886 99 q 896 39 896 46 q 892 28 896 31 q 879 22 889 26 q 567 -17 704 -17 m 549 990 q 492 1010 513 990 q 472 1067 472 1031 q 492 1120 472 1100 q 549 1140 513 1140 q 603 1120 583 1140 q 622 1067 622 1100 q 603 1010 622 1031 q 549 990 583 990 z "},"Ḡ":{"ha":996,"x_min":68,"x_max":950,"o":"m 567 -17 q 301 42 414 -17 q 128 201 188 100 q 68 425 68 301 q 137 663 68 558 q 326 826 206 768 q 596 883 446 883 q 726 872 661 883 q 832 842 792 861 q 847 831 843 836 q 851 810 850 825 l 868 629 q 861 624 868 625 q 851 628 854 622 q 726 790 810 732 q 531 849 643 849 q 296 749 378 849 q 214 476 214 650 q 264 233 214 340 q 402 67 314 126 q 600 7 490 7 q 694 19 661 7 q 744 68 728 32 q 760 175 760 104 q 751 276 760 247 q 715 314 743 304 q 615 324 686 324 q 607 335 607 324 q 609 342 607 339 q 614 346 611 346 q 799 339 729 339 q 943 343 868 339 q 948 340 946 343 q 950 333 950 336 q 943 324 950 324 q 904 315 915 325 q 890 272 893 304 q 886 161 886 240 q 891 72 886 99 q 896 39 896 46 q 892 28 896 31 q 879 22 889 26 q 567 -17 704 -17 m 372 994 q 361 1018 361 994 q 372 1042 361 1042 l 721 1042 q 730 1035 726 1042 q 733 1018 733 1028 q 730 1001 733 1008 q 721 994 726 994 l 372 994 z "},"H":{"ha":1058,"x_min":42,"x_max":1017,"o":"m 1013 17 q 1017 8 1017 17 q 1013 0 1017 0 q 936 1 965 0 l 835 3 l 717 1 q 650 0 692 0 q 646 8 646 0 q 650 17 646 17 q 726 24 703 17 q 758 50 750 31 q 767 113 767 69 l 767 433 l 290 433 l 290 113 q 299 51 290 71 q 331 24 307 31 q 408 17 356 17 q 411 8 411 17 q 408 0 411 0 q 335 1 361 0 l 219 3 l 118 1 q 44 0 92 0 q 42 8 42 0 q 44 17 42 17 q 118 24 94 17 q 150 51 142 31 q 158 113 158 71 l 158 756 q 150 817 158 797 q 118 844 142 836 q 46 851 94 851 q 43 860 43 851 q 46 868 43 868 l 119 867 q 219 864 183 864 q 335 867 268 864 l 408 868 q 411 860 411 868 q 408 851 411 851 q 333 843 357 851 q 299 815 308 835 q 290 753 290 794 l 290 469 l 767 469 l 767 753 q 758 815 767 794 q 726 843 750 835 q 650 851 701 851 q 646 860 646 851 q 650 868 646 868 l 717 867 q 835 864 783 864 q 936 867 872 864 l 1013 868 q 1017 860 1017 868 q 1013 851 1017 851 q 940 844 963 851 q 908 817 917 836 q 900 756 900 797 l 900 113 q 908 51 900 71 q 940 24 917 31 q 1013 17 963 17 z "},"Ħ":{"ha":1058,"x_min":42,"x_max":1017,"o":"m 1013 17 q 1017 8 1017 17 q 1013 0 1017 0 q 936 1 965 0 l 835 3 l 717 1 q 650 0 692 0 q 646 8 646 0 q 650 17 646 17 q 726 24 703 17 q 758 50 750 31 q 767 113 767 69 l 767 304 l 290 304 l 290 113 q 299 51 290 71 q 331 24 307 31 q 408 17 356 17 q 411 8 411 17 q 408 0 411 0 q 335 1 361 0 l 219 3 l 118 1 q 44 0 92 0 q 42 8 42 0 q 44 17 42 17 q 118 24 94 17 q 150 51 142 31 q 158 113 158 71 l 158 756 q 150 817 158 797 q 118 844 142 836 q 46 851 94 851 q 43 860 43 851 q 46 868 43 868 l 119 867 q 219 864 183 864 q 335 867 268 864 l 408 868 q 411 860 411 868 q 408 851 411 851 q 333 843 357 851 q 299 815 308 835 q 290 753 290 794 l 290 600 l 767 600 l 767 753 q 758 815 767 794 q 726 843 750 835 q 650 851 701 851 q 646 860 646 851 q 650 868 646 868 l 717 867 q 835 864 783 864 q 936 867 872 864 l 1013 868 q 1017 860 1017 868 q 1013 851 1017 851 q 940 844 963 851 q 908 817 917 836 q 900 756 900 797 l 900 113 q 908 51 900 71 q 940 24 917 31 q 1013 17 963 17 m 290 340 l 767 340 l 767 564 l 290 564 l 290 340 z "},"Ḫ":{"ha":1058,"x_min":42,"x_max":1017,"o":"m 1013 17 q 1017 8 1017 17 q 1013 0 1017 0 q 936 1 965 0 l 835 3 l 717 1 q 650 0 692 0 q 646 8 646 0 q 650 17 646 17 q 726 24 703 17 q 758 50 750 31 q 767 113 767 69 l 767 433 l 290 433 l 290 113 q 299 51 290 71 q 331 24 307 31 q 408 17 356 17 q 411 8 411 17 q 408 0 411 0 q 335 1 361 0 l 219 3 l 118 1 q 44 0 92 0 q 42 8 42 0 q 44 17 42 17 q 118 24 94 17 q 150 51 142 31 q 158 113 158 71 l 158 756 q 150 817 158 797 q 118 844 142 836 q 46 851 94 851 q 43 860 43 851 q 46 868 43 868 l 119 867 q 219 864 183 864 q 335 867 268 864 l 408 868 q 411 860 411 868 q 408 851 411 851 q 333 843 357 851 q 299 815 308 835 q 290 753 290 794 l 290 469 l 767 469 l 767 753 q 758 815 767 794 q 726 843 750 835 q 650 851 701 851 q 646 860 646 851 q 650 868 646 868 l 717 867 q 835 864 783 864 q 936 867 872 864 l 1013 868 q 1017 860 1017 868 q 1013 851 1017 851 q 940 844 963 851 q 908 817 917 836 q 900 756 900 797 l 900 113 q 908 51 900 71 q 940 24 917 31 q 1013 17 963 17 m 386 -108 q 394 -103 386 -104 q 401 -106 401 -103 q 438 -192 401 -156 q 529 -228 475 -228 q 619 -192 582 -228 q 656 -106 656 -156 q 663 -103 656 -103 q 671 -108 671 -104 q 635 -272 671 -215 q 529 -328 599 -328 q 423 -272 460 -328 q 386 -108 386 -215 z "},"Ĥ":{"ha":1058,"x_min":42,"x_max":1017,"o":"m 1013 17 q 1017 8 1017 17 q 1013 0 1017 0 q 936 1 965 0 l 835 3 l 717 1 q 650 0 692 0 q 646 8 646 0 q 650 17 646 17 q 726 24 703 17 q 758 50 750 31 q 767 113 767 69 l 767 433 l 290 433 l 290 113 q 299 51 290 71 q 331 24 307 31 q 408 17 356 17 q 411 8 411 17 q 408 0 411 0 q 335 1 361 0 l 219 3 l 118 1 q 44 0 92 0 q 42 8 42 0 q 44 17 42 17 q 118 24 94 17 q 150 51 142 31 q 158 113 158 71 l 158 756 q 150 817 158 797 q 118 844 142 836 q 46 851 94 851 q 43 860 43 851 q 46 868 43 868 l 119 867 q 219 864 183 864 q 335 867 268 864 l 408 868 q 411 860 411 868 q 408 851 411 851 q 333 843 357 851 q 299 815 308 835 q 290 753 290 794 l 290 469 l 767 469 l 767 753 q 758 815 767 794 q 726 843 750 835 q 650 851 701 851 q 646 860 646 851 q 650 868 646 868 l 717 867 q 835 864 783 864 q 936 867 872 864 l 1013 868 q 1017 860 1017 868 q 1013 851 1017 851 q 940 844 963 851 q 908 817 917 836 q 900 756 900 797 l 900 113 q 908 51 900 71 q 940 24 917 31 q 1013 17 963 17 m 517 1124 q 533 1131 524 1131 q 549 1124 542 1131 l 690 971 q 692 968 692 971 q 688 963 692 965 q 683 961 685 960 l 533 1024 l 382 961 q 375 965 379 960 q 374 971 371 969 l 517 1124 z "},"Ḥ":{"ha":1058,"x_min":42,"x_max":1017,"o":"m 1013 17 q 1017 8 1017 17 q 1013 0 1017 0 q 936 1 965 0 l 835 3 l 717 1 q 650 0 692 0 q 646 8 646 0 q 650 17 646 17 q 726 24 703 17 q 758 50 750 31 q 767 113 767 69 l 767 433 l 290 433 l 290 113 q 299 51 290 71 q 331 24 307 31 q 408 17 356 17 q 411 8 411 17 q 408 0 411 0 q 335 1 361 0 l 219 3 l 118 1 q 44 0 92 0 q 42 8 42 0 q 44 17 42 17 q 118 24 94 17 q 150 51 142 31 q 158 113 158 71 l 158 756 q 150 817 158 797 q 118 844 142 836 q 46 851 94 851 q 43 860 43 851 q 46 868 43 868 l 119 867 q 219 864 183 864 q 335 867 268 864 l 408 868 q 411 860 411 868 q 408 851 411 851 q 333 843 357 851 q 299 815 308 835 q 290 753 290 794 l 290 469 l 767 469 l 767 753 q 758 815 767 794 q 726 843 750 835 q 650 851 701 851 q 646 860 646 851 q 650 868 646 868 l 717 867 q 835 864 783 864 q 936 867 872 864 l 1013 868 q 1017 860 1017 868 q 1013 851 1017 851 q 940 844 963 851 q 908 817 917 836 q 900 756 900 797 l 900 113 q 908 51 900 71 q 940 24 917 31 q 1013 17 963 17 m 531 -279 q 474 -260 494 -279 q 454 -204 454 -240 q 474 -151 454 -169 q 531 -132 494 -132 q 585 -151 565 -132 q 604 -204 604 -169 q 585 -260 604 -240 q 531 -279 567 -279 z "},"I":{"ha":471,"x_min":57,"x_max":411,"o":"m 303 113 q 310 50 303 69 q 338 24 317 31 q 407 17 360 17 q 411 8 411 17 q 407 0 411 0 q 336 1 363 0 l 233 3 l 133 1 q 61 0 107 0 q 57 8 57 0 q 61 17 57 17 q 130 24 108 17 q 160 51 151 31 q 168 113 168 71 l 168 756 q 160 817 168 797 q 130 844 151 836 q 61 851 108 851 q 57 860 57 851 q 61 868 57 868 l 133 867 q 233 864 194 864 q 338 867 276 864 l 407 868 q 411 860 411 868 q 407 851 411 851 q 340 843 361 851 q 310 815 318 835 q 303 753 303 794 l 303 113 z "},"Ĳ":{"ha":967,"x_min":51,"x_max":928,"o":"m 294 486 q 302 424 294 443 q 331 397 310 404 q 401 390 353 390 q 404 382 404 390 q 401 374 404 374 q 329 375 356 374 l 226 376 l 129 375 q 54 374 101 374 q 51 382 51 374 q 54 390 51 390 q 123 397 101 390 q 153 424 144 404 q 161 486 161 444 l 161 756 q 153 817 161 797 q 123 844 144 836 q 54 851 101 851 q 51 860 51 851 q 54 868 51 868 l 129 867 q 226 864 190 864 q 332 867 268 864 l 401 868 q 404 860 404 868 q 401 851 404 851 q 332 843 354 851 q 302 815 310 835 q 294 753 294 794 l 294 486 m 924 868 q 928 860 928 868 q 924 851 928 851 q 866 843 885 851 q 841 815 847 835 q 835 753 835 794 l 835 358 q 790 154 835 239 q 665 26 746 69 q 478 -18 585 -18 q 312 11 388 -18 q 192 87 236 40 q 149 183 149 133 q 167 234 149 214 q 222 254 186 254 q 276 230 261 254 q 303 157 292 206 q 327 81 314 110 q 376 30 340 51 q 476 8 411 8 q 700 278 700 8 l 700 756 q 691 817 700 797 q 657 844 682 836 q 578 851 632 851 q 574 860 574 851 q 578 868 574 868 l 663 867 q 765 864 726 864 q 861 867 803 864 l 924 868 z "},"Í":{"ha":471,"x_min":57,"x_max":413,"o":"m 303 113 q 310 50 303 69 q 338 24 317 31 q 407 17 360 17 q 411 8 411 17 q 407 0 411 0 q 336 1 363 0 l 233 3 l 133 1 q 61 0 107 0 q 57 8 57 0 q 61 17 57 17 q 130 24 108 17 q 160 51 151 31 q 168 113 168 71 l 168 756 q 160 817 168 797 q 130 844 151 836 q 61 851 108 851 q 57 860 57 851 q 61 868 57 868 l 133 867 q 233 864 194 864 q 338 867 276 864 l 407 868 q 411 860 411 868 q 407 851 411 851 q 340 843 361 851 q 310 815 318 835 q 303 753 303 794 l 303 113 m 97 942 q 90 948 92 942 q 93 957 89 954 q 215 1044 138 983 q 285 1097 279 1093 q 329 1092 292 1103 q 395 1067 367 1081 q 408 1050 424 1053 q 251 1003 322 1029 q 100 943 179 978 l 97 942 z "},"Ĭ":{"ha":471,"x_min":57,"x_max":411,"o":"m 303 113 q 310 50 303 69 q 338 24 317 31 q 407 17 360 17 q 411 8 411 17 q 407 0 411 0 q 336 1 363 0 l 233 3 l 133 1 q 61 0 107 0 q 57 8 57 0 q 61 17 57 17 q 130 24 108 17 q 160 51 151 31 q 168 113 168 71 l 168 756 q 160 817 168 797 q 130 844 151 836 q 61 851 108 851 q 57 860 57 851 q 61 868 57 868 l 133 867 q 233 864 194 864 q 338 867 276 864 l 407 868 q 411 860 411 868 q 407 851 411 851 q 340 843 361 851 q 310 815 318 835 q 303 753 303 794 l 303 113 m 235 958 q 131 1001 168 958 q 92 1125 94 1044 q 99 1131 92 1131 q 107 1128 106 1131 q 147 1074 110 1099 q 235 1050 185 1050 q 321 1074 283 1050 q 361 1128 358 1099 q 369 1131 361 1132 q 376 1125 376 1131 q 338 1001 374 1044 q 235 958 301 958 z "},"Ǐ":{"ha":471,"x_min":57,"x_max":411,"o":"m 303 113 q 310 50 303 69 q 338 24 317 31 q 407 17 360 17 q 411 8 411 17 q 407 0 411 0 q 336 1 363 0 l 233 3 l 133 1 q 61 0 107 0 q 57 8 57 0 q 61 17 57 17 q 130 24 108 17 q 160 51 151 31 q 168 113 168 71 l 168 756 q 160 817 168 797 q 130 844 151 836 q 61 851 108 851 q 57 860 57 851 q 61 868 57 868 l 133 867 q 233 864 194 864 q 338 867 276 864 l 407 868 q 411 860 411 868 q 407 851 411 851 q 340 843 361 851 q 310 815 318 835 q 303 753 303 794 l 303 113 m 75 1106 l 75 1107 q 78 1115 75 1111 q 83 1115 82 1118 l 235 1053 l 385 1117 l 386 1117 q 392 1113 390 1117 q 392 1107 394 1110 l 250 954 q 235 949 244 949 q 218 954 224 949 l 75 1106 z "},"Î":{"ha":471,"x_min":57,"x_max":411,"o":"m 303 113 q 310 50 303 69 q 338 24 317 31 q 407 17 360 17 q 411 8 411 17 q 407 0 411 0 q 336 1 363 0 l 233 3 l 133 1 q 61 0 107 0 q 57 8 57 0 q 61 17 57 17 q 130 24 108 17 q 160 51 151 31 q 168 113 168 71 l 168 756 q 160 817 168 797 q 130 844 151 836 q 61 851 108 851 q 57 860 57 851 q 61 868 57 868 l 133 867 q 233 864 194 864 q 338 867 276 864 l 407 868 q 411 860 411 868 q 407 851 411 851 q 340 843 361 851 q 310 815 318 835 q 303 753 303 794 l 303 113 m 219 1124 q 236 1131 226 1131 q 251 1124 244 1131 l 393 971 q 394 968 394 971 q 391 963 394 965 q 386 961 388 960 l 236 1024 l 85 961 q 78 965 82 960 q 76 971 74 969 l 219 1124 z "},"Ï":{"ha":471,"x_min":57,"x_max":411,"o":"m 303 113 q 310 50 303 69 q 338 24 317 31 q 407 17 360 17 q 411 8 411 17 q 407 0 411 0 q 336 1 363 0 l 233 3 l 133 1 q 61 0 107 0 q 57 8 57 0 q 61 17 57 17 q 130 24 108 17 q 160 51 151 31 q 168 113 168 71 l 168 756 q 160 817 168 797 q 130 844 151 836 q 61 851 108 851 q 57 860 57 851 q 61 868 57 868 l 133 867 q 233 864 194 864 q 338 867 276 864 l 407 868 q 411 860 411 868 q 407 851 411 851 q 340 843 361 851 q 310 815 318 835 q 303 753 303 794 l 303 113 m 132 983 q 80 1001 99 983 q 61 1053 61 1019 q 80 1102 61 1085 q 132 1119 99 1119 q 182 1101 164 1119 q 200 1053 200 1083 q 182 1001 200 1019 q 132 983 164 983 m 339 983 q 288 1001 307 983 q 269 1053 269 1019 q 288 1101 269 1083 q 339 1119 307 1119 q 388 1102 371 1119 q 406 1053 406 1085 q 388 1001 406 1019 q 339 983 371 983 z "},"İ":{"ha":471,"x_min":57,"x_max":411,"o":"m 303 113 q 310 50 303 69 q 338 24 317 31 q 407 17 360 17 q 411 8 411 17 q 407 0 411 0 q 336 1 363 0 l 233 3 l 133 1 q 61 0 107 0 q 57 8 57 0 q 61 17 57 17 q 130 24 108 17 q 160 51 151 31 q 168 113 168 71 l 168 756 q 160 817 168 797 q 130 844 151 836 q 61 851 108 851 q 57 860 57 851 q 61 868 57 868 l 133 867 q 233 864 194 864 q 338 867 276 864 l 407 868 q 411 860 411 868 q 407 851 411 851 q 340 843 361 851 q 310 815 318 835 q 303 753 303 794 l 303 113 m 236 990 q 180 1010 200 990 q 160 1067 160 1031 q 180 1120 160 1100 q 236 1140 200 1140 q 290 1120 271 1140 q 310 1067 310 1100 q 290 1010 310 1031 q 236 990 271 990 z "},"Ị":{"ha":471,"x_min":57,"x_max":411,"o":"m 303 113 q 310 50 303 69 q 338 24 317 31 q 407 17 360 17 q 411 8 411 17 q 407 0 411 0 q 336 1 363 0 l 233 3 l 133 1 q 61 0 107 0 q 57 8 57 0 q 61 17 57 17 q 130 24 108 17 q 160 51 151 31 q 168 113 168 71 l 168 756 q 160 817 168 797 q 130 844 151 836 q 61 851 108 851 q 57 860 57 851 q 61 868 57 868 l 133 867 q 233 864 194 864 q 338 867 276 864 l 407 868 q 411 860 411 868 q 407 851 411 851 q 340 843 361 851 q 310 815 318 835 q 303 753 303 794 l 303 113 m 236 -279 q 180 -260 200 -279 q 160 -204 160 -240 q 180 -151 160 -169 q 236 -132 200 -132 q 290 -151 271 -132 q 310 -204 310 -169 q 291 -260 310 -240 q 236 -279 272 -279 z "},"Ì":{"ha":471,"x_min":57,"x_max":411,"o":"m 303 113 q 310 50 303 69 q 338 24 317 31 q 407 17 360 17 q 411 8 411 17 q 407 0 411 0 q 336 1 363 0 l 233 3 l 133 1 q 61 0 107 0 q 57 8 57 0 q 61 17 57 17 q 130 24 108 17 q 160 51 151 31 q 168 113 168 71 l 168 756 q 160 817 168 797 q 130 844 151 836 q 61 851 108 851 q 57 860 57 851 q 61 868 57 868 l 133 867 q 233 864 194 864 q 338 867 276 864 l 407 868 q 411 860 411 868 q 407 851 411 851 q 340 843 361 851 q 310 815 318 835 q 303 753 303 794 l 303 113 m 374 943 q 64 1050 217 1013 q 78 1067 50 1053 q 144 1092 107 1081 q 188 1097 181 1103 q 250 1050 229 1067 q 379 957 335 986 q 382 951 382 956 q 379 944 382 947 q 374 943 376 942 z "},"Ỉ":{"ha":471,"x_min":57,"x_max":411,"o":"m 303 113 q 310 50 303 69 q 338 24 317 31 q 407 17 360 17 q 411 8 411 17 q 407 0 411 0 q 336 1 363 0 l 233 3 l 133 1 q 61 0 107 0 q 57 8 57 0 q 61 17 57 17 q 130 24 108 17 q 160 51 151 31 q 168 113 168 71 l 168 756 q 160 817 168 797 q 130 844 151 836 q 61 851 108 851 q 57 860 57 851 q 61 868 57 868 l 133 867 q 233 864 194 864 q 338 867 276 864 l 407 868 q 411 860 411 868 q 407 851 411 851 q 340 843 361 851 q 310 815 318 835 q 303 753 303 794 l 303 113 m 238 904 q 230 901 238 901 q 221 904 222 901 q 218 935 218 915 q 224 975 218 957 q 242 1019 229 993 q 263 1092 263 1061 q 217 1143 263 1143 q 171 1131 193 1143 l 169 1131 q 160 1135 164 1131 q 161 1142 157 1140 q 267 1178 206 1178 q 335 1158 310 1178 q 361 1106 361 1138 q 344 1053 361 1078 q 294 999 326 1029 q 250 947 264 967 q 238 904 236 926 z "},"Ī":{"ha":471,"x_min":49,"x_max":421,"o":"m 303 113 q 310 50 303 69 q 338 24 317 31 q 407 17 360 17 q 411 8 411 17 q 407 0 411 0 q 336 1 363 0 l 233 3 l 133 1 q 61 0 107 0 q 57 8 57 0 q 61 17 57 17 q 130 24 108 17 q 160 51 151 31 q 168 113 168 71 l 168 756 q 160 817 168 797 q 130 844 151 836 q 61 851 108 851 q 57 860 57 851 q 61 868 57 868 l 133 867 q 233 864 194 864 q 338 867 276 864 l 407 868 q 411 860 411 868 q 407 851 411 851 q 340 843 361 851 q 310 815 318 835 q 303 753 303 794 l 303 113 m 60 994 q 51 1002 54 994 q 49 1018 49 1010 q 51 1035 49 1028 q 60 1042 54 1042 l 408 1042 q 417 1035 414 1042 q 421 1018 421 1028 q 417 1001 421 1008 q 408 994 414 994 l 60 994 z "},"Į":{"ha":471,"x_min":57,"x_max":411,"o":"m 407 17 q 411 8 411 17 q 407 0 411 0 q 340 1 364 0 l 244 3 q 206 -149 206 -67 q 240 -274 206 -224 q 324 -325 274 -325 q 376 -308 351 -325 l 379 -308 q 387 -312 383 -308 q 386 -319 390 -317 q 321 -367 353 -353 q 246 -382 289 -382 q 141 -343 179 -382 q 103 -237 103 -304 q 221 3 103 -122 l 129 1 q 61 0 104 0 q 57 8 57 0 q 61 17 57 17 q 130 24 108 17 q 160 51 151 31 q 168 113 168 71 l 168 756 q 160 817 168 797 q 130 844 151 836 q 61 851 108 851 q 57 860 57 851 q 61 868 57 868 l 133 867 q 233 864 194 864 q 338 867 276 864 l 407 868 q 411 860 411 868 q 407 851 411 851 q 340 843 361 851 q 310 815 318 835 q 303 753 303 794 l 303 113 q 310 50 303 69 q 338 24 317 31 q 407 17 360 17 z "},"Ĩ":{"ha":471,"x_min":51,"x_max":422,"o":"m 303 113 q 310 50 303 69 q 338 24 317 31 q 407 17 360 17 q 411 8 411 17 q 407 0 411 0 q 336 1 363 0 l 233 3 l 133 1 q 61 0 107 0 q 57 8 57 0 q 61 17 57 17 q 130 24 108 17 q 160 51 151 31 q 168 113 168 71 l 168 756 q 160 817 168 797 q 130 844 151 836 q 61 851 108 851 q 57 860 57 851 q 61 868 57 868 l 133 867 q 233 864 194 864 q 338 867 276 864 l 407 868 q 411 860 411 868 q 407 851 411 851 q 340 843 361 851 q 310 815 318 835 q 303 753 303 794 l 303 113 m 60 968 q 53 972 57 968 q 51 978 50 975 q 106 1050 75 1018 q 172 1082 138 1082 q 240 1068 188 1082 q 342 1049 304 1049 q 381 1057 367 1049 q 413 1086 394 1065 l 414 1086 q 421 1083 418 1086 q 422 1076 424 1079 q 362 993 385 1014 q 310 972 339 972 q 260 979 288 972 q 228 988 233 986 q 132 1006 171 1006 q 97 999 108 1006 q 75 983 85 993 q 61 968 65 972 l 60 968 z "},"J":{"ha":463,"x_min":-74,"x_max":410,"o":"m 406 868 q 410 860 410 868 q 406 851 410 851 q 348 843 367 851 q 323 815 329 835 q 317 753 317 794 l 317 -17 q 244 -252 317 -167 q 39 -337 171 -337 q -42 -317 -11 -337 q -74 -261 -74 -297 q -57 -217 -74 -236 q -10 -199 -40 -199 q 38 -216 21 -199 q 68 -264 54 -233 q 88 -297 78 -286 q 111 -308 97 -308 q 165 -258 147 -308 q 182 -92 182 -207 l 182 756 q 173 817 182 797 q 138 844 164 836 q 58 851 113 851 q 56 860 56 851 q 58 868 56 868 l 142 867 q 247 864 208 864 q 343 867 285 864 l 406 868 z "},"Ĵ":{"ha":463,"x_min":-74,"x_max":410,"o":"m 406 868 q 410 860 410 868 q 406 851 410 851 q 348 843 367 851 q 323 815 329 835 q 317 753 317 794 l 317 -17 q 244 -252 317 -167 q 39 -337 171 -337 q -42 -317 -11 -337 q -74 -261 -74 -297 q -57 -217 -74 -236 q -10 -199 -40 -199 q 38 -216 21 -199 q 68 -264 54 -233 q 88 -297 78 -286 q 111 -308 97 -308 q 165 -258 147 -308 q 182 -92 182 -207 l 182 756 q 173 817 182 797 q 138 844 164 836 q 58 851 113 851 q 56 860 56 851 q 58 868 56 868 l 142 867 q 247 864 208 864 q 343 867 285 864 l 406 868 m 222 1128 q 239 1135 229 1135 q 254 1128 247 1135 l 396 975 q 397 972 397 975 q 394 967 397 969 q 389 965 390 964 l 239 1028 l 88 965 q 81 969 85 964 q 79 975 76 974 l 222 1128 z "},"K":{"ha":907,"x_min":42,"x_max":915,"o":"m 911 17 q 915 8 915 17 q 911 0 915 0 l 756 0 l 701 -1 q 668 7 682 -1 q 636 38 654 15 q 569 125 618 60 l 513 201 l 319 454 l 285 418 l 285 113 q 292 50 285 69 q 320 24 299 31 q 389 17 342 17 q 394 8 394 17 q 389 0 394 0 q 318 1 344 0 l 217 3 l 118 1 q 44 0 92 0 q 42 8 42 0 q 44 17 42 17 q 113 24 92 17 q 143 51 135 31 q 151 113 151 71 l 151 756 q 144 817 151 797 q 114 844 136 836 q 46 851 92 851 q 43 860 43 851 q 46 868 43 868 l 119 867 q 217 864 181 864 q 319 867 258 864 l 389 868 q 393 860 393 868 q 389 851 393 851 q 322 843 343 851 q 292 815 300 835 q 285 753 285 794 l 285 460 l 557 735 q 600 807 600 778 q 578 840 600 828 q 515 851 557 851 q 513 860 513 851 q 515 868 513 868 l 578 867 q 689 864 639 864 q 799 867 743 864 l 858 868 q 863 860 863 868 q 858 851 863 851 q 724 818 797 851 q 592 726 651 785 l 414 549 l 618 278 q 760 95 713 149 q 836 29 808 42 q 911 17 864 17 z "},"Ḱ":{"ha":907,"x_min":42,"x_max":915,"o":"m 911 17 q 915 8 915 17 q 911 0 915 0 l 756 0 l 701 -1 q 668 7 682 -1 q 636 38 654 15 q 569 125 618 60 l 513 201 l 319 454 l 285 418 l 285 113 q 292 50 285 69 q 320 24 299 31 q 389 17 342 17 q 394 8 394 17 q 389 0 394 0 q 318 1 344 0 l 217 3 l 118 1 q 44 0 92 0 q 42 8 42 0 q 44 17 42 17 q 113 24 92 17 q 143 51 135 31 q 151 113 151 71 l 151 756 q 144 817 151 797 q 114 844 136 836 q 46 851 92 851 q 43 860 43 851 q 46 868 43 868 l 119 867 q 217 864 181 864 q 319 867 258 864 l 389 868 q 393 860 393 868 q 389 851 393 851 q 322 843 343 851 q 292 815 300 835 q 285 753 285 794 l 285 460 l 557 735 q 600 807 600 778 q 578 840 600 828 q 515 851 557 851 q 513 860 513 851 q 515 868 513 868 l 578 867 q 689 864 639 864 q 799 867 743 864 l 858 868 q 863 860 863 868 q 858 851 863 851 q 724 818 797 851 q 592 726 651 785 l 414 549 l 618 278 q 760 95 713 149 q 836 29 808 42 q 911 17 864 17 m 319 942 q 313 948 314 942 q 315 957 311 954 q 438 1044 360 983 q 507 1097 501 1093 q 551 1092 514 1103 q 617 1067 589 1081 q 631 1050 646 1053 q 473 1003 544 1029 q 322 943 401 978 l 319 942 z "},"Ǩ":{"ha":907,"x_min":42,"x_max":915,"o":"m 911 17 q 915 8 915 17 q 911 0 915 0 l 756 0 l 701 -1 q 668 7 682 -1 q 636 38 654 15 q 569 125 618 60 l 513 201 l 319 454 l 285 418 l 285 113 q 292 50 285 69 q 320 24 299 31 q 389 17 342 17 q 394 8 394 17 q 389 0 394 0 q 318 1 344 0 l 217 3 l 118 1 q 44 0 92 0 q 42 8 42 0 q 44 17 42 17 q 113 24 92 17 q 143 51 135 31 q 151 113 151 71 l 151 756 q 144 817 151 797 q 114 844 136 836 q 46 851 92 851 q 43 860 43 851 q 46 868 43 868 l 119 867 q 217 864 181 864 q 319 867 258 864 l 389 868 q 393 860 393 868 q 389 851 393 851 q 322 843 343 851 q 292 815 300 835 q 285 753 285 794 l 285 460 l 557 735 q 600 807 600 778 q 578 840 600 828 q 515 851 557 851 q 513 860 513 851 q 515 868 513 868 l 578 867 q 689 864 639 864 q 799 867 743 864 l 858 868 q 863 860 863 868 q 858 851 863 851 q 724 818 797 851 q 592 726 651 785 l 414 549 l 618 278 q 760 95 713 149 q 836 29 808 42 q 911 17 864 17 m 297 1106 l 297 1107 q 301 1115 297 1111 q 306 1115 304 1118 l 457 1053 l 607 1117 l 608 1117 q 615 1113 613 1117 q 614 1107 617 1110 l 472 954 q 457 949 467 949 q 440 954 446 949 l 297 1106 z "},"Ķ":{"ha":907,"x_min":42,"x_max":915,"o":"m 911 17 q 915 8 915 17 q 911 0 915 0 l 756 0 l 701 -1 q 668 7 682 -1 q 636 38 654 15 q 569 125 618 60 l 513 201 l 319 454 l 285 418 l 285 113 q 292 50 285 69 q 320 24 299 31 q 389 17 342 17 q 394 8 394 17 q 389 0 394 0 q 318 1 344 0 l 217 3 l 118 1 q 44 0 92 0 q 42 8 42 0 q 44 17 42 17 q 113 24 92 17 q 143 51 135 31 q 151 113 151 71 l 151 756 q 144 817 151 797 q 114 844 136 836 q 46 851 92 851 q 43 860 43 851 q 46 868 43 868 l 119 867 q 217 864 181 864 q 319 867 258 864 l 389 868 q 393 860 393 868 q 389 851 393 851 q 322 843 343 851 q 292 815 300 835 q 285 753 285 794 l 285 460 l 557 735 q 600 807 600 778 q 578 840 600 828 q 515 851 557 851 q 513 860 513 851 q 515 868 513 868 l 578 867 q 689 864 639 864 q 799 867 743 864 l 858 868 q 863 860 863 868 q 858 851 863 851 q 724 818 797 851 q 592 726 651 785 l 414 549 l 618 278 q 760 95 713 149 q 836 29 808 42 q 911 17 864 17 m 475 -103 q 543 -132 519 -103 q 567 -212 567 -161 q 541 -304 567 -264 q 468 -382 515 -344 l 465 -383 q 457 -378 460 -383 q 458 -369 454 -372 q 522 -265 522 -318 q 511 -222 522 -236 q 458 -246 496 -246 q 413 -226 431 -246 q 396 -175 396 -207 q 419 -122 396 -140 q 475 -103 442 -103 z "},"L":{"ha":751,"x_min":42,"x_max":728,"o":"m 283 118 q 290 64 283 81 q 314 42 296 47 q 372 36 332 36 l 456 36 q 622 91 554 36 q 713 239 690 146 q 721 242 714 243 q 728 238 728 242 q 715 21 715 107 q 711 5 715 10 q 694 0 707 0 l 44 0 q 42 8 42 0 q 44 17 42 17 q 113 24 92 17 q 142 51 135 31 q 150 113 150 71 l 150 756 q 142 817 150 797 q 113 844 135 836 q 44 851 90 851 q 42 860 42 851 q 44 868 42 868 l 115 867 q 215 864 176 864 q 318 867 257 864 l 388 868 q 392 860 392 868 q 388 851 392 851 q 320 844 342 851 q 291 816 299 836 q 283 754 283 796 l 283 118 z "},"Ĺ":{"ha":751,"x_min":42,"x_max":728,"o":"m 283 118 q 290 64 283 81 q 314 42 296 47 q 372 36 332 36 l 456 36 q 622 91 554 36 q 713 239 690 146 q 721 242 714 243 q 728 238 728 242 q 715 21 715 107 q 711 5 715 10 q 694 0 707 0 l 44 0 q 42 8 42 0 q 44 17 42 17 q 113 24 92 17 q 142 51 135 31 q 150 113 150 71 l 150 756 q 142 817 150 797 q 113 844 135 836 q 44 851 90 851 q 42 860 42 851 q 44 868 42 868 l 115 867 q 215 864 176 864 q 318 867 257 864 l 388 868 q 392 860 392 868 q 388 851 392 851 q 320 844 342 851 q 291 816 299 836 q 283 754 283 796 l 283 118 m 86 942 q 79 948 81 942 q 82 957 78 954 q 204 1044 126 983 q 274 1097 268 1093 q 318 1092 281 1103 q 384 1067 356 1081 q 397 1050 413 1053 q 240 1003 311 1029 q 89 943 168 978 l 86 942 z "},"Ľ":{"ha":751,"x_min":42,"x_max":728,"o":"m 283 118 q 290 64 283 81 q 314 42 296 47 q 372 36 332 36 l 456 36 q 622 91 554 36 q 713 239 690 146 q 721 242 714 243 q 728 238 728 242 q 715 21 715 107 q 711 5 715 10 q 694 0 707 0 l 44 0 q 42 8 42 0 q 44 17 42 17 q 113 24 92 17 q 142 51 135 31 q 150 113 150 71 l 150 756 q 142 817 150 797 q 113 844 135 836 q 44 851 90 851 q 42 860 42 851 q 44 868 42 868 l 115 867 q 215 864 176 864 q 318 867 257 864 l 388 868 q 392 860 392 868 q 388 851 392 851 q 320 844 342 851 q 291 816 299 836 q 283 754 283 796 l 283 118 m 490 868 q 516 867 490 875 q 565 844 542 858 q 586 819 588 829 l 517 489 q 508 487 515 486 q 501 490 501 488 l 490 868 z "},"Ļ":{"ha":751,"x_min":42,"x_max":728,"o":"m 283 118 q 290 64 283 81 q 314 42 296 47 q 372 36 332 36 l 456 36 q 622 91 554 36 q 713 239 690 146 q 721 242 714 243 q 728 238 728 242 q 715 21 715 107 q 711 5 715 10 q 694 0 707 0 l 44 0 q 42 8 42 0 q 44 17 42 17 q 113 24 92 17 q 142 51 135 31 q 150 113 150 71 l 150 756 q 142 817 150 797 q 113 844 135 836 q 44 851 90 851 q 42 860 42 851 q 44 868 42 868 l 115 867 q 215 864 176 864 q 318 867 257 864 l 388 868 q 392 860 392 868 q 388 851 392 851 q 320 844 342 851 q 291 816 299 836 q 283 754 283 796 l 283 118 m 400 -103 q 468 -132 444 -103 q 492 -212 492 -161 q 466 -304 492 -264 q 393 -382 440 -344 l 390 -383 q 382 -378 385 -383 q 383 -369 379 -372 q 447 -265 447 -318 q 436 -222 447 -236 q 383 -246 421 -246 q 338 -226 356 -246 q 321 -175 321 -207 q 344 -122 321 -140 q 400 -103 367 -103 z "},"Ŀ":{"ha":751,"x_min":42,"x_max":728,"o":"m 283 118 q 290 64 283 81 q 314 42 296 47 q 372 36 332 36 l 456 36 q 622 91 554 36 q 713 239 690 146 q 721 242 714 243 q 728 238 728 242 q 715 21 715 107 q 711 5 715 10 q 694 0 707 0 l 44 0 q 42 8 42 0 q 44 17 42 17 q 113 24 92 17 q 142 51 135 31 q 150 113 150 71 l 150 756 q 142 817 150 797 q 113 844 135 836 q 44 851 90 851 q 42 860 42 851 q 44 868 42 868 l 115 867 q 215 864 176 864 q 318 867 257 864 l 388 868 q 392 860 392 868 q 388 851 392 851 q 320 844 342 851 q 291 816 299 836 q 283 754 283 796 l 283 118 m 594 365 q 539 386 560 365 q 518 442 518 407 q 539 495 518 475 q 594 515 560 515 q 650 495 631 515 q 669 442 669 475 q 650 385 669 406 q 594 365 631 365 z "},"Ḷ":{"ha":751,"x_min":42,"x_max":728,"o":"m 283 118 q 290 64 283 81 q 314 42 296 47 q 372 36 332 36 l 456 36 q 622 91 554 36 q 713 239 690 146 q 721 242 714 243 q 728 238 728 242 q 715 21 715 107 q 711 5 715 10 q 694 0 707 0 l 44 0 q 42 8 42 0 q 44 17 42 17 q 113 24 92 17 q 142 51 135 31 q 150 113 150 71 l 150 756 q 142 817 150 797 q 113 844 135 836 q 44 851 90 851 q 42 860 42 851 q 44 868 42 868 l 115 867 q 215 864 176 864 q 318 867 257 864 l 388 868 q 392 860 392 868 q 388 851 392 851 q 320 844 342 851 q 291 816 299 836 q 283 754 283 796 l 283 118 m 410 -279 q 353 -260 374 -279 q 333 -204 333 -240 q 353 -151 333 -169 q 410 -132 374 -132 q 464 -151 444 -132 q 483 -204 483 -169 q 465 -260 483 -240 q 410 -279 446 -279 z "},"Ḹ":{"ha":751,"x_min":38,"x_max":728,"o":"m 283 118 q 290 64 283 81 q 314 42 296 47 q 372 36 332 36 l 456 36 q 622 91 554 36 q 713 239 690 146 q 721 242 714 243 q 728 238 728 242 q 715 21 715 107 q 711 5 715 10 q 694 0 707 0 l 44 0 q 42 8 42 0 q 44 17 42 17 q 113 24 92 17 q 142 51 135 31 q 150 113 150 71 l 150 756 q 142 817 150 797 q 113 844 135 836 q 44 851 90 851 q 42 860 42 851 q 44 868 42 868 l 115 867 q 215 864 176 864 q 318 867 257 864 l 388 868 q 392 860 392 868 q 388 851 392 851 q 320 844 342 851 q 291 816 299 836 q 283 754 283 796 l 283 118 m 410 -279 q 353 -260 374 -279 q 333 -204 333 -240 q 353 -151 333 -169 q 410 -132 374 -132 q 464 -151 444 -132 q 483 -204 483 -169 q 465 -260 483 -240 q 410 -279 446 -279 m 49 994 q 38 1018 38 994 q 49 1042 38 1042 l 397 1042 q 406 1035 403 1042 q 410 1018 410 1028 q 406 1001 410 1008 q 397 994 403 994 l 49 994 z "},"Ḻ":{"ha":751,"x_min":42,"x_max":728,"o":"m 283 118 q 290 64 283 81 q 314 42 296 47 q 372 36 332 36 l 456 36 q 622 91 554 36 q 713 239 690 146 q 721 242 714 243 q 728 238 728 242 q 715 21 715 107 q 711 5 715 10 q 694 0 707 0 l 44 0 q 42 8 42 0 q 44 17 42 17 q 113 24 92 17 q 142 51 135 31 q 150 113 150 71 l 150 756 q 142 817 150 797 q 113 844 135 836 q 44 851 90 851 q 42 860 42 851 q 44 868 42 868 l 115 867 q 215 864 176 864 q 318 867 257 864 l 388 868 q 392 860 392 868 q 388 851 392 851 q 320 844 342 851 q 291 816 299 836 q 283 754 283 796 l 283 118 m 233 -165 q 222 -142 222 -165 q 233 -118 222 -118 l 582 -118 q 591 -125 588 -118 q 594 -142 594 -132 q 591 -158 594 -151 q 582 -165 588 -165 l 233 -165 z "},"Ł":{"ha":747,"x_min":42,"x_max":728,"o":"m 713 239 q 721 242 714 243 q 728 238 728 242 q 715 21 715 107 q 711 5 715 10 q 694 0 707 0 l 44 0 q 42 8 42 0 q 44 17 42 17 q 113 24 92 17 q 142 51 135 31 q 150 113 150 71 l 150 350 l 78 308 l 76 308 q 62 323 69 308 q 60 339 54 338 l 150 390 l 150 756 q 142 817 150 797 q 113 844 135 836 q 44 851 90 851 q 42 860 42 851 q 44 868 42 868 l 115 867 q 215 864 176 864 q 318 867 257 864 l 388 868 q 392 860 392 868 q 388 851 392 851 q 320 844 342 851 q 291 816 299 836 q 283 754 283 796 l 283 468 l 436 556 l 438 556 q 451 541 443 556 q 453 525 458 526 l 283 428 l 283 118 q 290 64 283 81 q 314 42 296 47 q 372 36 332 36 l 456 36 q 622 91 554 36 q 713 239 690 146 z "},"M":{"ha":1181,"x_min":39,"x_max":1150,"o":"m 1147 17 q 1150 8 1150 17 q 1147 0 1150 0 q 1074 1 1101 0 l 974 3 l 876 1 q 806 0 851 0 q 803 8 803 0 q 806 17 803 17 q 888 31 867 17 q 908 89 908 44 l 907 113 l 879 701 l 583 10 q 572 4 581 4 q 560 10 565 4 l 213 696 l 200 168 q 228 56 199 94 q 318 17 258 17 q 322 8 322 17 q 318 0 322 0 q 260 1 281 0 l 183 3 l 101 1 q 43 0 81 0 q 39 8 39 0 q 43 17 39 17 q 131 56 100 17 q 164 168 163 94 l 176 765 q 122 831 151 810 q 53 851 92 851 q 49 860 49 851 q 53 868 49 868 l 113 867 q 160 865 131 865 l 225 867 q 253 868 236 868 q 282 855 271 868 q 317 796 293 842 l 622 200 l 899 833 q 917 860 907 853 q 940 868 926 868 q 965 867 950 868 q 1003 865 981 865 l 1078 867 q 1132 868 1096 868 q 1135 860 1135 868 q 1132 851 1135 851 q 1035 827 1065 851 q 1008 747 1006 803 l 1040 113 q 1051 50 1043 69 q 1079 24 1058 31 q 1147 17 1100 17 z "},"Ṁ":{"ha":1181,"x_min":39,"x_max":1150,"o":"m 1147 17 q 1150 8 1150 17 q 1147 0 1150 0 q 1074 1 1101 0 l 974 3 l 876 1 q 806 0 851 0 q 803 8 803 0 q 806 17 803 17 q 888 31 867 17 q 908 89 908 44 l 907 113 l 879 701 l 583 10 q 572 4 581 4 q 560 10 565 4 l 213 696 l 200 168 q 228 56 199 94 q 318 17 258 17 q 322 8 322 17 q 318 0 322 0 q 260 1 281 0 l 183 3 l 101 1 q 43 0 81 0 q 39 8 39 0 q 43 17 39 17 q 131 56 100 17 q 164 168 163 94 l 176 765 q 122 831 151 810 q 53 851 92 851 q 49 860 49 851 q 53 868 49 868 l 113 867 q 160 865 131 865 l 225 867 q 253 868 236 868 q 282 855 271 868 q 317 796 293 842 l 622 200 l 899 833 q 917 860 907 853 q 940 868 926 868 q 965 867 950 868 q 1003 865 981 865 l 1078 867 q 1132 868 1096 868 q 1135 860 1135 868 q 1132 851 1135 851 q 1035 827 1065 851 q 1008 747 1006 803 l 1040 113 q 1051 50 1043 69 q 1079 24 1058 31 q 1147 17 1100 17 m 592 990 q 535 1010 556 990 q 515 1067 515 1031 q 535 1120 515 1100 q 592 1140 556 1140 q 646 1120 626 1140 q 665 1067 665 1100 q 646 1010 665 1031 q 592 990 626 990 z "},"Ṃ":{"ha":1181,"x_min":39,"x_max":1150,"o":"m 1147 17 q 1150 8 1150 17 q 1147 0 1150 0 q 1074 1 1101 0 l 974 3 l 876 1 q 806 0 851 0 q 803 8 803 0 q 806 17 803 17 q 888 31 867 17 q 908 89 908 44 l 907 113 l 879 701 l 583 10 q 572 4 581 4 q 560 10 565 4 l 213 696 l 200 168 q 228 56 199 94 q 318 17 258 17 q 322 8 322 17 q 318 0 322 0 q 260 1 281 0 l 183 3 l 101 1 q 43 0 81 0 q 39 8 39 0 q 43 17 39 17 q 131 56 100 17 q 164 168 163 94 l 176 765 q 122 831 151 810 q 53 851 92 851 q 49 860 49 851 q 53 868 49 868 l 113 867 q 160 865 131 865 l 225 867 q 253 868 236 868 q 282 855 271 868 q 317 796 293 842 l 622 200 l 899 833 q 917 860 907 853 q 940 868 926 868 q 965 867 950 868 q 1003 865 981 865 l 1078 867 q 1132 868 1096 868 q 1135 860 1135 868 q 1132 851 1135 851 q 1035 827 1065 851 q 1008 747 1006 803 l 1040 113 q 1051 50 1043 69 q 1079 24 1058 31 q 1147 17 1100 17 m 578 -279 q 522 -260 542 -279 q 501 -204 501 -240 q 522 -151 501 -169 q 578 -132 542 -132 q 632 -151 613 -132 q 651 -204 651 -169 q 633 -260 651 -240 q 578 -279 614 -279 z "},"N":{"ha":1017,"x_min":36,"x_max":999,"o":"m 996 868 q 999 860 999 868 q 996 851 999 851 q 910 812 940 851 q 879 699 879 772 l 879 -19 q 872 -25 879 -24 q 863 -24 865 -26 l 211 733 l 211 168 q 240 56 211 94 q 325 17 269 17 q 328 8 328 17 q 325 0 328 0 q 268 1 288 0 l 194 3 l 113 1 q 49 0 90 0 q 44 8 44 0 q 49 17 44 17 q 141 56 108 17 q 174 168 174 94 l 174 776 q 103 835 135 818 q 39 851 72 851 q 36 860 36 851 q 39 868 36 868 l 94 867 q 146 865 113 865 l 235 867 q 275 868 251 868 q 292 863 286 868 q 308 840 297 857 q 343 796 332 808 l 842 207 l 842 699 q 813 812 842 772 q 729 851 783 851 q 726 860 726 851 q 729 868 726 868 l 786 867 q 860 864 831 864 q 935 867 888 864 l 996 868 z "},"Ń":{"ha":1017,"x_min":36,"x_max":999,"o":"m 996 868 q 999 860 999 868 q 996 851 999 851 q 910 812 940 851 q 879 699 879 772 l 879 -19 q 872 -25 879 -24 q 863 -24 865 -26 l 211 733 l 211 168 q 240 56 211 94 q 325 17 269 17 q 328 8 328 17 q 325 0 328 0 q 268 1 288 0 l 194 3 l 113 1 q 49 0 90 0 q 44 8 44 0 q 49 17 44 17 q 141 56 108 17 q 174 168 174 94 l 174 776 q 103 835 135 818 q 39 851 72 851 q 36 860 36 851 q 39 868 36 868 l 94 867 q 146 865 113 865 l 235 867 q 275 868 251 868 q 292 863 286 868 q 308 840 297 857 q 343 796 332 808 l 842 207 l 842 699 q 813 812 842 772 q 729 851 783 851 q 726 860 726 851 q 729 868 726 868 l 786 867 q 860 864 831 864 q 935 867 888 864 l 996 868 m 390 942 q 383 948 385 942 q 386 957 382 954 q 508 1044 431 983 q 578 1097 572 1093 q 622 1092 585 1103 q 688 1067 660 1081 q 701 1050 717 1053 q 544 1003 615 1029 q 393 943 472 978 l 390 942 z "},"Ň":{"ha":1017,"x_min":36,"x_max":999,"o":"m 996 868 q 999 860 999 868 q 996 851 999 851 q 910 812 940 851 q 879 699 879 772 l 879 -19 q 872 -25 879 -24 q 863 -24 865 -26 l 211 733 l 211 168 q 240 56 211 94 q 325 17 269 17 q 328 8 328 17 q 325 0 328 0 q 268 1 288 0 l 194 3 l 113 1 q 49 0 90 0 q 44 8 44 0 q 49 17 44 17 q 141 56 108 17 q 174 168 174 94 l 174 776 q 103 835 135 818 q 39 851 72 851 q 36 860 36 851 q 39 868 36 868 l 94 867 q 146 865 113 865 l 235 867 q 275 868 251 868 q 292 863 286 868 q 308 840 297 857 q 343 796 332 808 l 842 207 l 842 699 q 813 812 842 772 q 729 851 783 851 q 726 860 726 851 q 729 868 726 868 l 786 867 q 860 864 831 864 q 935 867 888 864 l 996 868 m 368 1106 l 368 1107 q 372 1115 368 1111 q 376 1115 375 1118 l 528 1053 l 678 1117 l 679 1117 q 685 1113 683 1117 q 685 1107 688 1110 l 543 954 q 528 949 538 949 q 511 954 517 949 l 368 1106 z "},"Ņ":{"ha":1017,"x_min":36,"x_max":999,"o":"m 996 868 q 999 860 999 868 q 996 851 999 851 q 910 812 940 851 q 879 699 879 772 l 879 -19 q 872 -25 879 -24 q 863 -24 865 -26 l 211 733 l 211 168 q 240 56 211 94 q 325 17 269 17 q 328 8 328 17 q 325 0 328 0 q 268 1 288 0 l 194 3 l 113 1 q 49 0 90 0 q 44 8 44 0 q 49 17 44 17 q 141 56 108 17 q 174 168 174 94 l 174 776 q 103 835 135 818 q 39 851 72 851 q 36 860 36 851 q 39 868 36 868 l 94 867 q 146 865 113 865 l 235 867 q 275 868 251 868 q 292 863 286 868 q 308 840 297 857 q 343 796 332 808 l 842 207 l 842 699 q 813 812 842 772 q 729 851 783 851 q 726 860 726 851 q 729 868 726 868 l 786 867 q 860 864 831 864 q 935 867 888 864 l 996 868 m 511 -103 q 579 -132 556 -103 q 603 -212 603 -161 q 577 -304 603 -264 q 504 -382 551 -344 l 501 -383 q 493 -378 496 -383 q 494 -369 490 -372 q 558 -265 558 -318 q 547 -222 558 -236 q 494 -246 532 -246 q 449 -226 467 -246 q 432 -175 432 -207 q 455 -122 432 -140 q 511 -103 478 -103 z "},"Ṅ":{"ha":1017,"x_min":36,"x_max":999,"o":"m 996 868 q 999 860 999 868 q 996 851 999 851 q 910 812 940 851 q 879 699 879 772 l 879 -19 q 872 -25 879 -24 q 863 -24 865 -26 l 211 733 l 211 168 q 240 56 211 94 q 325 17 269 17 q 328 8 328 17 q 325 0 328 0 q 268 1 288 0 l 194 3 l 113 1 q 49 0 90 0 q 44 8 44 0 q 49 17 44 17 q 141 56 108 17 q 174 168 174 94 l 174 776 q 103 835 135 818 q 39 851 72 851 q 36 860 36 851 q 39 868 36 868 l 94 867 q 146 865 113 865 l 235 867 q 275 868 251 868 q 292 863 286 868 q 308 840 297 857 q 343 796 332 808 l 842 207 l 842 699 q 813 812 842 772 q 729 851 783 851 q 726 860 726 851 q 729 868 726 868 l 786 867 q 860 864 831 864 q 935 867 888 864 l 996 868 m 529 990 q 473 1010 493 990 q 453 1067 453 1031 q 473 1120 453 1100 q 529 1140 493 1140 q 583 1120 564 1140 q 603 1067 603 1100 q 583 1010 603 1031 q 529 990 564 990 z "},"Ṇ":{"ha":1017,"x_min":36,"x_max":999,"o":"m 996 868 q 999 860 999 868 q 996 851 999 851 q 910 812 940 851 q 879 699 879 772 l 879 -19 q 872 -25 879 -24 q 863 -24 865 -26 l 211 733 l 211 168 q 240 56 211 94 q 325 17 269 17 q 328 8 328 17 q 325 0 328 0 q 268 1 288 0 l 194 3 l 113 1 q 49 0 90 0 q 44 8 44 0 q 49 17 44 17 q 141 56 108 17 q 174 168 174 94 l 174 776 q 103 835 135 818 q 39 851 72 851 q 36 860 36 851 q 39 868 36 868 l 94 867 q 146 865 113 865 l 235 867 q 275 868 251 868 q 292 863 286 868 q 308 840 297 857 q 343 796 332 808 l 842 207 l 842 699 q 813 812 842 772 q 729 851 783 851 q 726 860 726 851 q 729 868 726 868 l 786 867 q 860 864 831 864 q 935 867 888 864 l 996 868 m 521 -279 q 465 -260 485 -279 q 444 -204 444 -240 q 465 -151 444 -169 q 521 -132 485 -132 q 575 -151 556 -132 q 594 -204 594 -169 q 576 -260 594 -240 q 521 -279 557 -279 z "},"Ŋ":{"ha":1017,"x_min":36,"x_max":999,"o":"m 996 868 q 999 860 999 868 q 996 851 999 851 q 910 812 940 851 q 879 699 879 772 l 879 -19 q 831 -200 879 -135 q 697 -265 783 -265 q 599 -241 636 -265 q 561 -179 561 -217 q 578 -131 561 -150 q 625 -112 596 -112 q 672 -129 660 -112 q 690 -179 683 -146 q 703 -217 694 -204 q 732 -231 711 -231 q 813 -174 783 -231 q 842 -21 842 -117 l 842 0 l 211 733 l 211 168 q 240 56 211 94 q 325 17 269 17 q 328 8 328 17 q 325 0 328 0 q 268 1 288 0 l 194 3 l 113 1 q 49 0 90 0 q 44 8 44 0 q 49 17 44 17 q 141 56 108 17 q 174 168 174 94 l 174 776 q 103 835 135 818 q 39 851 72 851 q 36 860 36 851 q 39 868 36 868 l 94 867 q 146 865 113 865 l 235 867 q 275 868 251 868 q 292 863 286 868 q 308 840 297 857 q 343 796 332 808 l 842 207 l 842 699 q 813 812 842 772 q 729 851 783 851 q 726 860 726 851 q 729 868 726 868 l 786 867 q 860 864 831 864 q 935 867 888 864 l 996 868 z "},"Ṉ":{"ha":1017,"x_min":36,"x_max":999,"o":"m 996 868 q 999 860 999 868 q 996 851 999 851 q 910 812 940 851 q 879 699 879 772 l 879 -19 q 872 -25 879 -24 q 863 -24 865 -26 l 211 733 l 211 168 q 240 56 211 94 q 325 17 269 17 q 328 8 328 17 q 325 0 328 0 q 268 1 288 0 l 194 3 l 113 1 q 49 0 90 0 q 44 8 44 0 q 49 17 44 17 q 141 56 108 17 q 174 168 174 94 l 174 776 q 103 835 135 818 q 39 851 72 851 q 36 860 36 851 q 39 868 36 868 l 94 867 q 146 865 113 865 l 235 867 q 275 868 251 868 q 292 863 286 868 q 308 840 297 857 q 343 796 332 808 l 842 207 l 842 699 q 813 812 842 772 q 729 851 783 851 q 726 860 726 851 q 729 868 726 868 l 786 867 q 860 864 831 864 q 935 867 888 864 l 996 868 m 344 -165 q 333 -142 333 -165 q 344 -118 333 -118 l 693 -118 q 702 -125 699 -118 q 706 -142 706 -132 q 702 -158 706 -151 q 693 -165 699 -165 l 344 -165 z "},"Ñ":{"ha":1017,"x_min":36,"x_max":999,"o":"m 996 868 q 999 860 999 868 q 996 851 999 851 q 910 812 940 851 q 879 699 879 772 l 879 -19 q 872 -25 879 -24 q 863 -24 865 -26 l 211 733 l 211 168 q 240 56 211 94 q 325 17 269 17 q 328 8 328 17 q 325 0 328 0 q 268 1 288 0 l 194 3 l 113 1 q 49 0 90 0 q 44 8 44 0 q 49 17 44 17 q 141 56 108 17 q 174 168 174 94 l 174 776 q 103 835 135 818 q 39 851 72 851 q 36 860 36 851 q 39 868 36 868 l 94 867 q 146 865 113 865 l 235 867 q 275 868 251 868 q 292 863 286 868 q 308 840 297 857 q 343 796 332 808 l 842 207 l 842 699 q 813 812 842 772 q 729 851 783 851 q 726 860 726 851 q 729 868 726 868 l 786 867 q 860 864 831 864 q 935 867 888 864 l 996 868 m 639 1049 q 677 1057 663 1049 q 708 1086 692 1065 l 710 1086 q 717 1083 714 1086 q 718 1076 721 1079 q 658 993 682 1014 q 606 972 635 972 q 558 979 583 972 q 525 988 532 986 q 476 1000 501 994 q 429 1006 451 1006 q 394 999 406 1006 q 372 983 382 993 q 358 968 363 972 l 357 968 q 349 972 353 968 q 349 978 346 975 q 469 1082 408 1082 q 535 1068 485 1082 q 639 1049 599 1049 z "},"O":{"ha":1064,"x_min":68,"x_max":996,"o":"m 508 -17 q 278 44 379 -17 q 123 208 178 104 q 68 433 68 311 q 140 678 68 576 q 326 832 213 781 q 557 883 439 883 q 789 822 689 883 q 942 658 889 760 q 996 443 996 557 q 929 211 996 317 q 751 44 863 106 q 508 -17 639 -17 m 556 17 q 705 62 639 17 q 809 194 771 107 q 847 403 847 282 q 805 632 847 531 q 684 790 763 733 q 500 847 606 847 q 291 751 365 847 q 217 483 217 654 q 260 244 217 351 q 381 77 304 138 q 556 17 458 17 z "},"Ó":{"ha":1064,"x_min":68,"x_max":996,"o":"m 508 -17 q 278 44 379 -17 q 123 208 178 104 q 68 433 68 311 q 140 678 68 576 q 326 832 213 781 q 557 883 439 883 q 789 822 689 883 q 942 658 889 760 q 996 443 996 557 q 929 211 996 317 q 751 44 863 106 q 508 -17 639 -17 m 556 17 q 705 62 639 17 q 809 194 771 107 q 847 403 847 282 q 805 632 847 531 q 684 790 763 733 q 500 847 606 847 q 291 751 365 847 q 217 483 217 654 q 260 244 217 351 q 381 77 304 138 q 556 17 458 17 m 400 942 q 393 948 394 942 q 396 957 392 954 q 518 1044 440 983 q 588 1097 582 1093 q 632 1092 594 1103 q 698 1067 669 1081 q 711 1050 726 1053 q 553 1003 625 1029 q 403 943 482 978 l 400 942 z "},"Ŏ":{"ha":1064,"x_min":68,"x_max":996,"o":"m 508 -17 q 278 44 379 -17 q 123 208 178 104 q 68 433 68 311 q 140 678 68 576 q 326 832 213 781 q 557 883 439 883 q 789 822 689 883 q 942 658 889 760 q 996 443 996 557 q 929 211 996 317 q 751 44 863 106 q 508 -17 639 -17 m 556 17 q 705 62 639 17 q 809 194 771 107 q 847 403 847 282 q 805 632 847 531 q 684 790 763 733 q 500 847 606 847 q 291 751 365 847 q 217 483 217 654 q 260 244 217 351 q 381 77 304 138 q 556 17 458 17 m 538 958 q 434 1001 471 958 q 394 1125 397 1044 q 401 1131 394 1131 q 410 1128 408 1131 q 450 1074 413 1099 q 538 1050 488 1050 q 624 1074 586 1050 q 664 1128 661 1099 q 672 1131 664 1132 q 679 1125 679 1131 q 640 1001 676 1044 q 538 958 604 958 z "},"Ǒ":{"ha":1064,"x_min":68,"x_max":996,"o":"m 508 -17 q 278 44 379 -17 q 123 208 178 104 q 68 433 68 311 q 140 678 68 576 q 326 832 213 781 q 557 883 439 883 q 789 822 689 883 q 942 658 889 760 q 996 443 996 557 q 929 211 996 317 q 751 44 863 106 q 508 -17 639 -17 m 556 17 q 705 62 639 17 q 809 194 771 107 q 847 403 847 282 q 805 632 847 531 q 684 790 763 733 q 500 847 606 847 q 291 751 365 847 q 217 483 217 654 q 260 244 217 351 q 381 77 304 138 q 556 17 458 17 m 378 1106 l 378 1107 q 381 1115 378 1111 q 386 1115 385 1118 l 538 1053 l 688 1117 l 689 1117 q 695 1113 693 1117 q 694 1107 697 1110 l 553 954 q 538 949 547 949 q 521 954 526 949 l 378 1106 z "},"Ô":{"ha":1064,"x_min":68,"x_max":996,"o":"m 508 -17 q 278 44 379 -17 q 123 208 178 104 q 68 433 68 311 q 140 678 68 576 q 326 832 213 781 q 557 883 439 883 q 789 822 689 883 q 942 658 889 760 q 996 443 996 557 q 929 211 996 317 q 751 44 863 106 q 508 -17 639 -17 m 556 17 q 705 62 639 17 q 809 194 771 107 q 847 403 847 282 q 805 632 847 531 q 684 790 763 733 q 500 847 606 847 q 291 751 365 847 q 217 483 217 654 q 260 244 217 351 q 381 77 304 138 q 556 17 458 17 m 522 1124 q 539 1131 529 1131 q 554 1124 547 1131 l 696 971 q 697 968 697 971 q 694 963 697 965 q 689 961 690 960 l 539 1024 l 388 961 q 381 965 385 960 q 379 971 376 969 l 522 1124 z "},"Ố":{"ha":1064,"x_min":68,"x_max":996,"o":"m 508 -17 q 278 44 379 -17 q 123 208 178 104 q 68 433 68 311 q 140 678 68 576 q 326 832 213 781 q 557 883 439 883 q 789 822 689 883 q 942 658 889 760 q 996 443 996 557 q 929 211 996 317 q 751 44 863 106 q 508 -17 639 -17 m 556 17 q 705 62 639 17 q 809 194 771 107 q 847 403 847 282 q 805 632 847 531 q 684 790 763 733 q 500 847 606 847 q 291 751 365 847 q 217 483 217 654 q 260 244 217 351 q 381 77 304 138 q 556 17 458 17 m 521 1063 q 536 1069 528 1069 q 553 1063 546 1069 l 694 910 q 696 907 696 910 q 692 901 696 904 q 688 900 689 899 l 538 963 l 386 900 q 379 903 383 899 q 378 910 375 908 l 521 1063 m 628 1028 q 624 1026 626 1026 q 617 1032 619 1026 q 617 1040 614 1038 q 706 1182 667 1110 q 747 1179 710 1189 q 815 1154 785 1169 q 831 1135 844 1139 q 727 1088 774 1114 q 628 1028 681 1063 z "},"Ộ":{"ha":1064,"x_min":68,"x_max":996,"o":"m 508 -17 q 278 44 379 -17 q 123 208 178 104 q 68 433 68 311 q 140 678 68 576 q 326 832 213 781 q 557 883 439 883 q 789 822 689 883 q 942 658 889 760 q 996 443 996 557 q 929 211 996 317 q 751 44 863 106 q 508 -17 639 -17 m 556 17 q 705 62 639 17 q 809 194 771 107 q 847 403 847 282 q 805 632 847 531 q 684 790 763 733 q 500 847 606 847 q 291 751 365 847 q 217 483 217 654 q 260 244 217 351 q 381 77 304 138 q 556 17 458 17 m 550 -279 q 494 -260 514 -279 q 474 -204 474 -240 q 494 -151 474 -169 q 550 -132 514 -132 q 604 -151 585 -132 q 624 -204 624 -169 q 605 -260 624 -240 q 550 -279 586 -279 m 521 1063 q 536 1069 528 1069 q 553 1063 546 1069 l 694 910 q 696 907 696 910 q 692 901 696 904 q 688 900 689 899 l 538 963 l 386 900 q 379 903 383 899 q 378 910 375 908 l 521 1063 z "},"Ồ":{"ha":1064,"x_min":68,"x_max":996,"o":"m 508 -17 q 278 44 379 -17 q 123 208 178 104 q 68 433 68 311 q 140 678 68 576 q 326 832 213 781 q 557 883 439 883 q 789 822 689 883 q 942 658 889 760 q 996 443 996 557 q 929 211 996 317 q 751 44 863 106 q 508 -17 639 -17 m 556 17 q 705 62 639 17 q 809 194 771 107 q 847 403 847 282 q 805 632 847 531 q 684 790 763 733 q 500 847 606 847 q 291 751 365 847 q 217 483 217 654 q 260 244 217 351 q 381 77 304 138 q 556 17 458 17 m 521 1063 q 536 1069 528 1069 q 553 1063 546 1069 l 694 910 q 696 907 696 910 q 692 901 696 904 q 688 900 689 899 l 538 963 l 386 900 q 379 903 383 899 q 378 910 375 908 l 521 1063 m 756 999 q 658 1058 703 1033 q 557 1106 613 1083 q 572 1125 543 1110 q 639 1150 601 1140 q 681 1153 676 1160 q 767 1013 729 1067 q 768 1007 768 1011 q 765 1000 768 1003 q 756 999 761 997 z "},"Ổ":{"ha":1064,"x_min":68,"x_max":996,"o":"m 508 -17 q 278 44 379 -17 q 123 208 178 104 q 68 433 68 311 q 140 678 68 576 q 326 832 213 781 q 557 883 439 883 q 789 822 689 883 q 942 658 889 760 q 996 443 996 557 q 929 211 996 317 q 751 44 863 106 q 508 -17 639 -17 m 556 17 q 705 62 639 17 q 809 194 771 107 q 847 403 847 282 q 805 632 847 531 q 684 790 763 733 q 500 847 606 847 q 291 751 365 847 q 217 483 217 654 q 260 244 217 351 q 381 77 304 138 q 556 17 458 17 m 521 1063 q 536 1069 528 1069 q 553 1063 546 1069 l 694 910 q 696 907 696 910 q 692 901 696 904 q 688 900 689 899 l 538 963 l 386 900 q 379 903 383 899 q 378 910 375 908 l 521 1063 m 657 1010 q 654 1028 654 1024 q 659 1055 654 1040 q 669 1082 664 1069 q 685 1132 685 1113 q 672 1164 685 1153 q 642 1175 658 1175 q 614 1169 631 1175 l 611 1168 q 604 1173 607 1168 q 604 1181 601 1178 q 689 1206 644 1206 q 742 1188 722 1206 q 763 1146 763 1171 q 750 1110 763 1126 q 714 1074 738 1094 q 681 1039 692 1053 q 672 1010 671 1025 q 666 1006 674 1007 q 657 1010 658 1006 z "},"Ỗ":{"ha":1064,"x_min":68,"x_max":996,"o":"m 508 -17 q 278 44 379 -17 q 123 208 178 104 q 68 433 68 311 q 140 678 68 576 q 326 832 213 781 q 557 883 439 883 q 789 822 689 883 q 942 658 889 760 q 996 443 996 557 q 929 211 996 317 q 751 44 863 106 q 508 -17 639 -17 m 556 17 q 705 62 639 17 q 809 194 771 107 q 847 403 847 282 q 805 632 847 531 q 684 790 763 733 q 500 847 606 847 q 291 751 365 847 q 217 483 217 654 q 260 244 217 351 q 381 77 304 138 q 556 17 458 17 m 521 1063 q 536 1069 528 1069 q 553 1063 546 1069 l 694 910 q 696 907 696 910 q 692 901 696 904 q 688 900 689 899 l 538 963 l 386 900 q 379 903 383 899 q 378 910 375 908 l 521 1063 m 653 1165 q 690 1174 675 1165 q 722 1203 706 1183 l 725 1204 q 731 1200 728 1204 q 732 1193 733 1196 q 672 1111 696 1132 q 618 1090 649 1090 q 539 1106 590 1090 q 490 1118 515 1113 q 442 1124 464 1124 q 404 1116 415 1124 q 372 1086 393 1108 l 371 1086 q 363 1090 367 1086 q 363 1096 360 1093 q 482 1200 424 1200 q 550 1186 497 1200 q 653 1165 618 1165 z "},"Ö":{"ha":1064,"x_min":68,"x_max":996,"o":"m 508 -17 q 278 44 379 -17 q 123 208 178 104 q 68 433 68 311 q 140 678 68 576 q 326 832 213 781 q 557 883 439 883 q 789 822 689 883 q 942 658 889 760 q 996 443 996 557 q 929 211 996 317 q 751 44 863 106 q 508 -17 639 -17 m 556 17 q 705 62 639 17 q 809 194 771 107 q 847 403 847 282 q 805 632 847 531 q 684 790 763 733 q 500 847 606 847 q 291 751 365 847 q 217 483 217 654 q 260 244 217 351 q 381 77 304 138 q 556 17 458 17 m 418 983 q 366 1001 385 983 q 347 1053 347 1019 q 366 1102 347 1085 q 418 1119 385 1119 q 467 1102 450 1119 q 485 1053 485 1085 q 467 1001 485 1019 q 418 983 450 983 m 660 983 q 609 1001 628 983 q 590 1053 590 1019 q 609 1101 590 1083 q 660 1119 628 1119 q 710 1102 692 1119 q 728 1053 728 1085 q 710 1001 728 1019 q 660 983 692 983 z "},"Ọ":{"ha":1064,"x_min":68,"x_max":996,"o":"m 508 -17 q 278 44 379 -17 q 123 208 178 104 q 68 433 68 311 q 140 678 68 576 q 326 832 213 781 q 557 883 439 883 q 789 822 689 883 q 942 658 889 760 q 996 443 996 557 q 929 211 996 317 q 751 44 863 106 q 508 -17 639 -17 m 556 17 q 705 62 639 17 q 809 194 771 107 q 847 403 847 282 q 805 632 847 531 q 684 790 763 733 q 500 847 606 847 q 291 751 365 847 q 217 483 217 654 q 260 244 217 351 q 381 77 304 138 q 556 17 458 17 m 550 -279 q 494 -260 514 -279 q 474 -204 474 -240 q 494 -151 474 -169 q 550 -132 514 -132 q 604 -151 585 -132 q 624 -204 624 -169 q 605 -260 624 -240 q 550 -279 586 -279 z "},"Ò":{"ha":1064,"x_min":68,"x_max":996,"o":"m 508 -17 q 278 44 379 -17 q 123 208 178 104 q 68 433 68 311 q 140 678 68 576 q 326 832 213 781 q 557 883 439 883 q 789 822 689 883 q 942 658 889 760 q 996 443 996 557 q 929 211 996 317 q 751 44 863 106 q 508 -17 639 -17 m 556 17 q 705 62 639 17 q 809 194 771 107 q 847 403 847 282 q 805 632 847 531 q 684 790 763 733 q 500 847 606 847 q 291 751 365 847 q 217 483 217 654 q 260 244 217 351 q 381 77 304 138 q 556 17 458 17 m 676 943 q 367 1050 519 1013 q 381 1067 353 1053 q 447 1092 410 1081 q 490 1097 483 1103 q 553 1050 532 1067 q 682 957 638 986 q 685 951 685 956 q 682 944 685 947 q 676 943 679 942 z "},"Ỏ":{"ha":1064,"x_min":68,"x_max":996,"o":"m 508 -17 q 278 44 379 -17 q 123 208 178 104 q 68 433 68 311 q 140 678 68 576 q 326 832 213 781 q 557 883 439 883 q 789 822 689 883 q 942 658 889 760 q 996 443 996 557 q 929 211 996 317 q 751 44 863 106 q 508 -17 639 -17 m 556 17 q 705 62 639 17 q 809 194 771 107 q 847 403 847 282 q 805 632 847 531 q 684 790 763 733 q 500 847 606 847 q 291 751 365 847 q 217 483 217 654 q 260 244 217 351 q 381 77 304 138 q 556 17 458 17 m 540 904 q 533 901 540 901 q 524 904 525 901 q 521 935 521 915 q 526 975 521 957 q 544 1019 532 993 q 565 1092 565 1061 q 519 1143 565 1143 q 474 1131 496 1143 l 472 1131 q 463 1135 467 1131 q 464 1142 460 1140 q 569 1178 508 1178 q 638 1158 613 1178 q 664 1106 664 1138 q 647 1053 664 1078 q 597 999 629 1029 q 553 947 567 967 q 540 904 539 926 z "},"Ơ":{"ha":1064,"x_min":68,"x_max":1029,"o":"m 1029 918 q 986 824 1029 863 q 871 756 943 786 q 963 612 931 693 q 996 443 996 531 q 929 211 996 317 q 751 44 863 106 q 508 -17 639 -17 q 278 44 379 -17 q 123 208 178 104 q 68 433 68 311 q 140 678 68 576 q 326 832 213 781 q 557 883 439 883 q 723 853 647 883 q 856 771 799 824 q 929 847 929 806 q 917 876 929 861 q 904 897 908 888 q 900 922 900 907 q 920 970 900 953 q 967 988 940 988 q 1013 967 997 988 q 1029 918 1029 946 m 556 17 q 705 62 639 17 q 809 194 771 107 q 847 403 847 282 q 805 632 847 531 q 684 790 763 733 q 500 847 606 847 q 291 751 365 847 q 217 483 217 654 q 260 244 217 351 q 381 77 304 138 q 556 17 458 17 z "},"Ớ":{"ha":1064,"x_min":68,"x_max":1029,"o":"m 1029 918 q 986 824 1029 863 q 871 756 943 786 q 963 612 931 693 q 996 443 996 531 q 929 211 996 317 q 751 44 863 106 q 508 -17 639 -17 q 278 44 379 -17 q 123 208 178 104 q 68 433 68 311 q 140 678 68 576 q 326 832 213 781 q 557 883 439 883 q 723 853 647 883 q 856 771 799 824 q 929 847 929 806 q 917 876 929 861 q 904 897 908 888 q 900 922 900 907 q 920 970 900 953 q 967 988 940 988 q 1013 967 997 988 q 1029 918 1029 946 m 556 17 q 705 62 639 17 q 809 194 771 107 q 847 403 847 282 q 805 632 847 531 q 684 790 763 733 q 500 847 606 847 q 291 751 365 847 q 217 483 217 654 q 260 244 217 351 q 381 77 304 138 q 556 17 458 17 m 397 942 q 390 948 392 942 q 392 957 388 954 q 522 1050 438 986 q 583 1097 542 1067 q 628 1092 590 1103 q 694 1067 665 1081 q 707 1050 722 1053 q 399 942 543 1008 l 397 942 z "},"Ợ":{"ha":1064,"x_min":68,"x_max":1029,"o":"m 1029 918 q 986 824 1029 863 q 871 756 943 786 q 963 612 931 693 q 996 443 996 531 q 929 211 996 317 q 751 44 863 106 q 508 -17 639 -17 q 278 44 379 -17 q 123 208 178 104 q 68 433 68 311 q 140 678 68 576 q 326 832 213 781 q 557 883 439 883 q 723 853 647 883 q 856 771 799 824 q 929 847 929 806 q 917 876 929 861 q 904 897 908 888 q 900 922 900 907 q 920 970 900 953 q 967 988 940 988 q 1013 967 997 988 q 1029 918 1029 946 m 556 17 q 705 62 639 17 q 809 194 771 107 q 847 403 847 282 q 805 632 847 531 q 684 790 763 733 q 500 847 606 847 q 291 751 365 847 q 217 483 217 654 q 260 244 217 351 q 381 77 304 138 q 556 17 458 17 m 535 -279 q 478 -260 499 -279 q 458 -204 458 -240 q 478 -151 458 -169 q 535 -132 499 -132 q 589 -151 569 -132 q 608 -204 608 -169 q 590 -260 608 -240 q 535 -279 571 -279 z "},"Ờ":{"ha":1064,"x_min":68,"x_max":1029,"o":"m 1029 918 q 986 824 1029 863 q 871 756 943 786 q 963 612 931 693 q 996 443 996 531 q 929 211 996 317 q 751 44 863 106 q 508 -17 639 -17 q 278 44 379 -17 q 123 208 178 104 q 68 433 68 311 q 140 678 68 576 q 326 832 213 781 q 557 883 439 883 q 723 853 647 883 q 856 771 799 824 q 929 847 929 806 q 917 876 929 861 q 904 897 908 888 q 900 922 900 907 q 920 970 900 953 q 967 988 940 988 q 1013 967 997 988 q 1029 918 1029 946 m 556 17 q 705 62 639 17 q 809 194 771 107 q 847 403 847 282 q 805 632 847 531 q 684 790 763 733 q 500 847 606 847 q 291 751 365 847 q 217 483 217 654 q 260 244 217 351 q 381 77 304 138 q 556 17 458 17 m 672 943 q 363 1050 515 1013 q 377 1067 349 1053 q 442 1092 406 1081 q 486 1097 479 1103 q 549 1050 528 1067 q 678 957 633 986 q 681 951 681 956 q 678 944 681 947 q 672 943 675 942 z "},"Ở":{"ha":1064,"x_min":68,"x_max":1029,"o":"m 1029 918 q 986 824 1029 863 q 871 756 943 786 q 963 612 931 693 q 996 443 996 531 q 929 211 996 317 q 751 44 863 106 q 508 -17 639 -17 q 278 44 379 -17 q 123 208 178 104 q 68 433 68 311 q 140 678 68 576 q 326 832 213 781 q 557 883 439 883 q 723 853 647 883 q 856 771 799 824 q 929 847 929 806 q 917 876 929 861 q 904 897 908 888 q 900 922 900 907 q 920 970 900 953 q 967 988 940 988 q 1013 967 997 988 q 1029 918 1029 946 m 556 17 q 705 62 639 17 q 809 194 771 107 q 847 403 847 282 q 805 632 847 531 q 684 790 763 733 q 500 847 606 847 q 291 751 365 847 q 217 483 217 654 q 260 244 217 351 q 381 77 304 138 q 556 17 458 17 m 532 918 q 526 915 533 915 q 517 918 518 914 q 513 950 513 935 q 518 988 513 971 q 536 1032 524 1004 q 553 1072 547 1057 q 558 1106 558 1088 q 546 1144 558 1131 q 513 1157 533 1157 q 465 1144 493 1157 l 464 1144 q 456 1149 460 1144 q 456 1156 453 1153 q 561 1192 504 1192 q 630 1172 604 1192 q 656 1118 656 1151 q 639 1068 656 1092 q 590 1013 622 1044 q 546 962 561 983 q 532 918 531 940 z "},"Ỡ":{"ha":1064,"x_min":68,"x_max":1029,"o":"m 1029 918 q 986 824 1029 863 q 871 756 943 786 q 963 612 931 693 q 996 443 996 531 q 929 211 996 317 q 751 44 863 106 q 508 -17 639 -17 q 278 44 379 -17 q 123 208 178 104 q 68 433 68 311 q 140 678 68 576 q 326 832 213 781 q 557 883 439 883 q 723 853 647 883 q 856 771 799 824 q 929 847 929 806 q 917 876 929 861 q 904 897 908 888 q 900 922 900 907 q 920 970 900 953 q 967 988 940 988 q 1013 967 997 988 q 1029 918 1029 946 m 556 17 q 705 62 639 17 q 809 194 771 107 q 847 403 847 282 q 805 632 847 531 q 684 790 763 733 q 500 847 606 847 q 291 751 365 847 q 217 483 217 654 q 260 244 217 351 q 381 77 304 138 q 556 17 458 17 m 639 1068 q 676 1077 661 1068 q 708 1106 692 1086 l 711 1107 q 717 1103 714 1107 q 718 1096 719 1099 q 658 1014 682 1035 q 604 993 635 993 q 525 1008 576 993 q 476 1021 501 1015 q 428 1026 450 1026 q 390 1019 401 1026 q 358 989 379 1011 l 357 989 q 349 992 353 989 q 349 999 346 996 q 468 1103 410 1103 q 536 1089 483 1103 q 639 1068 604 1068 z "},"Ő":{"ha":1064,"x_min":68,"x_max":996,"o":"m 508 -17 q 278 44 379 -17 q 123 208 178 104 q 68 433 68 311 q 140 678 68 576 q 326 832 213 781 q 557 883 439 883 q 789 822 689 883 q 942 658 889 760 q 996 443 996 557 q 929 211 996 317 q 751 44 863 106 q 508 -17 639 -17 m 556 17 q 705 62 639 17 q 809 194 771 107 q 847 403 847 282 q 805 632 847 531 q 684 790 763 733 q 500 847 606 847 q 291 751 365 847 q 217 483 217 654 q 260 244 217 351 q 381 77 304 138 q 556 17 458 17 m 383 931 q 376 936 378 931 q 376 946 374 942 q 501 1107 444 1025 q 540 1106 506 1115 q 601 1083 574 1097 q 615 1063 628 1068 q 386 932 493 1008 l 383 931 m 581 931 q 574 936 576 931 q 575 946 572 942 q 640 1024 607 981 q 700 1107 672 1067 q 737 1106 703 1115 q 797 1083 771 1097 q 811 1063 824 1068 q 585 932 693 1008 l 581 931 z "},"Ō":{"ha":1064,"x_min":68,"x_max":996,"o":"m 508 -17 q 278 44 379 -17 q 123 208 178 104 q 68 433 68 311 q 140 678 68 576 q 326 832 213 781 q 557 883 439 883 q 789 822 689 883 q 942 658 889 760 q 996 443 996 557 q 929 211 996 317 q 751 44 863 106 q 508 -17 639 -17 m 556 17 q 705 62 639 17 q 809 194 771 107 q 847 403 847 282 q 805 632 847 531 q 684 790 763 733 q 500 847 606 847 q 291 751 365 847 q 217 483 217 654 q 260 244 217 351 q 381 77 304 138 q 556 17 458 17 m 363 994 q 354 1002 357 994 q 351 1018 351 1010 q 354 1035 351 1028 q 363 1042 357 1042 l 711 1042 q 720 1035 717 1042 q 724 1018 724 1028 q 720 1001 724 1008 q 711 994 717 994 l 363 994 z "},"Ǫ":{"ha":1064,"x_min":68,"x_max":996,"o":"m 611 -6 q 548 -87 567 -49 q 529 -175 529 -126 q 565 -287 529 -244 q 663 -329 600 -329 q 701 -323 682 -329 q 732 -308 721 -317 l 735 -308 q 742 -312 739 -308 q 742 -319 746 -317 q 588 -382 668 -382 q 472 -340 517 -382 q 426 -235 426 -299 q 574 -12 426 -129 q 508 -17 540 -17 q 278 44 379 -17 q 123 208 178 104 q 68 433 68 311 q 140 678 68 576 q 326 832 213 781 q 557 883 439 883 q 789 822 689 883 q 942 658 889 760 q 996 443 996 557 q 945 239 996 333 q 807 80 894 144 q 611 -6 719 15 m 217 483 q 260 244 217 351 q 381 77 304 138 q 556 17 458 17 q 705 62 639 17 q 809 194 771 107 q 847 403 847 282 q 805 632 847 531 q 684 790 763 733 q 500 847 606 847 q 291 751 365 847 q 217 483 217 654 z "},"Ø":{"ha":1088,"x_min":68,"x_max":996,"o":"m 874 753 q 964 610 932 690 q 996 443 996 529 q 929 211 996 317 q 751 44 863 106 q 508 -17 639 -17 q 218 88 338 -17 l 121 -11 l 119 -12 q 102 -1 113 -12 q 96 14 92 10 l 193 113 q 100 257 132 174 q 68 433 68 340 q 140 678 68 576 q 326 832 213 781 q 557 883 439 883 q 717 856 643 883 q 849 778 792 828 l 947 878 l 949 878 q 967 868 956 878 q 974 854 978 858 l 874 753 m 217 483 q 281 201 217 322 l 769 699 q 655 808 724 769 q 500 847 586 847 q 291 751 365 847 q 217 483 217 654 m 556 17 q 705 62 639 17 q 809 194 771 107 q 847 403 847 282 q 789 667 847 554 l 299 169 q 411 57 344 97 q 556 17 478 17 z "},"Ǿ":{"ha":1088,"x_min":68,"x_max":996,"o":"m 874 753 q 964 610 932 690 q 996 443 996 529 q 929 211 996 317 q 751 44 863 106 q 508 -17 639 -17 q 218 88 338 -17 l 121 -11 l 119 -12 q 102 -1 113 -12 q 96 14 92 10 l 193 113 q 100 257 132 174 q 68 433 68 340 q 140 678 68 576 q 326 832 213 781 q 557 883 439 883 q 717 856 643 883 q 849 778 792 828 l 947 878 l 949 878 q 967 868 956 878 q 974 854 978 858 l 874 753 m 217 483 q 281 201 217 322 l 769 699 q 655 808 724 769 q 500 847 586 847 q 291 751 365 847 q 217 483 217 654 m 556 17 q 705 62 639 17 q 809 194 771 107 q 847 403 847 282 q 789 667 847 554 l 299 169 q 411 57 344 97 q 556 17 478 17 m 417 942 q 410 948 411 942 q 413 957 408 954 q 535 1044 457 983 q 604 1097 599 1093 q 649 1092 611 1103 q 715 1067 686 1081 q 728 1050 743 1053 q 570 1003 642 1029 q 419 943 499 978 l 417 942 z "},"Õ":{"ha":1064,"x_min":68,"x_max":996,"o":"m 508 -17 q 278 44 379 -17 q 123 208 178 104 q 68 433 68 311 q 140 678 68 576 q 326 832 213 781 q 557 883 439 883 q 789 822 689 883 q 942 658 889 760 q 996 443 996 557 q 929 211 996 317 q 751 44 863 106 q 508 -17 639 -17 m 556 17 q 705 62 639 17 q 809 194 771 107 q 847 403 847 282 q 805 632 847 531 q 684 790 763 733 q 500 847 606 847 q 291 751 365 847 q 217 483 217 654 q 260 244 217 351 q 381 77 304 138 q 556 17 458 17 m 649 1049 q 687 1057 672 1049 q 718 1086 701 1065 l 719 1086 q 727 1083 724 1086 q 728 1076 731 1079 q 668 993 692 1014 q 615 972 644 972 q 567 979 593 972 q 535 988 542 986 q 486 1000 511 994 q 439 1006 461 1006 q 403 999 415 1006 q 382 983 392 993 q 368 968 372 972 l 367 968 q 359 972 363 968 q 358 978 356 975 q 479 1082 418 1082 q 544 1068 494 1082 q 649 1049 608 1049 z "},"Œ":{"ha":1286,"x_min":68,"x_max":1222,"o":"m 1206 215 q 1213 218 1206 218 q 1222 214 1222 218 q 1208 21 1208 108 q 1204 5 1208 10 q 1188 0 1200 0 l 754 0 q 663 -3 726 0 q 569 -6 601 -6 q 308 50 422 -6 q 131 202 194 106 q 68 418 68 299 q 134 656 68 553 q 311 815 200 758 q 554 871 422 871 q 656 869 619 871 l 763 868 l 1164 868 q 1176 856 1176 868 l 1179 675 q 1172 671 1179 672 q 1164 674 1165 669 q 1131 747 1157 710 q 1066 809 1106 785 q 982 833 1026 833 l 914 833 q 844 815 864 833 q 824 754 824 797 l 824 469 l 957 469 q 1108 572 1108 469 q 1117 576 1108 576 q 1125 572 1125 576 l 1124 496 q 1122 451 1122 481 l 1124 386 q 1126 314 1126 342 q 1118 311 1126 311 q 1110 314 1110 311 q 954 433 1110 433 l 824 433 l 824 118 q 841 55 824 74 q 901 36 858 36 l 982 36 q 1120 89 1054 36 q 1206 215 1186 142 m 690 751 q 681 808 690 789 q 647 836 672 828 q 569 844 621 844 q 387 798 467 844 q 262 663 307 751 q 217 449 217 574 q 259 232 217 329 q 380 78 301 135 q 561 22 458 22 q 642 29 615 22 q 680 55 669 36 q 690 113 690 74 l 690 751 z "},"P":{"ha":764,"x_min":47,"x_max":710,"o":"m 289 118 q 299 53 289 74 q 340 25 310 33 q 433 17 369 17 q 438 8 438 17 q 433 0 438 0 q 344 1 376 0 l 224 3 l 124 1 q 51 0 97 0 q 47 8 47 0 q 51 17 47 17 q 119 24 99 17 q 148 50 140 31 q 156 113 156 69 l 156 756 q 148 817 156 797 q 119 844 140 836 q 51 851 97 851 q 47 860 47 851 q 51 868 47 868 l 124 867 q 222 864 185 864 q 300 868 254 864 q 345 871 317 869 q 413 872 374 872 q 630 814 550 872 q 710 635 710 756 q 665 486 710 547 q 549 394 619 425 q 406 364 479 364 q 340 371 367 364 q 336 378 336 371 q 338 386 336 382 q 343 389 340 390 q 392 383 365 383 q 514 443 464 383 q 564 614 564 503 q 513 784 564 724 q 371 844 461 844 q 320 838 338 844 q 296 812 303 831 q 289 753 289 793 l 289 118 z "},"Þ":{"ha":757,"x_min":54,"x_max":711,"o":"m 400 204 q 517 265 469 204 q 564 439 564 325 q 513 608 564 550 q 376 667 463 667 q 285 658 328 667 l 285 118 q 295 53 285 74 q 335 25 306 33 q 429 17 365 17 q 432 8 432 17 q 429 0 432 0 q 339 1 371 0 l 219 3 l 126 1 q 58 0 101 0 q 54 8 54 0 q 58 17 54 17 q 119 24 100 17 q 146 51 139 31 q 153 113 153 71 l 153 756 q 146 817 153 797 q 119 844 139 836 q 58 851 99 851 q 54 860 54 851 q 58 868 54 868 l 126 867 q 219 864 185 864 q 339 867 264 864 l 429 868 q 432 860 432 868 q 429 851 432 851 q 335 843 365 851 q 295 814 306 835 q 285 749 285 793 l 285 685 q 411 693 354 693 q 629 638 547 693 q 711 460 711 582 q 667 308 711 369 q 554 215 622 246 q 415 185 486 185 q 347 192 382 185 q 343 199 343 192 q 345 207 343 203 q 350 210 347 211 q 400 204 383 204 z "},"Q":{"ha":1064,"x_min":68,"x_max":1043,"o":"m 1035 -240 q 1041 -246 1039 -239 q 1040 -254 1043 -253 q 926 -271 978 -271 q 712 -203 824 -271 q 519 -17 600 -136 l 508 -17 q 278 44 379 -17 q 123 208 178 104 q 68 433 68 311 q 140 678 68 576 q 326 832 213 781 q 557 883 439 883 q 789 822 689 883 q 942 658 889 760 q 996 443 996 557 q 954 256 996 344 q 839 105 913 168 q 671 10 765 42 q 816 -172 726 -100 q 986 -243 906 -243 q 1035 -240 1010 -243 m 217 483 q 260 244 217 351 q 381 77 304 138 q 556 17 458 17 q 705 62 639 17 q 809 194 771 107 q 847 403 847 282 q 805 632 847 531 q 684 790 763 733 q 500 847 606 847 q 291 751 365 847 q 217 483 217 654 z "},"R":{"ha":958,"x_min":54,"x_max":975,"o":"m 971 17 q 975 8 975 17 q 971 0 975 0 l 747 0 q 628 116 715 0 q 417 440 542 232 q 371 436 394 436 q 299 438 319 436 l 299 113 q 306 50 299 69 q 335 24 314 31 q 404 17 357 17 q 407 8 407 17 q 404 0 407 0 q 333 1 358 0 l 231 3 l 131 1 q 58 0 104 0 q 54 8 54 0 q 58 17 54 17 q 127 24 106 17 q 157 51 149 31 q 165 113 165 71 l 165 756 q 158 817 165 797 q 128 844 150 836 q 60 851 106 851 q 57 860 57 851 q 60 868 57 868 l 132 867 q 231 864 193 864 q 318 868 272 864 q 358 871 335 869 q 410 872 382 872 q 600 826 533 872 q 667 697 667 781 q 628 574 667 632 q 526 479 589 515 q 717 205 640 304 q 854 61 794 106 q 971 17 914 17 m 299 476 q 379 471 332 471 q 496 508 463 471 q 529 646 529 546 q 492 802 529 758 q 386 846 454 846 q 317 826 336 846 q 299 753 299 807 l 299 476 z "},"Ŕ":{"ha":958,"x_min":54,"x_max":975,"o":"m 971 17 q 975 8 975 17 q 971 0 975 0 l 747 0 q 628 116 715 0 q 417 440 542 232 q 371 436 394 436 q 299 438 319 436 l 299 113 q 306 50 299 69 q 335 24 314 31 q 404 17 357 17 q 407 8 407 17 q 404 0 407 0 q 333 1 358 0 l 231 3 l 131 1 q 58 0 104 0 q 54 8 54 0 q 58 17 54 17 q 127 24 106 17 q 157 51 149 31 q 165 113 165 71 l 165 756 q 158 817 165 797 q 128 844 150 836 q 60 851 106 851 q 57 860 57 851 q 60 868 57 868 l 132 867 q 231 864 193 864 q 318 868 272 864 q 358 871 335 869 q 410 872 382 872 q 600 826 533 872 q 667 697 667 781 q 628 574 667 632 q 526 479 589 515 q 717 205 640 304 q 854 61 794 106 q 971 17 914 17 m 299 476 q 379 471 332 471 q 496 508 463 471 q 529 646 529 546 q 492 802 529 758 q 386 846 454 846 q 317 826 336 846 q 299 753 299 807 l 299 476 m 219 942 q 213 948 214 942 q 215 957 211 954 q 338 1044 260 983 q 407 1097 401 1093 q 451 1092 414 1103 q 517 1067 489 1081 q 531 1050 546 1053 q 373 1003 444 1029 q 222 943 301 978 l 219 942 z "},"Ř":{"ha":958,"x_min":54,"x_max":975,"o":"m 971 17 q 975 8 975 17 q 971 0 975 0 l 747 0 q 628 116 715 0 q 417 440 542 232 q 371 436 394 436 q 299 438 319 436 l 299 113 q 306 50 299 69 q 335 24 314 31 q 404 17 357 17 q 407 8 407 17 q 404 0 407 0 q 333 1 358 0 l 231 3 l 131 1 q 58 0 104 0 q 54 8 54 0 q 58 17 54 17 q 127 24 106 17 q 157 51 149 31 q 165 113 165 71 l 165 756 q 158 817 165 797 q 128 844 150 836 q 60 851 106 851 q 57 860 57 851 q 60 868 57 868 l 132 867 q 231 864 193 864 q 318 868 272 864 q 358 871 335 869 q 410 872 382 872 q 600 826 533 872 q 667 697 667 781 q 628 574 667 632 q 526 479 589 515 q 717 205 640 304 q 854 61 794 106 q 971 17 914 17 m 299 476 q 379 471 332 471 q 496 508 463 471 q 529 646 529 546 q 492 802 529 758 q 386 846 454 846 q 317 826 336 846 q 299 753 299 807 l 299 476 m 197 1106 l 197 1107 q 201 1115 197 1111 q 206 1115 204 1118 l 357 1053 l 507 1117 l 508 1117 q 515 1113 513 1117 q 514 1107 517 1110 l 372 954 q 357 949 367 949 q 340 954 346 949 l 197 1106 z "},"Ŗ":{"ha":958,"x_min":54,"x_max":975,"o":"m 971 17 q 975 8 975 17 q 971 0 975 0 l 747 0 q 628 116 715 0 q 417 440 542 232 q 371 436 394 436 q 299 438 319 436 l 299 113 q 306 50 299 69 q 335 24 314 31 q 404 17 357 17 q 407 8 407 17 q 404 0 407 0 q 333 1 358 0 l 231 3 l 131 1 q 58 0 104 0 q 54 8 54 0 q 58 17 54 17 q 127 24 106 17 q 157 51 149 31 q 165 113 165 71 l 165 756 q 158 817 165 797 q 128 844 150 836 q 60 851 106 851 q 57 860 57 851 q 60 868 57 868 l 132 867 q 231 864 193 864 q 318 868 272 864 q 358 871 335 869 q 410 872 382 872 q 600 826 533 872 q 667 697 667 781 q 628 574 667 632 q 526 479 589 515 q 717 205 640 304 q 854 61 794 106 q 971 17 914 17 m 299 476 q 379 471 332 471 q 496 508 463 471 q 529 646 529 546 q 492 802 529 758 q 386 846 454 846 q 317 826 336 846 q 299 753 299 807 l 299 476 m 469 -103 q 538 -132 514 -103 q 561 -212 561 -161 q 535 -304 561 -264 q 463 -382 510 -344 l 460 -383 q 451 -378 454 -383 q 453 -369 449 -372 q 517 -265 517 -318 q 506 -222 517 -236 q 453 -246 490 -246 q 408 -226 425 -246 q 390 -175 390 -207 q 413 -122 390 -140 q 469 -103 436 -103 z "},"Ṛ":{"ha":958,"x_min":54,"x_max":975,"o":"m 971 17 q 975 8 975 17 q 971 0 975 0 l 747 0 q 628 116 715 0 q 417 440 542 232 q 371 436 394 436 q 299 438 319 436 l 299 113 q 306 50 299 69 q 335 24 314 31 q 404 17 357 17 q 407 8 407 17 q 404 0 407 0 q 333 1 358 0 l 231 3 l 131 1 q 58 0 104 0 q 54 8 54 0 q 58 17 54 17 q 127 24 106 17 q 157 51 149 31 q 165 113 165 71 l 165 756 q 158 817 165 797 q 128 844 150 836 q 60 851 106 851 q 57 860 57 851 q 60 868 57 868 l 132 867 q 231 864 193 864 q 318 868 272 864 q 358 871 335 869 q 410 872 382 872 q 600 826 533 872 q 667 697 667 781 q 628 574 667 632 q 526 479 589 515 q 717 205 640 304 q 854 61 794 106 q 971 17 914 17 m 299 476 q 379 471 332 471 q 496 508 463 471 q 529 646 529 546 q 492 802 529 758 q 386 846 454 846 q 317 826 336 846 q 299 753 299 807 l 299 476 m 479 -279 q 423 -260 443 -279 q 403 -204 403 -240 q 423 -151 403 -169 q 479 -132 443 -132 q 533 -151 514 -132 q 553 -204 553 -169 q 534 -260 553 -240 q 479 -279 515 -279 z "},"Ṝ":{"ha":958,"x_min":54,"x_max":975,"o":"m 971 17 q 975 8 975 17 q 971 0 975 0 l 747 0 q 628 116 715 0 q 417 440 542 232 q 371 436 394 436 q 299 438 319 436 l 299 113 q 306 50 299 69 q 335 24 314 31 q 404 17 357 17 q 407 8 407 17 q 404 0 407 0 q 333 1 358 0 l 231 3 l 131 1 q 58 0 104 0 q 54 8 54 0 q 58 17 54 17 q 127 24 106 17 q 157 51 149 31 q 165 113 165 71 l 165 756 q 158 817 165 797 q 128 844 150 836 q 60 851 106 851 q 57 860 57 851 q 60 868 57 868 l 132 867 q 231 864 193 864 q 318 868 272 864 q 358 871 335 869 q 410 872 382 872 q 600 826 533 872 q 667 697 667 781 q 628 574 667 632 q 526 479 589 515 q 717 205 640 304 q 854 61 794 106 q 971 17 914 17 m 299 476 q 379 471 332 471 q 496 508 463 471 q 529 646 529 546 q 492 802 529 758 q 386 846 454 846 q 317 826 336 846 q 299 753 299 807 l 299 476 m 479 -279 q 423 -260 443 -279 q 403 -204 403 -240 q 423 -151 403 -169 q 479 -132 443 -132 q 533 -151 514 -132 q 553 -204 553 -169 q 534 -260 553 -240 q 479 -279 515 -279 m 182 994 q 171 1018 171 994 q 182 1042 171 1042 l 531 1042 q 540 1035 536 1042 q 543 1018 543 1028 q 540 1001 543 1008 q 531 994 536 994 l 182 994 z "},"Ṟ":{"ha":958,"x_min":54,"x_max":975,"o":"m 971 17 q 975 8 975 17 q 971 0 975 0 l 747 0 q 628 116 715 0 q 417 440 542 232 q 371 436 394 436 q 299 438 319 436 l 299 113 q 306 50 299 69 q 335 24 314 31 q 404 17 357 17 q 407 8 407 17 q 404 0 407 0 q 333 1 358 0 l 231 3 l 131 1 q 58 0 104 0 q 54 8 54 0 q 58 17 54 17 q 127 24 106 17 q 157 51 149 31 q 165 113 165 71 l 165 756 q 158 817 165 797 q 128 844 150 836 q 60 851 106 851 q 57 860 57 851 q 60 868 57 868 l 132 867 q 231 864 193 864 q 318 868 272 864 q 358 871 335 869 q 410 872 382 872 q 600 826 533 872 q 667 697 667 781 q 628 574 667 632 q 526 479 589 515 q 717 205 640 304 q 854 61 794 106 q 971 17 914 17 m 299 476 q 379 471 332 471 q 496 508 463 471 q 529 646 529 546 q 492 802 529 758 q 386 846 454 846 q 317 826 336 846 q 299 753 299 807 l 299 476 m 303 -165 q 292 -142 292 -165 q 303 -118 292 -118 l 651 -118 q 660 -125 657 -118 q 664 -142 664 -132 q 660 -158 664 -151 q 651 -165 657 -165 l 303 -165 z "},"S":{"ha":704,"x_min":100,"x_max":631,"o":"m 228 721 q 253 630 228 669 q 317 561 279 590 q 421 492 356 532 q 533 415 492 447 q 602 337 574 383 q 631 228 631 290 q 594 101 631 157 q 490 15 557 46 q 336 -17 422 -17 q 216 -1 278 -17 q 122 36 154 14 q 108 63 110 44 l 100 274 l 100 275 q 107 281 100 281 q 115 276 114 282 q 220 88 161 161 q 371 14 279 14 q 471 47 431 14 q 511 156 511 79 q 484 263 511 217 q 417 339 457 308 q 310 414 378 369 q 206 487 243 457 q 142 560 168 517 q 115 663 115 604 q 156 785 115 735 q 260 859 196 835 q 396 883 325 883 q 490 874 443 883 q 569 851 538 865 q 586 841 582 847 q 590 825 590 835 l 594 636 q 587 630 594 632 q 578 633 579 628 q 503 787 550 718 q 364 856 457 856 q 265 819 301 856 q 228 721 228 783 z "},"Ś":{"ha":704,"x_min":100,"x_max":631,"o":"m 228 721 q 253 630 228 669 q 317 561 279 590 q 421 492 356 532 q 533 415 492 447 q 602 337 574 383 q 631 228 631 290 q 594 101 631 157 q 490 15 557 46 q 336 -17 422 -17 q 216 -1 278 -17 q 122 36 154 14 q 108 63 110 44 l 100 274 l 100 275 q 107 281 100 281 q 115 276 114 282 q 220 88 161 161 q 371 14 279 14 q 471 47 431 14 q 511 156 511 79 q 484 263 511 217 q 417 339 457 308 q 310 414 378 369 q 206 487 243 457 q 142 560 168 517 q 115 663 115 604 q 156 785 115 735 q 260 859 196 835 q 396 883 325 883 q 490 874 443 883 q 569 851 538 865 q 586 841 582 847 q 590 825 590 835 l 594 636 q 587 630 594 632 q 578 633 579 628 q 503 787 550 718 q 364 856 457 856 q 265 819 301 856 q 228 721 228 783 m 232 942 q 225 948 226 942 q 228 957 224 954 q 350 1044 272 983 q 419 1097 414 1093 q 464 1092 426 1103 q 530 1067 501 1081 q 543 1050 558 1053 q 385 1003 457 1029 q 235 943 314 978 l 232 942 z "},"Š":{"ha":704,"x_min":100,"x_max":631,"o":"m 228 721 q 253 630 228 669 q 317 561 279 590 q 421 492 356 532 q 533 415 492 447 q 602 337 574 383 q 631 228 631 290 q 594 101 631 157 q 490 15 557 46 q 336 -17 422 -17 q 216 -1 278 -17 q 122 36 154 14 q 108 63 110 44 l 100 274 l 100 275 q 107 281 100 281 q 115 276 114 282 q 220 88 161 161 q 371 14 279 14 q 471 47 431 14 q 511 156 511 79 q 484 263 511 217 q 417 339 457 308 q 310 414 378 369 q 206 487 243 457 q 142 560 168 517 q 115 663 115 604 q 156 785 115 735 q 260 859 196 835 q 396 883 325 883 q 490 874 443 883 q 569 851 538 865 q 586 841 582 847 q 590 825 590 835 l 594 636 q 587 630 594 632 q 578 633 579 628 q 503 787 550 718 q 364 856 457 856 q 265 819 301 856 q 228 721 228 783 m 210 1106 l 210 1107 q 213 1115 210 1111 q 218 1115 217 1118 l 369 1053 l 519 1117 l 521 1117 q 527 1113 525 1117 q 526 1107 529 1110 l 385 954 q 369 949 379 949 q 353 954 358 949 l 210 1106 z "},"Ş":{"ha":704,"x_min":100,"x_max":631,"o":"m 631 228 q 561 63 631 129 q 378 -15 492 -4 q 371 -58 371 -43 q 384 -98 371 -82 q 428 -132 397 -114 q 484 -178 464 -154 q 504 -240 504 -203 q 464 -339 504 -296 q 343 -382 424 -382 q 244 -319 244 -382 q 259 -285 244 -300 q 294 -269 274 -269 q 328 -280 318 -269 q 346 -310 338 -290 q 363 -340 354 -331 q 394 -350 372 -350 q 431 -311 431 -350 q 405 -246 431 -275 q 314 -181 379 -217 q 303 -174 307 -178 q 300 -164 300 -169 q 306 -140 300 -156 q 353 -17 328 -86 l 336 -17 q 216 -1 278 -17 q 122 36 154 14 q 108 63 110 44 l 100 274 l 100 275 q 107 281 100 281 q 115 276 114 282 q 220 88 161 161 q 371 14 279 14 q 471 47 431 14 q 511 156 511 79 q 484 263 511 217 q 417 339 457 308 q 310 414 378 369 q 206 487 243 457 q 142 560 168 517 q 115 663 115 604 q 156 785 115 735 q 260 859 196 835 q 396 883 325 883 q 490 874 443 883 q 569 851 538 865 q 586 841 582 847 q 590 825 590 835 l 594 636 q 587 630 594 632 q 578 633 579 628 q 503 787 550 718 q 364 856 457 856 q 265 819 301 856 q 228 721 228 783 q 253 630 228 669 q 317 561 279 590 q 421 492 356 532 q 533 415 492 447 q 602 337 574 383 q 631 228 631 290 z "},"Ŝ":{"ha":704,"x_min":100,"x_max":631,"o":"m 228 721 q 253 630 228 669 q 317 561 279 590 q 421 492 356 532 q 533 415 492 447 q 602 337 574 383 q 631 228 631 290 q 594 101 631 157 q 490 15 557 46 q 336 -17 422 -17 q 216 -1 278 -17 q 122 36 154 14 q 108 63 110 44 l 100 274 l 100 275 q 107 281 100 281 q 115 276 114 282 q 220 88 161 161 q 371 14 279 14 q 471 47 431 14 q 511 156 511 79 q 484 263 511 217 q 417 339 457 308 q 310 414 378 369 q 206 487 243 457 q 142 560 168 517 q 115 663 115 604 q 156 785 115 735 q 260 859 196 835 q 396 883 325 883 q 490 874 443 883 q 569 851 538 865 q 586 841 582 847 q 590 825 590 835 l 594 636 q 587 630 594 632 q 578 633 579 628 q 503 787 550 718 q 364 856 457 856 q 265 819 301 856 q 228 721 228 783 m 354 1124 q 371 1131 361 1131 q 386 1124 379 1131 l 528 971 q 529 968 529 971 q 526 963 529 965 q 521 961 522 960 l 371 1024 l 219 961 q 213 965 217 960 q 211 971 208 969 l 354 1124 z "},"Ș":{"ha":704,"x_min":100,"x_max":631,"o":"m 228 721 q 253 630 228 669 q 317 561 279 590 q 421 492 356 532 q 533 415 492 447 q 602 337 574 383 q 631 228 631 290 q 594 101 631 157 q 490 15 557 46 q 336 -17 422 -17 q 216 -1 278 -17 q 122 36 154 14 q 108 63 110 44 l 100 274 l 100 275 q 107 281 100 281 q 115 276 114 282 q 220 88 161 161 q 371 14 279 14 q 471 47 431 14 q 511 156 511 79 q 484 263 511 217 q 417 339 457 308 q 310 414 378 369 q 206 487 243 457 q 142 560 168 517 q 115 663 115 604 q 156 785 115 735 q 260 859 196 835 q 396 883 325 883 q 490 874 443 883 q 569 851 538 865 q 586 841 582 847 q 590 825 590 835 l 594 636 q 587 630 594 632 q 578 633 579 628 q 503 787 550 718 q 364 856 457 856 q 265 819 301 856 q 228 721 228 783 m 369 -103 q 438 -132 414 -103 q 461 -212 461 -161 q 435 -304 461 -264 q 363 -382 410 -344 l 360 -383 q 351 -378 354 -383 q 353 -369 349 -372 q 417 -265 417 -318 q 406 -222 417 -236 q 353 -246 390 -246 q 308 -226 325 -246 q 290 -175 290 -207 q 313 -122 290 -140 q 369 -103 336 -103 z "},"Ṡ":{"ha":704,"x_min":100,"x_max":631,"o":"m 228 721 q 253 630 228 669 q 317 561 279 590 q 421 492 356 532 q 533 415 492 447 q 602 337 574 383 q 631 228 631 290 q 594 101 631 157 q 490 15 557 46 q 336 -17 422 -17 q 216 -1 278 -17 q 122 36 154 14 q 108 63 110 44 l 100 274 l 100 275 q 107 281 100 281 q 115 276 114 282 q 220 88 161 161 q 371 14 279 14 q 471 47 431 14 q 511 156 511 79 q 484 263 511 217 q 417 339 457 308 q 310 414 378 369 q 206 487 243 457 q 142 560 168 517 q 115 663 115 604 q 156 785 115 735 q 260 859 196 835 q 396 883 325 883 q 490 874 443 883 q 569 851 538 865 q 586 841 582 847 q 590 825 590 835 l 594 636 q 587 630 594 632 q 578 633 579 628 q 503 787 550 718 q 364 856 457 856 q 265 819 301 856 q 228 721 228 783 m 371 990 q 315 1010 335 990 q 294 1067 294 1031 q 315 1120 294 1100 q 371 1140 335 1140 q 425 1120 406 1140 q 444 1067 444 1100 q 425 1010 444 1031 q 371 990 406 990 z "},"Ṣ":{"ha":704,"x_min":100,"x_max":631,"o":"m 228 721 q 253 630 228 669 q 317 561 279 590 q 421 492 356 532 q 533 415 492 447 q 602 337 574 383 q 631 228 631 290 q 594 101 631 157 q 490 15 557 46 q 336 -17 422 -17 q 216 -1 278 -17 q 122 36 154 14 q 108 63 110 44 l 100 274 l 100 275 q 107 281 100 281 q 115 276 114 282 q 220 88 161 161 q 371 14 279 14 q 471 47 431 14 q 511 156 511 79 q 484 263 511 217 q 417 339 457 308 q 310 414 378 369 q 206 487 243 457 q 142 560 168 517 q 115 663 115 604 q 156 785 115 735 q 260 859 196 835 q 396 883 325 883 q 490 874 443 883 q 569 851 538 865 q 586 841 582 847 q 590 825 590 835 l 594 636 q 587 630 594 632 q 578 633 579 628 q 503 787 550 718 q 364 856 457 856 q 265 819 301 856 q 228 721 228 783 m 379 -279 q 323 -260 343 -279 q 303 -204 303 -240 q 323 -151 303 -169 q 379 -132 343 -132 q 433 -151 414 -132 q 453 -204 453 -169 q 434 -260 453 -240 q 379 -279 415 -279 z "},"ẞ":{"ha":974,"x_min":32,"x_max":904,"o":"m 689 17 q 768 48 738 17 q 799 139 799 79 q 743 294 799 224 q 558 464 688 365 q 553 485 546 471 l 699 721 q 538 797 619 769 q 393 824 457 824 q 317 804 342 824 q 283 728 293 785 q 274 549 274 671 l 274 113 q 280 50 274 69 q 306 24 286 31 q 369 17 326 17 q 374 8 374 17 q 369 0 374 0 l 206 1 l 36 0 q 32 8 32 0 q 36 17 32 17 q 103 24 81 17 q 133 51 125 32 q 142 113 142 71 l 142 507 q 181 689 142 603 q 301 829 219 775 q 506 883 383 883 q 732 840 588 883 q 753 836 744 836 q 779 845 767 836 q 807 874 792 854 l 813 876 q 820 874 817 876 q 821 868 824 871 l 635 564 q 838 383 771 464 q 904 225 904 301 q 875 115 904 171 q 785 22 846 60 q 639 -17 725 -17 q 550 -9 586 -17 q 476 19 514 -1 q 465 27 468 22 q 463 44 463 32 l 454 225 q 460 232 453 231 q 469 228 468 233 q 518 128 483 178 q 598 48 553 79 q 689 17 643 17 z "},"Ə":{"ha":888,"x_min":53,"x_max":817,"o":"m 382 883 q 717 757 618 883 q 817 450 817 631 q 757 200 817 306 q 595 39 697 94 q 369 -17 493 -17 q 191 22 263 -17 q 86 117 119 61 q 53 226 53 174 q 56 240 53 236 q 68 243 60 243 l 657 246 q 671 400 671 311 q 595 728 671 601 q 375 856 519 856 q 203 801 282 856 q 92 644 125 746 q 86 642 92 642 q 78 644 82 642 q 76 647 75 646 l 139 896 q 148 900 140 901 q 154 894 156 899 q 153 879 153 889 q 175 853 153 853 q 192 856 181 853 q 382 883 286 883 m 418 10 q 566 64 507 10 q 650 218 625 118 l 197 213 q 268 65 207 121 q 418 10 329 10 z "},"T":{"ha":889,"x_min":54,"x_max":838,"o":"m 293 839 q 153 787 208 839 q 69 629 99 735 q 62 626 69 626 q 54 631 54 626 q 67 770 60 685 q 74 899 74 856 q 81 906 74 906 q 89 899 89 906 q 167 868 89 868 q 446 864 286 864 q 619 867 528 864 l 714 868 q 791 875 767 868 q 822 903 815 882 q 831 908 824 908 q 838 903 838 908 q 829 772 833 860 q 825 631 825 685 q 817 626 825 626 q 808 631 810 626 q 743 788 794 738 q 604 839 692 839 q 547 832 565 839 q 522 808 528 825 q 515 753 515 790 l 515 113 q 524 50 515 69 q 557 24 532 31 q 636 17 582 17 q 640 8 640 17 q 636 0 640 0 q 560 1 588 0 l 446 3 l 338 1 q 257 0 308 0 q 254 8 254 0 q 257 17 254 17 q 337 24 311 17 q 372 51 363 31 q 381 113 381 71 l 381 756 q 374 808 381 792 q 349 832 367 825 q 293 839 331 839 z "},"Ŧ":{"ha":878,"x_min":54,"x_max":838,"o":"m 822 903 q 831 908 824 908 q 838 903 838 908 q 829 772 833 860 q 825 631 825 685 q 817 626 825 626 q 808 631 810 626 q 743 788 794 738 q 604 839 692 839 q 547 832 565 839 q 522 808 528 825 q 515 753 515 790 l 515 467 l 644 467 q 651 449 651 467 q 649 436 651 442 q 644 431 647 431 l 515 431 l 515 113 q 524 50 515 69 q 557 24 532 31 q 636 17 582 17 q 640 8 640 17 q 636 0 640 0 q 560 1 588 0 l 446 3 l 338 1 q 257 0 308 0 q 254 8 254 0 q 257 17 254 17 q 337 24 311 17 q 372 51 363 31 q 381 113 381 71 l 381 431 l 250 431 q 244 449 244 431 q 250 467 244 467 l 381 467 l 381 756 q 374 808 381 792 q 349 832 367 825 q 293 839 331 839 q 153 787 208 839 q 69 629 99 735 q 62 626 69 626 q 54 631 54 626 q 67 770 60 685 q 74 899 74 856 q 81 906 74 906 q 89 899 89 906 q 167 868 89 868 q 446 864 286 864 q 619 867 528 864 l 714 868 q 791 875 767 868 q 822 903 815 882 z "},"Ť":{"ha":889,"x_min":54,"x_max":838,"o":"m 293 839 q 153 787 208 839 q 69 629 99 735 q 62 626 69 626 q 54 631 54 626 q 67 770 60 685 q 74 899 74 856 q 81 906 74 906 q 89 899 89 906 q 167 868 89 868 q 446 864 286 864 q 619 867 528 864 l 714 868 q 791 875 767 868 q 822 903 815 882 q 831 908 824 908 q 838 903 838 908 q 829 772 833 860 q 825 631 825 685 q 817 626 825 626 q 808 631 810 626 q 743 788 794 738 q 604 839 692 839 q 547 832 565 839 q 522 808 528 825 q 515 753 515 790 l 515 113 q 524 50 515 69 q 557 24 532 31 q 636 17 582 17 q 640 8 640 17 q 636 0 640 0 q 560 1 588 0 l 446 3 l 338 1 q 257 0 308 0 q 254 8 254 0 q 257 17 254 17 q 337 24 311 17 q 372 51 363 31 q 381 113 381 71 l 381 756 q 374 808 381 792 q 349 832 367 825 q 293 839 331 839 m 285 1106 l 285 1107 q 288 1115 285 1111 q 293 1115 292 1118 l 444 1053 l 594 1117 l 596 1117 q 602 1113 600 1117 q 601 1107 604 1110 l 460 954 q 444 949 454 949 q 428 954 433 949 l 285 1106 z "},"Ţ":{"ha":889,"x_min":54,"x_max":838,"o":"m 822 903 q 831 908 824 908 q 838 903 838 908 q 829 772 833 860 q 825 631 825 685 q 817 626 825 626 q 808 631 810 626 q 743 788 794 738 q 604 839 692 839 q 547 832 565 839 q 522 808 528 825 q 515 753 515 790 l 515 113 q 524 50 515 69 q 557 24 532 31 q 636 17 582 17 q 640 8 640 17 q 636 0 640 0 q 564 1 590 0 l 458 3 q 447 -61 447 -42 q 459 -101 447 -86 q 500 -132 471 -115 q 556 -178 536 -154 q 576 -240 576 -203 q 536 -339 576 -296 q 415 -382 496 -382 q 317 -319 317 -382 q 331 -285 317 -300 q 367 -269 346 -269 q 400 -280 390 -269 q 418 -310 410 -290 q 435 -340 426 -331 q 467 -350 444 -350 q 503 -311 503 -350 q 477 -246 503 -275 q 386 -181 451 -217 q 376 -174 379 -178 q 372 -164 372 -169 q 378 -140 372 -156 q 415 -47 401 -86 q 433 3 429 -8 l 332 1 q 257 0 306 0 q 254 8 254 0 q 257 17 254 17 q 337 24 311 17 q 372 51 363 31 q 381 113 381 71 l 381 756 q 374 808 381 792 q 349 832 367 825 q 293 839 331 839 q 153 787 208 839 q 69 629 99 735 q 62 626 69 626 q 54 631 54 626 q 67 770 60 685 q 74 899 74 856 q 81 906 74 906 q 89 899 89 906 q 167 868 89 868 q 446 864 286 864 q 619 867 528 864 l 714 868 q 791 875 767 868 q 822 903 815 882 z "},"Ț":{"ha":889,"x_min":54,"x_max":838,"o":"m 293 839 q 153 787 208 839 q 69 629 99 735 q 62 626 69 626 q 54 631 54 626 q 67 770 60 685 q 74 899 74 856 q 81 906 74 906 q 89 899 89 906 q 167 868 89 868 q 446 864 286 864 q 619 867 528 864 l 714 868 q 791 875 767 868 q 822 903 815 882 q 831 908 824 908 q 838 903 838 908 q 829 772 833 860 q 825 631 825 685 q 817 626 825 626 q 808 631 810 626 q 743 788 794 738 q 604 839 692 839 q 547 832 565 839 q 522 808 528 825 q 515 753 515 790 l 515 113 q 524 50 515 69 q 557 24 532 31 q 636 17 582 17 q 640 8 640 17 q 636 0 640 0 q 560 1 588 0 l 446 3 l 338 1 q 257 0 308 0 q 254 8 254 0 q 257 17 254 17 q 337 24 311 17 q 372 51 363 31 q 381 113 381 71 l 381 756 q 374 808 381 792 q 349 832 367 825 q 293 839 331 839 m 444 -103 q 513 -132 489 -103 q 536 -212 536 -161 q 510 -304 536 -264 q 438 -382 485 -344 l 435 -383 q 426 -378 429 -383 q 428 -369 424 -372 q 492 -265 492 -318 q 481 -222 492 -236 q 428 -246 465 -246 q 383 -226 400 -246 q 365 -175 365 -207 q 388 -122 365 -140 q 444 -103 411 -103 z "},"Ṭ":{"ha":889,"x_min":54,"x_max":838,"o":"m 293 839 q 153 787 208 839 q 69 629 99 735 q 62 626 69 626 q 54 631 54 626 q 67 770 60 685 q 74 899 74 856 q 81 906 74 906 q 89 899 89 906 q 167 868 89 868 q 446 864 286 864 q 619 867 528 864 l 714 868 q 791 875 767 868 q 822 903 815 882 q 831 908 824 908 q 838 903 838 908 q 829 772 833 860 q 825 631 825 685 q 817 626 825 626 q 808 631 810 626 q 743 788 794 738 q 604 839 692 839 q 547 832 565 839 q 522 808 528 825 q 515 753 515 790 l 515 113 q 524 50 515 69 q 557 24 532 31 q 636 17 582 17 q 640 8 640 17 q 636 0 640 0 q 560 1 588 0 l 446 3 l 338 1 q 257 0 308 0 q 254 8 254 0 q 257 17 254 17 q 337 24 311 17 q 372 51 363 31 q 381 113 381 71 l 381 756 q 374 808 381 792 q 349 832 367 825 q 293 839 331 839 m 454 -279 q 398 -260 418 -279 q 378 -204 378 -240 q 398 -151 378 -169 q 454 -132 418 -132 q 508 -151 489 -132 q 528 -204 528 -169 q 509 -260 528 -240 q 454 -279 490 -279 z "},"Ṯ":{"ha":889,"x_min":54,"x_max":838,"o":"m 293 839 q 153 787 208 839 q 69 629 99 735 q 62 626 69 626 q 54 631 54 626 q 67 770 60 685 q 74 899 74 856 q 81 906 74 906 q 89 899 89 906 q 167 868 89 868 q 446 864 286 864 q 619 867 528 864 l 714 868 q 791 875 767 868 q 822 903 815 882 q 831 908 824 908 q 838 903 838 908 q 829 772 833 860 q 825 631 825 685 q 817 626 825 626 q 808 631 810 626 q 743 788 794 738 q 604 839 692 839 q 547 832 565 839 q 522 808 528 825 q 515 753 515 790 l 515 113 q 524 50 515 69 q 557 24 532 31 q 636 17 582 17 q 640 8 640 17 q 636 0 640 0 q 560 1 588 0 l 446 3 l 338 1 q 257 0 308 0 q 254 8 254 0 q 257 17 254 17 q 337 24 311 17 q 372 51 363 31 q 381 113 381 71 l 381 756 q 374 808 381 792 q 349 832 367 825 q 293 839 331 839 m 278 -165 q 267 -142 267 -165 q 278 -118 267 -118 l 626 -118 q 635 -125 632 -118 q 639 -142 639 -132 q 635 -158 639 -151 q 626 -165 632 -165 l 278 -165 z "},"U":{"ha":974,"x_min":39,"x_max":953,"o":"m 793 699 q 760 811 793 771 q 667 851 728 851 q 664 860 664 851 q 667 868 664 868 l 731 867 q 814 864 783 864 q 889 867 839 864 l 950 868 q 953 860 953 868 q 950 851 953 851 q 866 811 896 851 q 836 699 836 771 l 836 310 q 794 135 836 210 q 674 21 751 61 q 496 -19 597 -19 q 315 20 394 -19 q 192 134 236 60 q 149 308 149 208 l 149 756 q 140 817 149 797 q 110 844 132 836 q 43 851 89 851 q 39 860 39 851 q 43 868 39 868 l 115 867 q 214 864 176 864 q 317 867 256 864 l 386 868 q 390 860 390 868 q 386 851 390 851 q 319 843 340 851 q 289 815 297 835 q 281 753 281 794 l 281 357 q 349 110 281 192 q 542 29 418 29 q 726 102 660 29 q 793 308 793 175 l 793 699 z "},"Ú":{"ha":974,"x_min":39,"x_max":953,"o":"m 793 699 q 760 811 793 771 q 667 851 728 851 q 664 860 664 851 q 667 868 664 868 l 731 867 q 814 864 783 864 q 889 867 839 864 l 950 868 q 953 860 953 868 q 950 851 953 851 q 866 811 896 851 q 836 699 836 771 l 836 310 q 794 135 836 210 q 674 21 751 61 q 496 -19 597 -19 q 315 20 394 -19 q 192 134 236 60 q 149 308 149 208 l 149 756 q 140 817 149 797 q 110 844 132 836 q 43 851 89 851 q 39 860 39 851 q 43 868 39 868 l 115 867 q 214 864 176 864 q 317 867 256 864 l 386 868 q 390 860 390 868 q 386 851 390 851 q 319 843 340 851 q 289 815 297 835 q 281 753 281 794 l 281 357 q 349 110 281 192 q 542 29 418 29 q 726 102 660 29 q 793 308 793 175 l 793 699 m 381 942 q 374 948 375 942 q 376 957 372 954 q 499 1044 421 983 q 568 1097 563 1093 q 613 1092 575 1103 q 678 1067 650 1081 q 692 1050 707 1053 q 534 1003 606 1029 q 383 943 463 978 l 381 942 z "},"Ŭ":{"ha":974,"x_min":39,"x_max":953,"o":"m 793 699 q 760 811 793 771 q 667 851 728 851 q 664 860 664 851 q 667 868 664 868 l 731 867 q 814 864 783 864 q 889 867 839 864 l 950 868 q 953 860 953 868 q 950 851 953 851 q 866 811 896 851 q 836 699 836 771 l 836 310 q 794 135 836 210 q 674 21 751 61 q 496 -19 597 -19 q 315 20 394 -19 q 192 134 236 60 q 149 308 149 208 l 149 756 q 140 817 149 797 q 110 844 132 836 q 43 851 89 851 q 39 860 39 851 q 43 868 39 868 l 115 867 q 214 864 176 864 q 317 867 256 864 l 386 868 q 390 860 390 868 q 386 851 390 851 q 319 843 340 851 q 289 815 297 835 q 281 753 281 794 l 281 357 q 349 110 281 192 q 542 29 418 29 q 726 102 660 29 q 793 308 793 175 l 793 699 m 518 958 q 415 1001 451 958 q 375 1125 378 1044 q 382 1131 375 1131 q 390 1128 389 1131 q 431 1074 393 1099 q 518 1050 468 1050 q 604 1074 567 1050 q 644 1128 642 1099 q 652 1131 644 1132 q 660 1125 660 1131 q 621 1001 657 1044 q 518 958 585 958 z "},"Ǔ":{"ha":974,"x_min":39,"x_max":953,"o":"m 793 699 q 760 811 793 771 q 667 851 728 851 q 664 860 664 851 q 667 868 664 868 l 731 867 q 814 864 783 864 q 889 867 839 864 l 950 868 q 953 860 953 868 q 950 851 953 851 q 866 811 896 851 q 836 699 836 771 l 836 310 q 794 135 836 210 q 674 21 751 61 q 496 -19 597 -19 q 315 20 394 -19 q 192 134 236 60 q 149 308 149 208 l 149 756 q 140 817 149 797 q 110 844 132 836 q 43 851 89 851 q 39 860 39 851 q 43 868 39 868 l 115 867 q 214 864 176 864 q 317 867 256 864 l 386 868 q 390 860 390 868 q 386 851 390 851 q 319 843 340 851 q 289 815 297 835 q 281 753 281 794 l 281 357 q 349 110 281 192 q 542 29 418 29 q 726 102 660 29 q 793 308 793 175 l 793 699 m 358 1106 l 358 1107 q 362 1115 358 1111 q 367 1115 365 1118 l 518 1053 l 668 1117 l 669 1117 q 676 1113 674 1117 q 675 1107 678 1110 l 533 954 q 518 949 528 949 q 501 954 507 949 l 358 1106 z "},"Û":{"ha":974,"x_min":39,"x_max":953,"o":"m 793 699 q 760 811 793 771 q 667 851 728 851 q 664 860 664 851 q 667 868 664 868 l 731 867 q 814 864 783 864 q 889 867 839 864 l 950 868 q 953 860 953 868 q 950 851 953 851 q 866 811 896 851 q 836 699 836 771 l 836 310 q 794 135 836 210 q 674 21 751 61 q 496 -19 597 -19 q 315 20 394 -19 q 192 134 236 60 q 149 308 149 208 l 149 756 q 140 817 149 797 q 110 844 132 836 q 43 851 89 851 q 39 860 39 851 q 43 868 39 868 l 115 867 q 214 864 176 864 q 317 867 256 864 l 386 868 q 390 860 390 868 q 386 851 390 851 q 319 843 340 851 q 289 815 297 835 q 281 753 281 794 l 281 357 q 349 110 281 192 q 542 29 418 29 q 726 102 660 29 q 793 308 793 175 l 793 699 m 503 1124 q 519 1131 510 1131 q 535 1124 528 1131 l 676 971 q 678 968 678 971 q 674 963 678 965 q 669 961 671 960 l 519 1024 l 368 961 q 361 965 365 960 q 360 971 357 969 l 503 1124 z "},"Ü":{"ha":974,"x_min":39,"x_max":953,"o":"m 793 699 q 760 811 793 771 q 667 851 728 851 q 664 860 664 851 q 667 868 664 868 l 731 867 q 814 864 783 864 q 889 867 839 864 l 950 868 q 953 860 953 868 q 950 851 953 851 q 866 811 896 851 q 836 699 836 771 l 836 310 q 794 135 836 210 q 674 21 751 61 q 496 -19 597 -19 q 315 20 394 -19 q 192 134 236 60 q 149 308 149 208 l 149 756 q 140 817 149 797 q 110 844 132 836 q 43 851 89 851 q 39 860 39 851 q 43 868 39 868 l 115 867 q 214 864 176 864 q 317 867 256 864 l 386 868 q 390 860 390 868 q 386 851 390 851 q 319 843 340 851 q 289 815 297 835 q 281 753 281 794 l 281 357 q 349 110 281 192 q 542 29 418 29 q 726 102 660 29 q 793 308 793 175 l 793 699 m 399 983 q 347 1001 365 983 q 328 1053 328 1019 q 347 1102 328 1085 q 399 1119 365 1119 q 448 1102 431 1119 q 465 1053 465 1085 q 448 1001 465 1019 q 399 983 431 983 m 640 983 q 590 1001 608 983 q 571 1053 571 1019 q 590 1101 571 1083 q 640 1119 608 1119 q 690 1102 672 1119 q 708 1053 708 1085 q 690 1001 708 1019 q 640 983 672 983 z "},"Ǘ":{"ha":974,"x_min":39,"x_max":953,"o":"m 793 699 q 760 811 793 771 q 667 851 728 851 q 664 860 664 851 q 667 868 664 868 l 731 867 q 814 864 783 864 q 889 867 839 864 l 950 868 q 953 860 953 868 q 950 851 953 851 q 866 811 896 851 q 836 699 836 771 l 836 310 q 794 135 836 210 q 674 21 751 61 q 496 -19 597 -19 q 315 20 394 -19 q 192 134 236 60 q 149 308 149 208 l 149 756 q 140 817 149 797 q 110 844 132 836 q 43 851 89 851 q 39 860 39 851 q 43 868 39 868 l 115 867 q 214 864 176 864 q 317 867 256 864 l 386 868 q 390 860 390 868 q 386 851 390 851 q 319 843 340 851 q 289 815 297 835 q 281 753 281 794 l 281 357 q 349 110 281 192 q 542 29 418 29 q 726 102 660 29 q 793 308 793 175 l 793 699 m 340 1139 q 333 1145 335 1139 q 335 1154 331 1151 q 510 1251 394 1183 l 581 1293 q 625 1288 588 1299 q 691 1262 663 1276 q 704 1244 719 1247 q 342 1139 506 1203 l 340 1139 m 399 967 q 347 985 365 967 q 328 1038 328 1004 q 347 1085 328 1068 q 399 1103 365 1103 q 447 1085 429 1103 q 465 1038 465 1068 q 448 985 465 1004 q 399 967 431 967 m 640 967 q 590 985 608 967 q 571 1038 571 1004 q 590 1085 571 1068 q 640 1103 608 1103 q 690 1085 672 1103 q 708 1038 708 1068 q 690 985 708 1004 q 640 967 672 967 z "},"Ǚ":{"ha":974,"x_min":39,"x_max":953,"o":"m 793 699 q 760 811 793 771 q 667 851 728 851 q 664 860 664 851 q 667 868 664 868 l 731 867 q 814 864 783 864 q 889 867 839 864 l 950 868 q 953 860 953 868 q 950 851 953 851 q 866 811 896 851 q 836 699 836 771 l 836 310 q 794 135 836 210 q 674 21 751 61 q 496 -19 597 -19 q 315 20 394 -19 q 192 134 236 60 q 149 308 149 208 l 149 756 q 140 817 149 797 q 110 844 132 836 q 43 851 89 851 q 39 860 39 851 q 43 868 39 868 l 115 867 q 214 864 176 864 q 317 867 256 864 l 386 868 q 390 860 390 868 q 386 851 390 851 q 319 843 340 851 q 289 815 297 835 q 281 753 281 794 l 281 357 q 349 110 281 192 q 542 29 418 29 q 726 102 660 29 q 793 308 793 175 l 793 699 m 349 1282 q 347 1283 347 1282 q 347 1283 347 1283 q 351 1290 347 1286 q 357 1292 354 1293 l 524 1218 l 688 1293 l 689 1293 q 695 1290 693 1293 q 694 1283 697 1288 l 538 1131 q 522 1125 532 1125 q 507 1131 513 1125 l 349 1282 m 399 967 q 347 985 365 967 q 328 1038 328 1004 q 347 1085 328 1068 q 399 1103 365 1103 q 447 1085 429 1103 q 465 1038 465 1068 q 448 985 465 1004 q 399 967 431 967 m 640 967 q 590 985 608 967 q 571 1038 571 1004 q 590 1085 571 1068 q 640 1103 608 1103 q 690 1085 672 1103 q 708 1038 708 1068 q 690 985 708 1004 q 640 967 672 967 z "},"Ǜ":{"ha":974,"x_min":39,"x_max":953,"o":"m 793 699 q 760 811 793 771 q 667 851 728 851 q 664 860 664 851 q 667 868 664 868 l 731 867 q 814 864 783 864 q 889 867 839 864 l 950 868 q 953 860 953 868 q 950 851 953 851 q 866 811 896 851 q 836 699 836 771 l 836 310 q 794 135 836 210 q 674 21 751 61 q 496 -19 597 -19 q 315 20 394 -19 q 192 134 236 60 q 149 308 149 208 l 149 756 q 140 817 149 797 q 110 844 132 836 q 43 851 89 851 q 39 860 39 851 q 43 868 39 868 l 115 867 q 214 864 176 864 q 317 867 256 864 l 386 868 q 390 860 390 868 q 386 851 390 851 q 319 843 340 851 q 289 815 297 835 q 281 753 281 794 l 281 357 q 349 110 281 192 q 542 29 418 29 q 726 102 660 29 q 793 308 793 175 l 793 699 m 714 1139 q 351 1244 551 1203 q 366 1262 338 1247 q 432 1288 394 1276 q 476 1293 469 1299 l 550 1250 q 721 1154 649 1190 q 724 1149 724 1153 q 721 1141 724 1144 q 714 1139 718 1138 m 417 967 q 367 985 385 967 q 349 1038 349 1004 q 367 1085 349 1068 q 417 1103 385 1103 q 467 1085 449 1103 q 485 1038 485 1068 q 467 985 485 1004 q 417 967 449 967 m 658 967 q 608 985 626 967 q 590 1038 590 1004 q 608 1085 590 1068 q 658 1103 626 1103 q 710 1085 692 1103 q 729 1038 729 1068 q 710 985 729 1004 q 658 967 692 967 z "},"Ǖ":{"ha":974,"x_min":39,"x_max":953,"o":"m 793 699 q 760 811 793 771 q 667 851 728 851 q 664 860 664 851 q 667 868 664 868 l 731 867 q 814 864 783 864 q 889 867 839 864 l 950 868 q 953 860 953 868 q 950 851 953 851 q 866 811 896 851 q 836 699 836 771 l 836 310 q 794 135 836 210 q 674 21 751 61 q 496 -19 597 -19 q 315 20 394 -19 q 192 134 236 60 q 149 308 149 208 l 149 756 q 140 817 149 797 q 110 844 132 836 q 43 851 89 851 q 39 860 39 851 q 43 868 39 868 l 115 867 q 214 864 176 864 q 317 867 256 864 l 386 868 q 390 860 390 868 q 386 851 390 851 q 319 843 340 851 q 289 815 297 835 q 281 753 281 794 l 281 357 q 349 110 281 192 q 542 29 418 29 q 726 102 660 29 q 793 308 793 175 l 793 699 m 346 1168 q 338 1176 340 1168 q 335 1193 335 1183 q 338 1209 335 1201 q 346 1217 340 1217 l 686 1217 q 695 1210 692 1217 q 699 1193 699 1203 q 695 1176 699 1183 q 686 1168 692 1168 l 346 1168 m 399 967 q 347 985 365 967 q 328 1038 328 1004 q 347 1085 328 1068 q 399 1103 365 1103 q 447 1085 429 1103 q 465 1038 465 1068 q 448 985 465 1004 q 399 967 431 967 m 640 967 q 590 985 608 967 q 571 1038 571 1004 q 590 1085 571 1068 q 640 1103 608 1103 q 690 1085 672 1103 q 708 1038 708 1068 q 690 985 708 1004 q 640 967 672 967 z "},"Ụ":{"ha":974,"x_min":39,"x_max":953,"o":"m 793 699 q 760 811 793 771 q 667 851 728 851 q 664 860 664 851 q 667 868 664 868 l 731 867 q 814 864 783 864 q 889 867 839 864 l 950 868 q 953 860 953 868 q 950 851 953 851 q 866 811 896 851 q 836 699 836 771 l 836 310 q 794 135 836 210 q 674 21 751 61 q 496 -19 597 -19 q 315 20 394 -19 q 192 134 236 60 q 149 308 149 208 l 149 756 q 140 817 149 797 q 110 844 132 836 q 43 851 89 851 q 39 860 39 851 q 43 868 39 868 l 115 867 q 214 864 176 864 q 317 867 256 864 l 386 868 q 390 860 390 868 q 386 851 390 851 q 319 843 340 851 q 289 815 297 835 q 281 753 281 794 l 281 357 q 349 110 281 192 q 542 29 418 29 q 726 102 660 29 q 793 308 793 175 l 793 699 m 489 -279 q 433 -260 453 -279 q 413 -204 413 -240 q 433 -151 413 -169 q 489 -132 453 -132 q 543 -151 524 -132 q 563 -204 563 -169 q 544 -260 563 -240 q 489 -279 525 -279 z "},"Ù":{"ha":974,"x_min":39,"x_max":953,"o":"m 793 699 q 760 811 793 771 q 667 851 728 851 q 664 860 664 851 q 667 868 664 868 l 731 867 q 814 864 783 864 q 889 867 839 864 l 950 868 q 953 860 953 868 q 950 851 953 851 q 866 811 896 851 q 836 699 836 771 l 836 310 q 794 135 836 210 q 674 21 751 61 q 496 -19 597 -19 q 315 20 394 -19 q 192 134 236 60 q 149 308 149 208 l 149 756 q 140 817 149 797 q 110 844 132 836 q 43 851 89 851 q 39 860 39 851 q 43 868 39 868 l 115 867 q 214 864 176 864 q 317 867 256 864 l 386 868 q 390 860 390 868 q 386 851 390 851 q 319 843 340 851 q 289 815 297 835 q 281 753 281 794 l 281 357 q 349 110 281 192 q 542 29 418 29 q 726 102 660 29 q 793 308 793 175 l 793 699 m 657 943 q 347 1050 500 1013 q 362 1067 333 1053 q 427 1092 390 1081 q 471 1097 464 1103 q 533 1050 513 1067 q 663 957 618 986 q 665 951 665 956 q 663 944 665 947 q 657 943 660 942 z "},"Ủ":{"ha":974,"x_min":39,"x_max":953,"o":"m 793 699 q 760 811 793 771 q 667 851 728 851 q 664 860 664 851 q 667 868 664 868 l 731 867 q 814 864 783 864 q 889 867 839 864 l 950 868 q 953 860 953 868 q 950 851 953 851 q 866 811 896 851 q 836 699 836 771 l 836 310 q 794 135 836 210 q 674 21 751 61 q 496 -19 597 -19 q 315 20 394 -19 q 192 134 236 60 q 149 308 149 208 l 149 756 q 140 817 149 797 q 110 844 132 836 q 43 851 89 851 q 39 860 39 851 q 43 868 39 868 l 115 867 q 214 864 176 864 q 317 867 256 864 l 386 868 q 390 860 390 868 q 386 851 390 851 q 319 843 340 851 q 289 815 297 835 q 281 753 281 794 l 281 357 q 349 110 281 192 q 542 29 418 29 q 726 102 660 29 q 793 308 793 175 l 793 699 m 521 904 q 513 901 521 901 q 504 904 506 901 q 501 935 501 915 q 507 975 501 957 q 525 1019 513 993 q 546 1092 546 1061 q 500 1143 546 1143 q 454 1131 476 1143 l 453 1131 q 444 1135 447 1131 q 444 1142 440 1140 q 550 1178 489 1178 q 619 1158 593 1178 q 644 1106 644 1138 q 627 1053 644 1078 q 578 999 610 1029 q 533 947 547 967 q 521 904 519 926 z "},"Ư":{"ha":974,"x_min":39,"x_max":1049,"o":"m 836 285 q 794 123 836 192 q 674 17 751 54 q 496 -19 597 -19 q 244 62 339 -19 q 149 285 149 143 l 149 756 q 140 817 149 797 q 110 844 132 836 q 43 851 89 851 q 39 860 39 851 q 43 868 39 868 l 115 867 q 214 864 176 864 q 317 867 256 864 l 386 868 q 390 860 390 868 q 386 851 390 851 q 319 843 340 851 q 289 815 297 835 q 281 753 281 794 l 281 333 q 349 106 281 182 q 536 29 417 29 q 726 96 658 29 q 793 283 793 163 l 793 699 q 760 811 793 771 q 667 851 728 851 q 664 860 664 851 q 667 868 664 868 l 731 867 q 814 864 783 864 q 916 877 883 864 q 949 919 949 890 q 944 938 949 929 q 935 953 940 946 q 918 994 918 972 q 938 1042 918 1025 q 986 1060 958 1060 q 1033 1039 1017 1060 q 1049 986 1049 1018 q 1011 904 1049 935 q 914 851 974 874 q 857 805 878 838 q 836 699 836 772 l 836 285 z "},"Ứ":{"ha":974,"x_min":39,"x_max":1049,"o":"m 836 285 q 794 123 836 192 q 674 17 751 54 q 496 -19 597 -19 q 244 62 339 -19 q 149 285 149 143 l 149 756 q 140 817 149 797 q 110 844 132 836 q 43 851 89 851 q 39 860 39 851 q 43 868 39 868 l 115 867 q 214 864 176 864 q 317 867 256 864 l 386 868 q 390 860 390 868 q 386 851 390 851 q 319 843 340 851 q 289 815 297 835 q 281 753 281 794 l 281 333 q 349 106 281 182 q 536 29 417 29 q 726 96 658 29 q 793 283 793 163 l 793 699 q 760 811 793 771 q 667 851 728 851 q 664 860 664 851 q 667 868 664 868 l 731 867 q 814 864 783 864 q 916 877 883 864 q 949 919 949 890 q 944 938 949 929 q 935 953 940 946 q 918 994 918 972 q 938 1042 918 1025 q 986 1060 958 1060 q 1033 1039 1017 1060 q 1049 986 1049 1018 q 1011 904 1049 935 q 914 851 974 874 q 857 805 878 838 q 836 699 836 772 l 836 285 m 388 942 q 380 948 382 942 q 382 957 378 954 q 513 1050 428 986 q 574 1097 532 1067 q 618 1092 581 1103 q 684 1067 656 1081 q 697 1050 713 1053 q 389 942 533 1008 l 388 942 z "},"Ự":{"ha":974,"x_min":39,"x_max":1049,"o":"m 836 285 q 794 123 836 192 q 674 17 751 54 q 496 -19 597 -19 q 244 62 339 -19 q 149 285 149 143 l 149 756 q 140 817 149 797 q 110 844 132 836 q 43 851 89 851 q 39 860 39 851 q 43 868 39 868 l 115 867 q 214 864 176 864 q 317 867 256 864 l 386 868 q 390 860 390 868 q 386 851 390 851 q 319 843 340 851 q 289 815 297 835 q 281 753 281 794 l 281 333 q 349 106 281 182 q 536 29 417 29 q 726 96 658 29 q 793 283 793 163 l 793 699 q 760 811 793 771 q 667 851 728 851 q 664 860 664 851 q 667 868 664 868 l 731 867 q 814 864 783 864 q 916 877 883 864 q 949 919 949 890 q 944 938 949 929 q 935 953 940 946 q 918 994 918 972 q 938 1042 918 1025 q 986 1060 958 1060 q 1033 1039 1017 1060 q 1049 986 1049 1018 q 1011 904 1049 935 q 914 851 974 874 q 857 805 878 838 q 836 699 836 772 l 836 285 m 514 -279 q 458 -260 478 -279 q 438 -204 438 -240 q 458 -151 438 -169 q 514 -132 478 -132 q 568 -151 549 -132 q 588 -204 588 -169 q 569 -260 588 -240 q 514 -279 550 -279 z "},"Ừ":{"ha":974,"x_min":39,"x_max":1049,"o":"m 836 285 q 794 123 836 192 q 674 17 751 54 q 496 -19 597 -19 q 244 62 339 -19 q 149 285 149 143 l 149 756 q 140 817 149 797 q 110 844 132 836 q 43 851 89 851 q 39 860 39 851 q 43 868 39 868 l 115 867 q 214 864 176 864 q 317 867 256 864 l 386 868 q 390 860 390 868 q 386 851 390 851 q 319 843 340 851 q 289 815 297 835 q 281 753 281 794 l 281 333 q 349 106 281 182 q 536 29 417 29 q 726 96 658 29 q 793 283 793 163 l 793 699 q 760 811 793 771 q 667 851 728 851 q 664 860 664 851 q 667 868 664 868 l 731 867 q 814 864 783 864 q 916 877 883 864 q 949 919 949 890 q 944 938 949 929 q 935 953 940 946 q 918 994 918 972 q 938 1042 918 1025 q 986 1060 958 1060 q 1033 1039 1017 1060 q 1049 986 1049 1018 q 1011 904 1049 935 q 914 851 974 874 q 857 805 878 838 q 836 699 836 772 l 836 285 m 663 943 q 353 1050 506 1013 q 367 1067 339 1053 q 433 1092 396 1081 q 476 1097 469 1103 q 539 1050 518 1067 q 668 957 624 986 q 671 951 671 956 q 668 944 671 947 q 663 943 665 942 z "},"Ử":{"ha":974,"x_min":39,"x_max":1049,"o":"m 836 285 q 794 123 836 192 q 674 17 751 54 q 496 -19 597 -19 q 244 62 339 -19 q 149 285 149 143 l 149 756 q 140 817 149 797 q 110 844 132 836 q 43 851 89 851 q 39 860 39 851 q 43 868 39 868 l 115 867 q 214 864 176 864 q 317 867 256 864 l 386 868 q 390 860 390 868 q 386 851 390 851 q 319 843 340 851 q 289 815 297 835 q 281 753 281 794 l 281 333 q 349 106 281 182 q 536 29 417 29 q 726 96 658 29 q 793 283 793 163 l 793 699 q 760 811 793 771 q 667 851 728 851 q 664 860 664 851 q 667 868 664 868 l 731 867 q 814 864 783 864 q 916 877 883 864 q 949 919 949 890 q 944 938 949 929 q 935 953 940 946 q 918 994 918 972 q 938 1042 918 1025 q 986 1060 958 1060 q 1033 1039 1017 1060 q 1049 986 1049 1018 q 1011 904 1049 935 q 914 851 974 874 q 857 805 878 838 q 836 699 836 772 l 836 285 m 526 904 q 519 901 526 901 q 510 904 511 901 q 507 935 507 915 q 513 975 507 957 q 531 1019 518 993 q 551 1092 551 1061 q 506 1143 551 1143 q 460 1131 482 1143 l 458 1131 q 449 1135 453 1131 q 450 1142 446 1140 q 556 1178 494 1178 q 624 1158 599 1178 q 650 1106 650 1138 q 633 1053 650 1078 q 583 999 615 1029 q 539 947 553 967 q 526 904 525 926 z "},"Ữ":{"ha":974,"x_min":39,"x_max":1049,"o":"m 836 285 q 794 123 836 192 q 674 17 751 54 q 496 -19 597 -19 q 244 62 339 -19 q 149 285 149 143 l 149 756 q 140 817 149 797 q 110 844 132 836 q 43 851 89 851 q 39 860 39 851 q 43 868 39 868 l 115 867 q 214 864 176 864 q 317 867 256 864 l 386 868 q 390 860 390 868 q 386 851 390 851 q 319 843 340 851 q 289 815 297 835 q 281 753 281 794 l 281 333 q 349 106 281 182 q 536 29 417 29 q 726 96 658 29 q 793 283 793 163 l 793 699 q 760 811 793 771 q 667 851 728 851 q 664 860 664 851 q 667 868 664 868 l 731 867 q 814 864 783 864 q 916 877 883 864 q 949 919 949 890 q 944 938 949 929 q 935 953 940 946 q 918 994 918 972 q 938 1042 918 1025 q 986 1060 958 1060 q 1033 1039 1017 1060 q 1049 986 1049 1018 q 1011 904 1049 935 q 914 851 974 874 q 857 805 878 838 q 836 699 836 772 l 836 285 m 629 1068 q 667 1077 651 1068 q 699 1106 682 1086 l 701 1107 q 707 1103 704 1107 q 708 1096 710 1099 q 649 1014 672 1035 q 594 993 625 993 q 515 1008 567 993 q 466 1021 492 1015 q 418 1026 440 1026 q 381 1019 392 1026 q 349 989 369 1011 l 347 989 q 340 992 343 989 q 339 999 336 996 q 458 1103 400 1103 q 526 1089 474 1103 q 629 1068 594 1068 z "},"Ű":{"ha":974,"x_min":39,"x_max":953,"o":"m 793 699 q 760 811 793 771 q 667 851 728 851 q 664 860 664 851 q 667 868 664 868 l 731 867 q 814 864 783 864 q 889 867 839 864 l 950 868 q 953 860 953 868 q 950 851 953 851 q 866 811 896 851 q 836 699 836 771 l 836 310 q 794 135 836 210 q 674 21 751 61 q 496 -19 597 -19 q 315 20 394 -19 q 192 134 236 60 q 149 308 149 208 l 149 756 q 140 817 149 797 q 110 844 132 836 q 43 851 89 851 q 39 860 39 851 q 43 868 39 868 l 115 867 q 214 864 176 864 q 317 867 256 864 l 386 868 q 390 860 390 868 q 386 851 390 851 q 319 843 340 851 q 289 815 297 835 q 281 753 281 794 l 281 357 q 349 110 281 192 q 542 29 418 29 q 726 102 660 29 q 793 308 793 175 l 793 699 m 364 931 q 356 936 358 931 q 357 946 354 942 q 482 1107 425 1025 q 520 1106 486 1115 q 581 1083 554 1097 q 596 1063 608 1068 q 367 932 474 1008 l 364 931 m 561 931 q 555 936 557 931 q 556 946 553 942 q 620 1024 588 981 q 681 1107 653 1067 q 717 1106 683 1115 q 778 1083 751 1097 q 792 1063 804 1068 q 565 932 674 1008 l 561 931 z "},"Ū":{"ha":974,"x_min":39,"x_max":953,"o":"m 793 699 q 760 811 793 771 q 667 851 728 851 q 664 860 664 851 q 667 868 664 868 l 731 867 q 814 864 783 864 q 889 867 839 864 l 950 868 q 953 860 953 868 q 950 851 953 851 q 866 811 896 851 q 836 699 836 771 l 836 310 q 794 135 836 210 q 674 21 751 61 q 496 -19 597 -19 q 315 20 394 -19 q 192 134 236 60 q 149 308 149 208 l 149 756 q 140 817 149 797 q 110 844 132 836 q 43 851 89 851 q 39 860 39 851 q 43 868 39 868 l 115 867 q 214 864 176 864 q 317 867 256 864 l 386 868 q 390 860 390 868 q 386 851 390 851 q 319 843 340 851 q 289 815 297 835 q 281 753 281 794 l 281 357 q 349 110 281 192 q 542 29 418 29 q 726 102 660 29 q 793 308 793 175 l 793 699 m 343 994 q 335 1002 338 994 q 332 1018 332 1010 q 335 1035 332 1028 q 343 1042 338 1042 l 692 1042 q 701 1035 697 1042 q 704 1018 704 1028 q 701 1001 704 1008 q 692 994 697 994 l 343 994 z "},"Ų":{"ha":974,"x_min":39,"x_max":953,"o":"m 950 868 q 953 860 953 868 q 950 851 953 851 q 866 811 896 851 q 836 699 836 771 l 836 310 q 773 103 836 186 q 599 -7 710 21 q 537 -88 556 -50 q 518 -175 518 -126 q 553 -287 518 -244 q 651 -329 589 -329 q 690 -323 671 -329 q 721 -308 710 -317 l 724 -308 q 731 -312 728 -308 q 731 -319 735 -317 q 576 -382 657 -382 q 460 -340 506 -382 q 415 -235 415 -299 q 558 -15 415 -129 q 496 -19 529 -19 q 315 20 394 -19 q 192 134 236 60 q 149 308 149 208 l 149 756 q 140 817 149 797 q 110 844 132 836 q 43 851 89 851 q 39 860 39 851 q 43 868 39 868 l 115 867 q 214 864 176 864 q 317 867 256 864 l 386 868 q 390 860 390 868 q 386 851 390 851 q 319 843 340 851 q 289 815 297 835 q 281 753 281 794 l 281 357 q 349 110 281 192 q 542 29 418 29 q 726 102 660 29 q 793 308 793 175 l 793 699 q 760 811 793 771 q 667 851 728 851 q 664 860 664 851 q 667 868 664 868 l 731 867 q 814 864 783 864 q 889 867 839 864 l 950 868 z "},"Ů":{"ha":974,"x_min":39,"x_max":953,"o":"m 793 699 q 760 811 793 771 q 667 851 728 851 q 664 860 664 851 q 667 868 664 868 l 731 867 q 814 864 783 864 q 889 867 839 864 l 950 868 q 953 860 953 868 q 950 851 953 851 q 866 811 896 851 q 836 699 836 771 l 836 310 q 794 135 836 210 q 674 21 751 61 q 496 -19 597 -19 q 315 20 394 -19 q 192 134 236 60 q 149 308 149 208 l 149 756 q 140 817 149 797 q 110 844 132 836 q 43 851 89 851 q 39 860 39 851 q 43 868 39 868 l 115 867 q 214 864 176 864 q 317 867 256 864 l 386 868 q 390 860 390 868 q 386 851 390 851 q 319 843 340 851 q 289 815 297 835 q 281 753 281 794 l 281 357 q 349 110 281 192 q 542 29 418 29 q 726 102 660 29 q 793 308 793 175 l 793 699 m 506 982 q 405 1015 443 982 q 367 1092 367 1047 q 414 1171 367 1142 q 519 1200 461 1200 q 617 1167 576 1200 q 658 1089 658 1135 q 612 1011 658 1040 q 506 982 565 982 m 528 1000 q 558 1015 549 1000 q 568 1064 568 1031 q 546 1147 568 1113 q 492 1182 524 1182 q 454 1119 454 1182 q 474 1037 454 1074 q 528 1000 494 1000 z "},"Ũ":{"ha":974,"x_min":39,"x_max":953,"o":"m 793 699 q 760 811 793 771 q 667 851 728 851 q 664 860 664 851 q 667 868 664 868 l 731 867 q 814 864 783 864 q 889 867 839 864 l 950 868 q 953 860 953 868 q 950 851 953 851 q 866 811 896 851 q 836 699 836 771 l 836 310 q 794 135 836 210 q 674 21 751 61 q 496 -19 597 -19 q 315 20 394 -19 q 192 134 236 60 q 149 308 149 208 l 149 756 q 140 817 149 797 q 110 844 132 836 q 43 851 89 851 q 39 860 39 851 q 43 868 39 868 l 115 867 q 214 864 176 864 q 317 867 256 864 l 386 868 q 390 860 390 868 q 386 851 390 851 q 319 843 340 851 q 289 815 297 835 q 281 753 281 794 l 281 357 q 349 110 281 192 q 542 29 418 29 q 726 102 660 29 q 793 308 793 175 l 793 699 m 624 1068 q 661 1077 646 1068 q 693 1106 676 1086 l 696 1107 q 701 1103 699 1107 q 703 1096 704 1099 q 643 1014 667 1035 q 589 993 619 993 q 510 1008 561 993 q 460 1021 486 1015 q 413 1026 435 1026 q 375 1019 386 1026 q 343 989 364 1011 l 342 989 q 334 992 338 989 q 333 999 331 996 q 453 1103 394 1103 q 521 1089 468 1103 q 624 1068 589 1068 z "},"V":{"ha":919,"x_min":0,"x_max":929,"o":"m 925 868 q 929 860 929 868 q 925 851 929 851 q 833 814 875 851 q 765 706 792 776 l 496 1 q 481 -4 494 -4 q 465 1 467 -4 l 114 753 q 64 828 89 804 q 4 851 39 851 q 0 860 0 851 q 4 868 0 868 l 40 867 q 110 864 71 864 q 285 867 207 864 q 342 868 307 868 q 346 860 346 868 q 342 851 346 851 q 254 790 254 851 q 268 738 254 767 l 526 185 l 729 711 q 742 771 742 744 q 716 831 742 810 q 639 851 690 851 q 635 860 635 851 q 639 868 635 868 l 706 867 q 803 864 758 864 q 868 867 829 864 l 925 868 z "},"W":{"ha":1275,"x_min":0,"x_max":1285,"o":"m 1282 868 q 1285 860 1285 868 q 1282 851 1285 851 q 1190 814 1232 851 q 1121 706 1149 776 l 851 1 q 836 -4 850 -4 q 821 1 822 -4 l 642 385 l 496 1 q 481 -4 494 -4 q 465 1 467 -4 l 114 753 q 65 833 85 814 q 4 851 44 851 q 0 860 0 851 q 4 868 0 868 l 40 867 q 110 864 71 864 q 251 867 188 864 q 300 868 271 868 q 304 860 304 868 q 300 851 304 851 q 247 844 263 851 q 231 815 231 836 q 256 738 231 792 l 521 172 l 621 431 l 469 753 q 423 828 444 804 q 372 851 401 851 q 368 860 368 851 q 372 868 368 868 l 406 867 q 467 864 436 864 q 582 867 532 864 q 618 868 596 868 q 622 860 622 868 q 618 851 622 851 q 587 847 596 851 q 578 829 578 842 q 611 738 578 807 l 686 579 l 736 711 q 761 810 761 776 q 719 851 761 851 q 715 860 715 851 q 719 868 715 868 q 749 866 732 868 q 810 864 765 864 q 868 867 835 864 l 922 868 q 925 860 925 868 q 922 851 925 851 q 839 817 875 851 q 774 706 803 782 l 707 533 l 878 172 l 1081 701 q 1094 769 1094 738 q 1072 830 1094 808 q 1007 851 1049 851 q 1003 860 1003 851 q 1007 868 1003 868 l 1068 867 q 1158 864 1118 864 q 1222 867 1186 864 l 1282 868 z "},"Ẃ":{"ha":1275,"x_min":0,"x_max":1285,"o":"m 1282 868 q 1285 860 1285 868 q 1282 851 1285 851 q 1190 814 1232 851 q 1121 706 1149 776 l 851 1 q 836 -4 850 -4 q 821 1 822 -4 l 642 385 l 496 1 q 481 -4 494 -4 q 465 1 467 -4 l 114 753 q 65 833 85 814 q 4 851 44 851 q 0 860 0 851 q 4 868 0 868 l 40 867 q 110 864 71 864 q 251 867 188 864 q 300 868 271 868 q 304 860 304 868 q 300 851 304 851 q 247 844 263 851 q 231 815 231 836 q 256 738 231 792 l 521 172 l 621 431 l 469 753 q 423 828 444 804 q 372 851 401 851 q 368 860 368 851 q 372 868 368 868 l 406 867 q 467 864 436 864 q 582 867 532 864 q 618 868 596 868 q 622 860 622 868 q 618 851 622 851 q 587 847 596 851 q 578 829 578 842 q 611 738 578 807 l 686 579 l 736 711 q 761 810 761 776 q 719 851 761 851 q 715 860 715 851 q 719 868 715 868 q 749 866 732 868 q 810 864 765 864 q 868 867 835 864 l 922 868 q 925 860 925 868 q 922 851 925 851 q 839 817 875 851 q 774 706 803 782 l 707 533 l 878 172 l 1081 701 q 1094 769 1094 738 q 1072 830 1094 808 q 1007 851 1049 851 q 1003 860 1003 851 q 1007 868 1003 868 l 1068 867 q 1158 864 1118 864 q 1222 867 1186 864 l 1282 868 m 515 942 q 508 948 510 942 q 511 957 507 954 q 633 1044 556 983 q 703 1097 697 1093 q 747 1092 710 1103 q 813 1067 785 1081 q 826 1050 842 1053 q 669 1003 740 1029 q 518 943 597 978 l 515 942 z "},"Ŵ":{"ha":1275,"x_min":0,"x_max":1285,"o":"m 1282 868 q 1285 860 1285 868 q 1282 851 1285 851 q 1190 814 1232 851 q 1121 706 1149 776 l 851 1 q 836 -4 850 -4 q 821 1 822 -4 l 642 385 l 496 1 q 481 -4 494 -4 q 465 1 467 -4 l 114 753 q 65 833 85 814 q 4 851 44 851 q 0 860 0 851 q 4 868 0 868 l 40 867 q 110 864 71 864 q 251 867 188 864 q 300 868 271 868 q 304 860 304 868 q 300 851 304 851 q 247 844 263 851 q 231 815 231 836 q 256 738 231 792 l 521 172 l 621 431 l 469 753 q 423 828 444 804 q 372 851 401 851 q 368 860 368 851 q 372 868 368 868 l 406 867 q 467 864 436 864 q 582 867 532 864 q 618 868 596 868 q 622 860 622 868 q 618 851 622 851 q 587 847 596 851 q 578 829 578 842 q 611 738 578 807 l 686 579 l 736 711 q 761 810 761 776 q 719 851 761 851 q 715 860 715 851 q 719 868 715 868 q 749 866 732 868 q 810 864 765 864 q 868 867 835 864 l 922 868 q 925 860 925 868 q 922 851 925 851 q 839 817 875 851 q 774 706 803 782 l 707 533 l 878 172 l 1081 701 q 1094 769 1094 738 q 1072 830 1094 808 q 1007 851 1049 851 q 1003 860 1003 851 q 1007 868 1003 868 l 1068 867 q 1158 864 1118 864 q 1222 867 1186 864 l 1282 868 m 638 1124 q 654 1131 644 1131 q 669 1124 663 1131 l 811 971 q 813 968 813 971 q 809 963 813 965 q 804 961 806 960 l 654 1024 l 503 961 q 496 965 500 960 q 494 971 492 969 l 638 1124 z "},"Ẅ":{"ha":1275,"x_min":0,"x_max":1285,"o":"m 1282 868 q 1285 860 1285 868 q 1282 851 1285 851 q 1190 814 1232 851 q 1121 706 1149 776 l 851 1 q 836 -4 850 -4 q 821 1 822 -4 l 642 385 l 496 1 q 481 -4 494 -4 q 465 1 467 -4 l 114 753 q 65 833 85 814 q 4 851 44 851 q 0 860 0 851 q 4 868 0 868 l 40 867 q 110 864 71 864 q 251 867 188 864 q 300 868 271 868 q 304 860 304 868 q 300 851 304 851 q 247 844 263 851 q 231 815 231 836 q 256 738 231 792 l 521 172 l 621 431 l 469 753 q 423 828 444 804 q 372 851 401 851 q 368 860 368 851 q 372 868 368 868 l 406 867 q 467 864 436 864 q 582 867 532 864 q 618 868 596 868 q 622 860 622 868 q 618 851 622 851 q 587 847 596 851 q 578 829 578 842 q 611 738 578 807 l 686 579 l 736 711 q 761 810 761 776 q 719 851 761 851 q 715 860 715 851 q 719 868 715 868 q 749 866 732 868 q 810 864 765 864 q 868 867 835 864 l 922 868 q 925 860 925 868 q 922 851 925 851 q 839 817 875 851 q 774 706 803 782 l 707 533 l 878 172 l 1081 701 q 1094 769 1094 738 q 1072 830 1094 808 q 1007 851 1049 851 q 1003 860 1003 851 q 1007 868 1003 868 l 1068 867 q 1158 864 1118 864 q 1222 867 1186 864 l 1282 868 m 533 983 q 481 1001 500 983 q 463 1053 463 1019 q 481 1102 463 1085 q 533 1119 500 1119 q 583 1102 565 1119 q 600 1053 600 1085 q 583 1001 600 1019 q 533 983 565 983 m 775 983 q 724 1001 743 983 q 706 1053 706 1019 q 724 1101 706 1083 q 775 1119 743 1119 q 825 1102 807 1119 q 843 1053 843 1085 q 825 1001 843 1019 q 775 983 807 983 z "},"Ẁ":{"ha":1275,"x_min":0,"x_max":1285,"o":"m 1282 868 q 1285 860 1285 868 q 1282 851 1285 851 q 1190 814 1232 851 q 1121 706 1149 776 l 851 1 q 836 -4 850 -4 q 821 1 822 -4 l 642 385 l 496 1 q 481 -4 494 -4 q 465 1 467 -4 l 114 753 q 65 833 85 814 q 4 851 44 851 q 0 860 0 851 q 4 868 0 868 l 40 867 q 110 864 71 864 q 251 867 188 864 q 300 868 271 868 q 304 860 304 868 q 300 851 304 851 q 247 844 263 851 q 231 815 231 836 q 256 738 231 792 l 521 172 l 621 431 l 469 753 q 423 828 444 804 q 372 851 401 851 q 368 860 368 851 q 372 868 368 868 l 406 867 q 467 864 436 864 q 582 867 532 864 q 618 868 596 868 q 622 860 622 868 q 618 851 622 851 q 587 847 596 851 q 578 829 578 842 q 611 738 578 807 l 686 579 l 736 711 q 761 810 761 776 q 719 851 761 851 q 715 860 715 851 q 719 868 715 868 q 749 866 732 868 q 810 864 765 864 q 868 867 835 864 l 922 868 q 925 860 925 868 q 922 851 925 851 q 839 817 875 851 q 774 706 803 782 l 707 533 l 878 172 l 1081 701 q 1094 769 1094 738 q 1072 830 1094 808 q 1007 851 1049 851 q 1003 860 1003 851 q 1007 868 1003 868 l 1068 867 q 1158 864 1118 864 q 1222 867 1186 864 l 1282 868 m 792 943 q 482 1050 635 1013 q 497 1067 468 1053 q 562 1092 525 1081 q 606 1097 599 1103 q 668 1050 647 1067 q 797 957 753 986 q 800 951 800 956 q 797 944 800 947 q 792 943 794 942 z "},"X":{"ha":901,"x_min":8,"x_max":894,"o":"m 890 17 q 894 8 894 17 q 890 0 894 0 q 831 1 851 0 l 749 3 l 636 1 q 565 0 611 0 q 561 8 561 0 q 565 17 561 17 q 619 40 619 17 q 607 71 619 53 l 410 374 l 271 176 q 224 69 224 108 q 243 31 224 44 q 300 17 263 17 q 303 8 303 17 q 300 0 303 0 q 232 1 256 0 l 132 3 l 68 1 q 13 0 51 0 q 8 8 8 0 q 13 17 8 17 q 115 58 57 17 q 233 183 172 99 l 393 400 l 169 743 q 97 826 132 801 q 21 851 63 851 q 17 860 17 851 q 21 868 17 868 l 78 867 q 135 864 117 864 q 254 867 182 864 l 331 868 q 333 860 333 868 q 331 851 333 851 q 289 847 303 851 q 275 828 275 842 q 288 796 275 817 l 478 504 l 607 688 q 656 799 656 757 q 581 851 656 851 q 578 860 578 851 q 581 868 578 868 l 649 867 q 749 864 704 864 q 813 867 776 864 l 868 868 q 872 860 872 868 q 868 851 872 851 q 764 809 822 851 q 644 681 706 767 l 494 478 l 731 115 q 803 40 765 63 q 890 17 840 17 z "},"Y":{"ha":856,"x_min":0,"x_max":865,"o":"m 863 868 q 865 860 865 868 q 863 851 865 851 q 758 803 817 851 q 654 681 700 756 l 496 424 l 496 113 q 503 50 496 69 q 533 24 511 31 q 601 17 554 17 q 606 8 606 17 q 601 0 606 0 q 531 1 556 0 l 429 3 l 329 1 q 256 0 301 0 q 253 8 253 0 q 256 17 253 17 q 324 24 303 17 q 354 51 346 31 q 363 113 363 71 l 363 399 l 151 721 q 70 823 104 794 q 4 851 36 851 q 0 860 0 851 q 4 868 0 868 l 50 867 q 94 864 81 864 q 228 867 142 864 l 314 868 q 317 860 317 868 q 314 851 317 851 q 257 813 257 851 q 274 768 257 793 l 475 458 l 617 690 q 651 790 651 747 q 575 851 651 851 q 572 860 572 851 q 575 868 572 868 l 647 867 q 754 864 706 864 q 811 867 778 864 l 863 868 z "},"Ý":{"ha":856,"x_min":0,"x_max":865,"o":"m 863 868 q 865 860 865 868 q 863 851 865 851 q 758 803 817 851 q 654 681 700 756 l 496 424 l 496 113 q 503 50 496 69 q 533 24 511 31 q 601 17 554 17 q 606 8 606 17 q 601 0 606 0 q 531 1 556 0 l 429 3 l 329 1 q 256 0 301 0 q 253 8 253 0 q 256 17 253 17 q 324 24 303 17 q 354 51 346 31 q 363 113 363 71 l 363 399 l 151 721 q 70 823 104 794 q 4 851 36 851 q 0 860 0 851 q 4 868 0 868 l 50 867 q 94 864 81 864 q 228 867 142 864 l 314 868 q 317 860 317 868 q 314 851 317 851 q 257 813 257 851 q 274 768 257 793 l 475 458 l 617 690 q 651 790 651 747 q 575 851 651 851 q 572 860 572 851 q 575 868 572 868 l 647 867 q 754 864 706 864 q 811 867 778 864 l 863 868 m 310 942 q 303 948 304 942 q 306 957 301 954 q 428 1044 350 983 q 497 1097 492 1093 q 542 1092 504 1103 q 608 1067 579 1081 q 621 1050 636 1053 q 463 1003 535 1029 q 313 943 392 978 l 310 942 z "},"Ŷ":{"ha":856,"x_min":0,"x_max":865,"o":"m 863 868 q 865 860 865 868 q 863 851 865 851 q 758 803 817 851 q 654 681 700 756 l 496 424 l 496 113 q 503 50 496 69 q 533 24 511 31 q 601 17 554 17 q 606 8 606 17 q 601 0 606 0 q 531 1 556 0 l 429 3 l 329 1 q 256 0 301 0 q 253 8 253 0 q 256 17 253 17 q 324 24 303 17 q 354 51 346 31 q 363 113 363 71 l 363 399 l 151 721 q 70 823 104 794 q 4 851 36 851 q 0 860 0 851 q 4 868 0 868 l 50 867 q 94 864 81 864 q 228 867 142 864 l 314 868 q 317 860 317 868 q 314 851 317 851 q 257 813 257 851 q 274 768 257 793 l 475 458 l 617 690 q 651 790 651 747 q 575 851 651 851 q 572 860 572 851 q 575 868 572 868 l 647 867 q 754 864 706 864 q 811 867 778 864 l 863 868 m 432 1124 q 449 1131 439 1131 q 464 1124 457 1131 l 606 971 q 607 968 607 971 q 603 963 607 965 q 599 961 600 960 l 449 1024 l 297 961 q 290 965 294 960 q 289 971 286 969 l 432 1124 z "},"Ÿ":{"ha":856,"x_min":0,"x_max":865,"o":"m 863 868 q 865 860 865 868 q 863 851 865 851 q 758 803 817 851 q 654 681 700 756 l 496 424 l 496 113 q 503 50 496 69 q 533 24 511 31 q 601 17 554 17 q 606 8 606 17 q 601 0 606 0 q 531 1 556 0 l 429 3 l 329 1 q 256 0 301 0 q 253 8 253 0 q 256 17 253 17 q 324 24 303 17 q 354 51 346 31 q 363 113 363 71 l 363 399 l 151 721 q 70 823 104 794 q 4 851 36 851 q 0 860 0 851 q 4 868 0 868 l 50 867 q 94 864 81 864 q 228 867 142 864 l 314 868 q 317 860 317 868 q 314 851 317 851 q 257 813 257 851 q 274 768 257 793 l 475 458 l 617 690 q 651 790 651 747 q 575 851 651 851 q 572 860 572 851 q 575 868 572 868 l 647 867 q 754 864 706 864 q 811 867 778 864 l 863 868 m 328 983 q 276 1001 294 983 q 257 1053 257 1019 q 276 1102 257 1085 q 328 1119 294 1119 q 377 1102 360 1119 q 394 1053 394 1085 q 377 1001 394 1019 q 328 983 360 983 m 569 983 q 519 1001 538 983 q 500 1053 500 1019 q 519 1101 500 1083 q 569 1119 538 1119 q 619 1102 601 1119 q 638 1053 638 1085 q 619 1001 638 1019 q 569 983 601 983 z "},"Ẏ":{"ha":856,"x_min":0,"x_max":865,"o":"m 863 868 q 865 860 865 868 q 863 851 865 851 q 758 803 817 851 q 654 681 700 756 l 496 424 l 496 113 q 503 50 496 69 q 533 24 511 31 q 601 17 554 17 q 606 8 606 17 q 601 0 606 0 q 531 1 556 0 l 429 3 l 329 1 q 256 0 301 0 q 253 8 253 0 q 256 17 253 17 q 324 24 303 17 q 354 51 346 31 q 363 113 363 71 l 363 399 l 151 721 q 70 823 104 794 q 4 851 36 851 q 0 860 0 851 q 4 868 0 868 l 50 867 q 94 864 81 864 q 228 867 142 864 l 314 868 q 317 860 317 868 q 314 851 317 851 q 257 813 257 851 q 274 768 257 793 l 475 458 l 617 690 q 651 790 651 747 q 575 851 651 851 q 572 860 572 851 q 575 868 572 868 l 647 867 q 754 864 706 864 q 811 867 778 864 l 863 868 m 449 990 q 392 1010 413 990 q 372 1067 372 1031 q 392 1120 372 1100 q 449 1140 413 1140 q 503 1120 483 1140 q 522 1067 522 1100 q 503 1010 522 1031 q 449 990 483 990 z "},"Ỵ":{"ha":856,"x_min":0,"x_max":865,"o":"m 863 868 q 865 860 865 868 q 863 851 865 851 q 758 803 817 851 q 654 681 700 756 l 496 424 l 496 113 q 503 50 496 69 q 533 24 511 31 q 601 17 554 17 q 606 8 606 17 q 601 0 606 0 q 531 1 556 0 l 429 3 l 329 1 q 256 0 301 0 q 253 8 253 0 q 256 17 253 17 q 324 24 303 17 q 354 51 346 31 q 363 113 363 71 l 363 399 l 151 721 q 70 823 104 794 q 4 851 36 851 q 0 860 0 851 q 4 868 0 868 l 50 867 q 94 864 81 864 q 228 867 142 864 l 314 868 q 317 860 317 868 q 314 851 317 851 q 257 813 257 851 q 274 768 257 793 l 475 458 l 617 690 q 651 790 651 747 q 575 851 651 851 q 572 860 572 851 q 575 868 572 868 l 647 867 q 754 864 706 864 q 811 867 778 864 l 863 868 m 429 -279 q 373 -260 393 -279 q 353 -204 353 -240 q 373 -151 353 -169 q 429 -132 393 -132 q 483 -151 464 -132 q 503 -204 503 -169 q 484 -260 503 -240 q 429 -279 465 -279 z "},"Ỳ":{"ha":856,"x_min":0,"x_max":865,"o":"m 863 868 q 865 860 865 868 q 863 851 865 851 q 758 803 817 851 q 654 681 700 756 l 496 424 l 496 113 q 503 50 496 69 q 533 24 511 31 q 601 17 554 17 q 606 8 606 17 q 601 0 606 0 q 531 1 556 0 l 429 3 l 329 1 q 256 0 301 0 q 253 8 253 0 q 256 17 253 17 q 324 24 303 17 q 354 51 346 31 q 363 113 363 71 l 363 399 l 151 721 q 70 823 104 794 q 4 851 36 851 q 0 860 0 851 q 4 868 0 868 l 50 867 q 94 864 81 864 q 228 867 142 864 l 314 868 q 317 860 317 868 q 314 851 317 851 q 257 813 257 851 q 274 768 257 793 l 475 458 l 617 690 q 651 790 651 747 q 575 851 651 851 q 572 860 572 851 q 575 868 572 868 l 647 867 q 754 864 706 864 q 811 867 778 864 l 863 868 m 586 943 q 276 1050 429 1013 q 291 1067 263 1053 q 356 1092 319 1081 q 400 1097 393 1103 q 463 1050 442 1067 q 592 957 547 986 q 594 951 594 956 q 592 944 594 947 q 586 943 589 942 z "},"Ỷ":{"ha":856,"x_min":0,"x_max":865,"o":"m 863 868 q 865 860 865 868 q 863 851 865 851 q 758 803 817 851 q 654 681 700 756 l 496 424 l 496 113 q 503 50 496 69 q 533 24 511 31 q 601 17 554 17 q 606 8 606 17 q 601 0 606 0 q 531 1 556 0 l 429 3 l 329 1 q 256 0 301 0 q 253 8 253 0 q 256 17 253 17 q 324 24 303 17 q 354 51 346 31 q 363 113 363 71 l 363 399 l 151 721 q 70 823 104 794 q 4 851 36 851 q 0 860 0 851 q 4 868 0 868 l 50 867 q 94 864 81 864 q 228 867 142 864 l 314 868 q 317 860 317 868 q 314 851 317 851 q 257 813 257 851 q 274 768 257 793 l 475 458 l 617 690 q 651 790 651 747 q 575 851 651 851 q 572 860 572 851 q 575 868 572 868 l 647 867 q 754 864 706 864 q 811 867 778 864 l 863 868 m 450 904 q 442 901 450 901 q 433 904 435 901 q 431 935 431 915 q 436 975 431 957 q 454 1019 442 993 q 475 1092 475 1061 q 429 1143 475 1143 q 383 1131 406 1143 l 382 1131 q 373 1135 376 1131 q 374 1142 369 1140 q 479 1178 418 1178 q 548 1158 522 1178 q 574 1106 574 1138 q 556 1053 574 1078 q 507 999 539 1029 q 463 947 476 967 q 450 904 449 926 z "},"Ȳ":{"ha":856,"x_min":0,"x_max":865,"o":"m 863 868 q 865 860 865 868 q 863 851 865 851 q 758 803 817 851 q 654 681 700 756 l 496 424 l 496 113 q 503 50 496 69 q 533 24 511 31 q 601 17 554 17 q 606 8 606 17 q 601 0 606 0 q 531 1 556 0 l 429 3 l 329 1 q 256 0 301 0 q 253 8 253 0 q 256 17 253 17 q 324 24 303 17 q 354 51 346 31 q 363 113 363 71 l 363 399 l 151 721 q 70 823 104 794 q 4 851 36 851 q 0 860 0 851 q 4 868 0 868 l 50 867 q 94 864 81 864 q 228 867 142 864 l 314 868 q 317 860 317 868 q 314 851 317 851 q 257 813 257 851 q 274 768 257 793 l 475 458 l 617 690 q 651 790 651 747 q 575 851 651 851 q 572 860 572 851 q 575 868 572 868 l 647 867 q 754 864 706 864 q 811 867 778 864 l 863 868 m 272 994 q 264 1002 267 994 q 261 1018 261 1010 q 264 1035 261 1028 q 272 1042 267 1042 l 621 1042 q 630 1035 626 1042 q 633 1018 633 1028 q 630 1001 633 1008 q 621 994 626 994 l 272 994 z "},"Ỹ":{"ha":856,"x_min":0,"x_max":865,"o":"m 863 868 q 865 860 865 868 q 863 851 865 851 q 758 803 817 851 q 654 681 700 756 l 496 424 l 496 113 q 503 50 496 69 q 533 24 511 31 q 601 17 554 17 q 606 8 606 17 q 601 0 606 0 q 531 1 556 0 l 429 3 l 329 1 q 256 0 301 0 q 253 8 253 0 q 256 17 253 17 q 324 24 303 17 q 354 51 346 31 q 363 113 363 71 l 363 399 l 151 721 q 70 823 104 794 q 4 851 36 851 q 0 860 0 851 q 4 868 0 868 l 50 867 q 94 864 81 864 q 228 867 142 864 l 314 868 q 317 860 317 868 q 314 851 317 851 q 257 813 257 851 q 274 768 257 793 l 475 458 l 617 690 q 651 790 651 747 q 575 851 651 851 q 572 860 572 851 q 575 868 572 868 l 647 867 q 754 864 706 864 q 811 867 778 864 l 863 868 m 558 1049 q 597 1057 582 1049 q 628 1086 611 1065 l 629 1086 q 637 1083 633 1086 q 638 1076 640 1079 q 578 993 601 1014 q 525 972 554 972 q 477 979 503 972 q 444 988 451 986 q 396 1000 421 994 q 349 1006 371 1006 q 313 999 325 1006 q 292 983 301 993 q 278 968 282 972 l 276 968 q 269 972 272 968 q 268 978 265 975 q 389 1082 328 1082 q 454 1068 404 1082 q 558 1049 518 1049 z "},"Z":{"ha":836,"x_min":75,"x_max":785,"o":"m 589 833 q 592 842 593 840 q 582 844 592 844 q 310 834 396 844 q 176 788 224 824 q 93 672 129 753 q 88 671 93 671 q 76 676 75 671 l 132 910 q 138 911 132 911 q 149 907 151 911 q 147 896 147 903 q 163 874 147 879 q 228 868 179 868 l 735 868 q 745 861 742 868 q 744 850 749 854 l 244 38 q 240 28 239 31 q 250 26 242 26 l 556 26 q 696 76 636 26 q 769 204 756 126 q 778 208 771 208 q 785 204 785 208 l 765 11 q 762 2 765 7 q 753 -3 758 -3 q 89 0 546 0 q 79 6 82 0 q 81 18 76 13 l 589 833 z "},"Ź":{"ha":836,"x_min":76,"x_max":785,"o":"m 589 833 q 592 842 593 840 q 582 844 592 844 q 310 834 396 844 q 176 788 224 824 q 93 672 129 753 q 88 671 93 671 q 76 676 75 671 l 132 910 q 138 911 132 911 q 149 907 151 911 q 147 896 147 903 q 163 874 147 879 q 228 868 179 868 l 735 868 q 745 861 742 868 q 744 850 749 854 l 244 38 q 240 28 239 31 q 250 26 242 26 l 556 26 q 696 76 636 26 q 769 204 756 126 q 778 208 771 208 q 785 204 785 208 l 765 11 q 762 2 765 7 q 753 -3 758 -3 q 89 0 546 0 q 79 6 82 0 q 81 18 76 13 l 589 833 m 303 942 q 296 948 297 942 q 299 957 294 954 q 421 1044 343 983 q 490 1097 485 1093 q 535 1092 497 1103 q 601 1067 572 1081 q 614 1050 629 1053 q 456 1003 528 1029 q 306 943 385 978 l 303 942 z "},"Ž":{"ha":836,"x_min":76,"x_max":785,"o":"m 589 833 q 592 842 593 840 q 582 844 592 844 q 310 834 396 844 q 176 788 224 824 q 93 672 129 753 q 88 671 93 671 q 76 676 75 671 l 132 910 q 138 911 132 911 q 149 907 151 911 q 147 896 147 903 q 163 874 147 879 q 228 868 179 868 l 735 868 q 745 861 742 868 q 744 850 749 854 l 244 38 q 240 28 239 31 q 250 26 242 26 l 556 26 q 696 76 636 26 q 769 204 756 126 q 778 208 771 208 q 785 204 785 208 l 765 11 q 762 2 765 7 q 753 -3 758 -3 q 89 0 546 0 q 79 6 82 0 q 81 18 76 13 l 589 833 m 281 1106 l 281 1107 q 284 1115 281 1111 q 289 1115 288 1118 l 440 1053 l 590 1117 l 592 1117 q 598 1113 596 1117 q 597 1107 600 1110 l 456 954 q 440 949 450 949 q 424 954 429 949 l 281 1106 z "},"Ż":{"ha":836,"x_min":76,"x_max":785,"o":"m 589 833 q 592 842 593 840 q 582 844 592 844 q 310 834 396 844 q 176 788 224 824 q 93 672 129 753 q 88 671 93 671 q 76 676 75 671 l 132 910 q 138 911 132 911 q 149 907 151 911 q 147 896 147 903 q 163 874 147 879 q 228 868 179 868 l 735 868 q 745 861 742 868 q 744 850 749 854 l 244 38 q 240 28 239 31 q 250 26 242 26 l 556 26 q 696 76 636 26 q 769 204 756 126 q 778 208 771 208 q 785 204 785 208 l 765 11 q 762 2 765 7 q 753 -3 758 -3 q 89 0 546 0 q 79 6 82 0 q 81 18 76 13 l 589 833 m 442 990 q 385 1010 406 990 q 365 1067 365 1031 q 385 1120 365 1100 q 442 1140 406 1140 q 496 1120 476 1140 q 515 1067 515 1100 q 496 1010 515 1031 q 442 990 476 990 z "},"Ẓ":{"ha":836,"x_min":76,"x_max":785,"o":"m 589 833 q 592 842 593 840 q 582 844 592 844 q 310 834 396 844 q 176 788 224 824 q 93 672 129 753 q 88 671 93 671 q 76 676 75 671 l 132 910 q 138 911 132 911 q 149 907 151 911 q 147 896 147 903 q 163 874 147 879 q 228 868 179 868 l 735 868 q 745 861 742 868 q 744 850 749 854 l 244 38 q 240 28 239 31 q 250 26 242 26 l 556 26 q 696 76 636 26 q 769 204 756 126 q 778 208 771 208 q 785 204 785 208 l 765 11 q 762 2 765 7 q 753 -3 758 -3 q 89 0 546 0 q 79 6 82 0 q 81 18 76 13 l 589 833 m 419 -279 q 363 -260 383 -279 q 343 -204 343 -240 q 363 -151 343 -169 q 419 -132 383 -132 q 474 -151 454 -132 q 493 -204 493 -169 q 474 -260 493 -240 q 419 -279 456 -279 z "},"a":{"ha":583,"x_min":63,"x_max":589,"o":"m 581 75 q 588 69 586 75 q 583 60 589 63 l 440 -8 q 428 -11 435 -11 q 390 11 408 -11 q 365 71 372 33 l 293 32 q 156 -10 213 -10 q 87 13 111 -10 q 63 76 63 36 q 93 141 63 119 q 210 192 124 163 l 361 243 l 361 354 q 342 478 361 439 q 283 518 322 518 q 197 408 208 518 q 126 339 190 339 q 67 390 67 339 q 112 463 67 426 q 221 524 157 500 q 335 549 285 549 q 435 510 397 549 q 474 396 474 472 l 474 150 q 488 85 474 107 q 528 63 501 63 q 578 75 549 63 l 581 75 m 363 93 q 361 114 361 99 l 361 221 l 263 185 q 211 155 226 171 q 196 115 196 139 q 213 69 196 86 q 256 53 229 53 q 321 71 285 53 l 363 93 z "},"á":{"ha":583,"x_min":63,"x_max":588,"o":"m 581 75 q 588 69 586 75 q 583 60 589 63 l 440 -8 q 428 -11 435 -11 q 390 11 408 -11 q 365 71 372 33 l 293 32 q 156 -10 213 -10 q 87 13 111 -10 q 63 76 63 36 q 93 141 63 119 q 210 192 124 163 l 361 243 l 361 354 q 342 478 361 439 q 283 518 322 518 q 197 408 208 518 q 126 339 190 339 q 67 390 67 339 q 112 463 67 426 q 221 524 157 500 q 335 549 285 549 q 435 510 397 549 q 474 396 474 472 l 474 150 q 488 85 474 107 q 528 63 501 63 q 578 75 549 63 l 581 75 m 363 93 q 361 114 361 99 l 361 221 l 263 185 q 211 155 226 171 q 196 115 196 139 q 213 69 196 86 q 256 53 229 53 q 321 71 285 53 l 363 93 m 292 658 q 286 656 292 656 q 278 658 282 656 q 276 661 275 660 l 331 994 q 372 1008 333 1000 q 435 1015 410 1015 q 450 1010 451 1015 l 292 658 z "},"ă":{"ha":583,"x_min":63,"x_max":588,"o":"m 581 75 q 588 69 586 75 q 583 60 589 63 l 440 -8 q 428 -11 435 -11 q 390 11 408 -11 q 365 71 372 33 l 293 32 q 156 -10 213 -10 q 87 13 111 -10 q 63 76 63 36 q 93 141 63 119 q 210 192 124 163 l 361 243 l 361 354 q 342 478 361 439 q 283 518 322 518 q 197 408 208 518 q 126 339 190 339 q 67 390 67 339 q 112 463 67 426 q 221 524 157 500 q 335 549 285 549 q 435 510 397 549 q 474 396 474 472 l 474 150 q 488 85 474 107 q 528 63 501 63 q 578 75 549 63 l 581 75 m 363 93 q 361 114 361 99 l 361 221 l 263 185 q 211 155 226 171 q 196 115 196 139 q 213 69 196 86 q 256 53 229 53 q 321 71 285 53 l 363 93 m 151 867 q 159 873 151 872 q 167 869 167 874 q 203 783 167 819 q 294 747 240 747 q 384 783 347 747 q 421 869 421 819 q 428 873 421 874 q 436 867 436 872 q 400 703 436 760 q 294 647 364 647 q 188 703 225 647 q 151 867 151 760 z "},"ắ":{"ha":583,"x_min":63,"x_max":588,"o":"m 581 75 q 588 69 586 75 q 583 60 589 63 l 440 -8 q 428 -11 435 -11 q 390 11 408 -11 q 365 71 372 33 l 293 32 q 156 -10 213 -10 q 87 13 111 -10 q 63 76 63 36 q 93 141 63 119 q 210 192 124 163 l 361 243 l 361 354 q 342 478 361 439 q 283 518 322 518 q 197 408 208 518 q 126 339 190 339 q 67 390 67 339 q 112 463 67 426 q 221 524 157 500 q 335 549 285 549 q 435 510 397 549 q 474 396 474 472 l 474 150 q 488 85 474 107 q 528 63 501 63 q 578 75 549 63 l 581 75 m 363 93 q 361 114 361 99 l 361 221 l 263 185 q 211 155 226 171 q 196 115 196 139 q 213 69 196 86 q 256 53 229 53 q 321 71 285 53 l 363 93 m 294 639 q 191 681 228 639 q 151 804 154 724 q 158 810 151 810 q 167 807 165 811 q 207 753 169 776 q 294 729 244 729 q 381 753 343 729 q 421 807 418 776 q 426 810 421 810 q 436 804 436 810 q 397 681 433 724 q 294 639 361 639 m 215 811 q 211 810 214 810 q 204 815 207 810 q 204 824 201 821 q 293 965 254 893 q 335 963 297 972 q 402 938 372 953 q 418 918 432 922 q 315 872 361 897 q 215 811 268 846 z "}}}
